<?xml version="1.0" standalone="no"?>
<!DOCTYPE svg PUBLIC "-//W3C//DTD SVG 1.1//EN" "http://www.w3.org/Graphics/SVG/1.1/DTD/svg11.dtd" >
<svg xmlns="http://www.w3.org/2000/svg" xmlns:xlink="http://www.w3.org/1999/xlink" version="1.1">
<metadata>
Created by FontForge 20170731 at Tue Feb  4 14:49:13 2020
 By Aleksey,,,
(c) 2020 by LOTTE CONFECTIONERY CO.LTD. All rights reserved.
</metadata>
<defs>
<font id="ghanachoco" horiz-adv-x="1000" >
  <font-face 
    font-family="Ghanachocolate"
    font-weight="400"
    font-stretch="normal"
    units-per-em="1000"
    panose-1="2 11 6 0 0 1 1 1 1 1"
    ascent="800"
    descent="-200"
    x-height="544"
    cap-height="700"
    bbox="-185 -295 1590 900"
    underline-thickness="50"
    underline-position="-375"
    unicode-range="U+0001-FFE6"
  />
<missing-glyph 
 />
    <glyph glyph-name=".notdef" 
 />
    <glyph glyph-name=".null" horiz-adv-x="0" 
 />
    <glyph glyph-name="nonmarkingreturn" horiz-adv-x="333" 
 />
    <glyph glyph-name="cid1" horiz-adv-x="240" 
 />
    <glyph glyph-name="cid1" unicode="&#xa0;" horiz-adv-x="240" 
 />
    <glyph glyph-name="cid1" unicode=" " horiz-adv-x="240" 
 />
    <glyph glyph-name="cid1" horiz-adv-x="240" 
 />
    <glyph glyph-name="cid1" horiz-adv-x="240" 
 />
    <glyph glyph-name="cid1" horiz-adv-x="240" 
 />
    <glyph glyph-name="cid1" horiz-adv-x="240" 
 />
    <glyph glyph-name="cid1" horiz-adv-x="240" 
 />
    <glyph glyph-name="cid1" horiz-adv-x="240" 
 />
    <glyph glyph-name="cid1" horiz-adv-x="240" 
 />
    <glyph glyph-name="cid1" horiz-adv-x="240" 
 />
    <glyph glyph-name="cid1" horiz-adv-x="240" 
 />
    <glyph glyph-name="cid1" horiz-adv-x="240" 
 />
    <glyph glyph-name="cid1" horiz-adv-x="240" 
 />
    <glyph glyph-name="cid1" horiz-adv-x="240" 
 />
    <glyph glyph-name="cid1" horiz-adv-x="240" 
 />
    <glyph glyph-name="cid1" horiz-adv-x="240" 
 />
    <glyph glyph-name="cid1" horiz-adv-x="240" 
 />
    <glyph glyph-name="cid1" horiz-adv-x="240" 
 />
    <glyph glyph-name="cid1" horiz-adv-x="240" 
 />
    <glyph glyph-name="cid1" horiz-adv-x="240" 
 />
    <glyph glyph-name="cid1" unicode="&#xd;" horiz-adv-x="240" 
 />
    <glyph glyph-name="cid1" horiz-adv-x="240" 
 />
    <glyph glyph-name="cid1" horiz-adv-x="240" 
 />
    <glyph glyph-name="cid1" unicode="&#xa;" horiz-adv-x="240" 
 />
    <glyph glyph-name="cid1" unicode="&#x9;" horiz-adv-x="240" 
 />
    <glyph glyph-name="cid1" horiz-adv-x="240" 
 />
    <glyph glyph-name="cid1" horiz-adv-x="240" 
 />
    <glyph glyph-name="cid1" horiz-adv-x="240" 
 />
    <glyph glyph-name="cid1" horiz-adv-x="240" 
 />
    <glyph glyph-name="cid1" horiz-adv-x="240" 
 />
    <glyph glyph-name="cid1" horiz-adv-x="240" 
 />
    <glyph glyph-name="cid1" horiz-adv-x="240" 
 />
    <glyph glyph-name="cid1" horiz-adv-x="240" 
 />
    <glyph glyph-name="cid2" unicode="!" horiz-adv-x="460" 
d="M157 733h226q11 0 17 -6.5t4 -17.5l-24 -165l-116 -325q-2 -6 -7.5 -16.5t-15 -20t-25.5 -17t-39 -7.5q-29 0 -39 12t-9 26zM70 -13q0 51 30.5 78.5t78.5 27.5t80 -27.5t32 -78.5q0 -49 -32 -79t-80 -30t-78.5 30t-30.5 79z" />
    <glyph glyph-name="cid3" unicode="&#x22;" horiz-adv-x="467" 
d="M57 801h140q11 0 17 -6.5t4 -17.5l-21 -119l-32 -141q-8 -14 -21.5 -22.5t-30.5 -8.5q-20 0 -28.5 12t-7.5 26zM256 801h140q11 0 17 -6.5t4 -17.5l-21 -119l-32 -141q-8 -14 -21.5 -22.5t-30.5 -8.5q-20 0 -28.5 12t-7.5 26z" />
    <glyph glyph-name="cid4" unicode="#" horiz-adv-x="720" 
d="M371 203h-96l-37 -203h-158l37 203h-100l13 63h99l34 187h-118l13 63h117l34 184h158l-34 -184h96l34 184h158l-34 -184h123l-13 -63h-122l-34 -187h141l-13 -63h-140l-37 -203h-158zM287 266h96l34 187h-96z" />
    <glyph glyph-name="cid5" unicode="$" horiz-adv-x="702" 
d="M279 -8q-31 0 -67 11t-71.5 27.5t-67 36.5t-52.5 39l92 123l15 -4l27 -137q10 -8 25.5 -16t33.5 -15t37 -12t36 -6l34 250q-39 22 -74.5 41.5t-52.5 30.5q-48 29 -74 70.5t-24 90.5q2 44 18.5 79t51 59t87.5 37.5t127 14.5l11 86h62l-11 -88q31 -3 62.5 -9.5t60 -16
t52 -20.5t39.5 -22l-95 -131l-18 4l-32 132q-7 6 -30.5 12.5t-45.5 8.5l-26 -221q48 -26 95 -54.5t82.5 -64.5t52.5 -80.5t5 -101.5q-5 -21 -14.5 -41.5t-26 -38.5t-41 -33.5t-59.5 -25.5q-38 -10 -76.5 -15.5t-84.5 -4.5l-13 -98h-64zM396 253l-8 4t-7 4l-31 -224
q52 5 76.5 31t26.5 71q4 38 -13.5 68.5t-43.5 45.5zM278 578q0 -30 20 -54.5t53 -44.5l23 186q-56 -8 -76 -31.5t-20 -55.5z" />
    <glyph glyph-name="cid6" unicode="%" horiz-adv-x="940" 
d="M682 732h88l-527 -751h-85zM38 483q0 55 18 98.5t49.5 74t74.5 46.5t94 16q85 0 134 -43t49 -127q0 -49 -18 -91.5t-49.5 -74.5t-74.5 -50.5t-94 -18.5q-41 0 -74.5 10t-57.5 31t-37.5 53t-13.5 76zM181 459q0 -37 2.5 -60.5t7.5 -36.5t12.5 -17.5t17.5 -4.5
q19 0 35.5 16.5t29.5 47t20.5 73t7.5 94.5q0 37 -2 60.5t-7 36.5t-13 17.5t-19 4.5q-17 0 -33.5 -14.5t-29.5 -44t-21 -72.5t-8 -100zM475 151q0 55 18 98.5t49.5 74t74.5 46.5t94 16q85 0 134 -43t49 -127q0 -49 -18 -91.5t-49.5 -74.5t-74.5 -50.5t-94 -18.5
q-41 0 -74.5 10t-57.5 31t-37.5 53t-13.5 76zM618 127q0 -37 2.5 -60.5t7.5 -36.5t12.5 -17.5t17.5 -4.5q19 0 35.5 16.5t29.5 47t20.5 73t7.5 94.5q0 37 -2 60.5t-7 36.5t-13 17.5t-19 4.5q-17 0 -33.5 -14.5t-29.5 -44t-21 -72.5t-8 -100z" />
    <glyph glyph-name="cid7" unicode="&#x26;" horiz-adv-x="944" 
d="M779 356q-2 -45 -19.5 -102.5t-48.5 -106.5q29 -21 53 -35q13 -9 32 -13.5t39.5 -3.5t41.5 7.5t38 20.5l23 -19q-48 -65 -103 -92t-106 -27q-28 0 -47.5 3t-34 7.5t-25 10.5t-20.5 13l-14 9q-24 -14 -52 -23.5t-54.5 -15t-49.5 -8t-37 -2.5q-37 0 -69 0.5t-60.5 3.5
t-55 8.5t-51.5 15.5q-33 13 -55.5 34.5t-37 46.5t-21 50t-6.5 46q0 89 49 144.5t140 84.5q-20 34 -33.5 64.5t-18.5 56.5q-2 11 -2.5 27t2.5 34.5t10 37.5t22 36q38 43 95 62.5t144 16.5q45 -2 77.5 -15.5t53.5 -34t31 -46.5t10 -52q0 -24 -7 -48.5t-24 -48t-47.5 -45
t-76.5 -37.5l-19 -8q21 -29 46 -59.5t52.5 -60.5t56.5 -57.5t59 -49.5q14 26 24.5 58t13.5 54q2 17 -3.5 20.5t-12.5 3.5h-46v34h144zM401 35q45 0 73.5 9.5t56.5 24.5q-38 28 -70.5 59.5t-61 63t-54 62t-47.5 57.5q-15 -20 -26.5 -49t-13.5 -69q-1 -29 8 -57.5t27 -51
t45.5 -36t62.5 -13.5zM369 550q4 -20 17 -43t25 -44l11 4q54 16 86.5 49.5t34.5 80.5q1 17 -5 35.5t-18 33t-30 23.5t-42 8q-23 -1 -41 -14.5t-29 -35t-13.5 -47t4.5 -50.5z" />
    <glyph glyph-name="cid8" unicode="'" horiz-adv-x="297" 
d="M66 801h154q11 0 17 -6.5t4 -17.5l-21 -119l-36 -141q-8 -14 -26 -22.5t-35 -8.5q-16 0 -27 10.5t-10 24.5z" />
    <glyph glyph-name="cid9" unicode="(" horiz-adv-x="444" 
d="M377 -138q-66 4 -117 27.5t-87.5 60.5t-60.5 84.5t-37 100.5t-16.5 108.5t1.5 107.5q9 95 38 175t78 138t116 90.5t153 32.5v-48q-27 -5 -57 -24.5t-56 -64.5t-46.5 -119t-28.5 -187t-1.5 -191t24 -128.5t43 -76.5t54.5 -35v-51z" />
    <glyph glyph-name="cid10" unicode=")" horiz-adv-x="420" 
d="M68 787q66 -4 117 -27.5t87.5 -60.5t60.5 -84.5t37 -100.5t16.5 -108.5t-1.5 -107.5q-9 -95 -38 -175t-78 -138t-116.5 -90.5t-152.5 -32.5v48q27 4 57 24t56 65t46.5 119t28.5 187t1.5 191t-24 128.5t-43 76.5t-54.5 35v51z" />
    <glyph glyph-name="cid11" unicode="*" horiz-adv-x="493" 
d="M344 862q-3 -11 -12.5 -30.5t-20.5 -42t-23 -45t-21 -39.5q14 14 31.5 28.5t35 28.5t34 26l27.5 20q4 3 11.5 1.5t15.5 -7.5t16 -17.5t13 -29.5q8 -28 9 -47t-1 -31t-5.5 -17.5t-5.5 -5.5h-31.5t-45 0.5l-49 1t-42.5 0.5q14 -6 37.5 -17l47 -22t41 -19.5t20.5 -10.5
t4 -10.5t-3 -21.5t-14.5 -28.5t-29.5 -31.5q-12 -10 -29.5 -16t-34 -7.5t-28.5 1.5t-13 9q-2 10 -6.5 28.5t-10 40t-11.5 43.5t-10 39h-1q-8 -31 -15.5 -74.5t-16.5 -85.5q-2 -7 -14.5 -8.5t-29.5 2t-35 11t-29 19.5q-19 20 -28.5 37t-12.5 29t-2 19.5t3 8.5q4 3 23.5 11.5
t43 18.5t45.5 19.5t32 14.5q-30 -2 -71 -2t-83 -3q-10 -1 -17 24.5t7 70.5q7 22 17 37.5t20.5 23.5t19 9.5t13.5 -2.5q6 -7 19.5 -22t29 -31.5t30 -32t23.5 -24.5q-6 19 -12.5 41t-12 43t-10 40t-6.5 33q-1 7 6 13.5t19 11t27.5 7t31.5 2.5q19 0 36 -3t29.5 -7.5t19 -10
t5.5 -11.5z" />
    <glyph glyph-name="cid12" unicode="+" horiz-adv-x="700" 
d="M418 642v-217h207v-122h-207v-217h-147v217h-201v122h201v217h147z" />
    <glyph glyph-name="cid13" unicode="," horiz-adv-x="347" 
d="M229 -183q-13 -20 -34 -37.5t-45.5 -30t-51.5 -18.5t-53 -3v48q45 -2 81.5 21.5t46.5 70.5q4 12 -1 21t-16 6q-22 -2 -40.5 4.5t-31.5 19.5t-20 31t-7 39q0 25 8 46t23 37t35.5 25.5t44.5 11.5q45 3 76.5 -21.5t35.5 -71.5q3 -19 0.5 -44t-9 -52t-17 -54t-25.5 -49z" />
    <glyph glyph-name="cid14" unicode="-" horiz-adv-x="676" 
d="M606 425v-122h-535v122h535z" />
    <glyph glyph-name="cid15" unicode="." horiz-adv-x="300" 
d="M38 -3q0 51 31 79.5t79 28.5t79.5 -28.5t31.5 -79.5q0 -49 -31.5 -79.5t-79.5 -30.5t-79 30.5t-31 79.5z" />
    <glyph glyph-name="cid16" unicode="/" horiz-adv-x="430" 
d="M310 742l88 -30l-277 -781l-85 30z" />
    <glyph glyph-name="cid17" unicode="0" horiz-adv-x="730" 
d="M352 -19q-85 -3 -144.5 19.5t-97 62.5t-55 93t-17.5 110q0 217 89.5 333t258.5 122q83 3 141 -19t94.5 -61.5t53 -91.5t16.5 -108q0 -217 -85.5 -335.5t-253.5 -124.5zM384 672q-26 0 -51 -19.5t-44.5 -65.5t-31.5 -122.5t-12 -190.5q0 -80 9 -127.5t24 -73.5t34.5 -34
t40.5 -8q27 0 50.5 20t41.5 67.5t28.5 125t10.5 191.5q0 78 -8 125t-21.5 72t-32 32.5t-38.5 7.5z" />
    <glyph glyph-name="cid18" unicode="1" horiz-adv-x="400" 
d="M281 112q-3 -33 -14 -55t-26.5 -36t-34 -20t-36.5 -6h-103l55 566q2 24 -4 36.5t-28 12.5h-55v47h36q40 1 77.5 11t69.5 20.5t57.5 19.5t41.5 9q13 0 17.5 -4.5t3.5 -13.5z" />
    <glyph glyph-name="cid19" unicode="2" horiz-adv-x="660" 
d="M75 555q18 54 47.5 85.5t67 48.5t81 21.5t88.5 4.5q60 0 105 -16.5t75 -43.5t45 -61t16 -70q1 -53 -20 -93.5t-56 -73.5t-80.5 -59.5t-94.5 -50.5q-18 -9 -38.5 -21.5t-40 -26t-36.5 -26.5t-30 -24v-8q36 21 73.5 27t76.5 4.5t78.5 -7.5t77.5 -11q41 -5 63 14t24 63l20 1
q16 -58 1.5 -105t-47.5 -79.5t-77.5 -49.5t-88.5 -14q-23 2 -61.5 9.5t-88.5 36.5q-17 10 -36 19t-39.5 12.5t-41.5 -1.5t-41 -23l-22 -21q-9 -9 -22 -8.5t-18 6.5q-6 7 -6 16.5t9 17.5l165 167q33 34 64.5 61t58 57t44.5 68t24 92q4 53 -10 91.5t-58 57.5q-32 9 -65.5 6
t-62 -16.5t-50 -36t-30.5 -52.5z" />
    <glyph glyph-name="cid20" unicode="3" horiz-adv-x="660" 
d="M88 595q23 44 55.5 69t68 37t71.5 14.5t68 2.5q68 -1 116.5 -14t80 -36.5t46.5 -55.5t15 -71q0 -35 -9.5 -61t-25.5 -46t-38 -33.5t-47 -22.5q55 -21 91.5 -65t36.5 -108q0 -71 -36 -124.5t-125 -78.5q-32 -9 -73 -13.5t-80.5 -4.5t-74 3.5t-54.5 9.5q-32 9 -57.5 24.5
t-44 33t-30 34t-15.5 27.5l107 94l15 -7v-144q38 -20 82.5 -23.5t85.5 12.5q37 14 62.5 55.5t26.5 113.5q0 24 -6.5 49t-22.5 45t-42 33t-64 15h-85v45h69q65 0 106.5 33t43.5 105q2 58 -26 89.5t-73 36.5q-30 4 -58.5 -3t-52 -21t-40.5 -33t-26 -38z" />
    <glyph glyph-name="cid21" unicode="4" horiz-adv-x="680" 
d="M16 221l316 392q31 39 58 60t53.5 30t52 10.5t53.5 1.5q26 0 35.5 -13.5t7.5 -29.5l-43 -453h114v-51h-119l-5 -56q-11 -65 -42.5 -91t-68.5 -26h-103l17 173h-326v53zM78 219h269l33 324q2 21 -11 19.5t-24 -15.5z" />
    <glyph glyph-name="cid22" unicode="5" horiz-adv-x="660" 
d="M137 210l15 -7v-140q39 -20 81.5 -24t75.5 9q43 17 67 61t22 118q-1 30 -9.5 57t-26.5 47.5t-47.5 33t-71.5 12.5h-115q-12 0 -22.5 9t-6.5 31l38 238q2 9 6 18.5t13 18t24.5 14.5t40.5 9q39 4 79.5 -0.5t77.5 -12.5t68.5 -17t54.5 -13q51 -11 77 -2.5t31 40.5h20
q2 -50 -14 -85t-45 -57t-67.5 -30.5t-80.5 -5.5q-33 2 -63.5 9.5t-57 16.5t-49 18t-40.5 15q-3 0 -8.5 1t-11.5 0.5t-11 -3.5t-6 -11l-25 -157h154q59 0 113 -9t95.5 -31.5t66.5 -61t25 -98.5q0 -30 -7.5 -62.5t-25.5 -62.5t-49 -54.5t-78 -39.5q-57 -14 -119.5 -17t-120 9
t-104 41.5t-69.5 80.5z" />
    <glyph glyph-name="cid23" unicode="6" horiz-adv-x="660" 
d="M563 579q-29 43 -73 64.5t-95 19.5q-41 -2 -72.5 -23t-53.5 -54t-33.5 -75t-13.5 -86q22 15 57.5 28t86.5 14q65 1 114.5 -15.5t83 -46.5t49.5 -71.5t15 -89.5q-2 -69 -27.5 -122t-82.5 -91q-21 -14 -47.5 -23.5t-53.5 -15t-53 -7.5t-46 -2q-32 0 -58.5 2.5t-45.5 7.5
q-57 13 -94.5 47t-58.5 82t-27.5 107.5t-0.5 124.5q10 96 40 160.5t80 114.5q32 31 65.5 49.5t66.5 27.5t64 10.5t58 0.5q23 -1 50.5 -5.5t55.5 -17t52.5 -35t41.5 -59.5zM219 218q-3 -49 3.5 -84t20.5 -58t33.5 -34.5t41.5 -12.5q21 -1 42.5 9t39 35t29 68t11.5 108
q0 89 -26 128.5t-66 39.5q-27 0 -49.5 -15.5t-39.5 -42.5t-27.5 -63.5t-12.5 -77.5z" />
    <glyph glyph-name="cid24" unicode="7" horiz-adv-x="569" 
d="M557 708q10 0 15 -10.5t-3 -24.5q-51 -71 -90.5 -135t-70 -131.5t-53.5 -142.5t-41 -167q-3 -20 -11 -38.5t-22.5 -32.5t-34.5 -22.5t-45 -8.5h-122q1 6 4 22.5t8 40t13.5 53t21.5 61.5q26 65 62.5 125t74.5 110t73.5 89.5t60.5 64.5h-366v147h526z" />
    <glyph glyph-name="cid25" unicode="8" horiz-adv-x="730" 
d="M414 718q80 0 131.5 -17t81 -42t40.5 -53.5t11 -51.5q0 -67 -40 -112.5t-100 -64.5q22 -5 43.5 -13.5t39.5 -19.5q23 -15 37.5 -33.5t22.5 -37t10.5 -34.5t2.5 -25q0 -44 -17.5 -86.5t-71.5 -83.5q-25 -19 -59 -31.5t-69 -20t-67.5 -10.5t-54.5 -3q-62 0 -121 6t-101 26
q-55 26 -76.5 66.5t-21.5 86.5q0 12 2 28.5t8.5 35t18.5 37.5t31 37q24 22 54 37t62 26q-51 11 -83.5 48.5t-32.5 88.5q0 42 19 82.5t66 75.5q44 32 107 45t127 13zM372 353q-23 0 -46 -10t-41.5 -31t-31 -54t-13.5 -80q-1 -32 6 -59t22 -46.5t37.5 -30.5t54.5 -10
q62 4 95.5 56.5t31.5 150.5q-1 23 -8.5 43.5t-22 36.5t-36 25t-48.5 9zM396 670q-22 0 -50 -15t-45 -53q-9 -20 -13.5 -42t-4.5 -48q0 -53 26 -83t70 -28q19 1 38 9t34.5 26t26 48.5t12.5 76.5t-22 77.5t-72 31.5z" />
    <glyph glyph-name="cid26" unicode="9" horiz-adv-x="660" 
d="M81 113q16 -23 36.5 -37t42 -22t42.5 -11t39 -3q22 0 44 4.5t43 15.5q38 21 64.5 73t31.5 123q-6 -4 -18.5 -10.5t-29.5 -13t-38 -11.5t-43 -5q-53 -1 -99.5 11t-81.5 34q-45 28 -66 73t-21 99q0 27 5.5 55.5t16.5 56.5t28 53.5t40 45.5q28 25 59.5 40t62 22.5t59 10
t52.5 1.5q85 -3 139 -28t85.5 -64.5t43.5 -89.5t13 -103q0 -52 -4.5 -104.5t-18 -101t-37 -92t-60.5 -77.5q-33 -30 -73 -46t-77.5 -22.5t-69 -6.5t-48.5 1q-20 1 -46 4.5t-54 13.5t-55 29t-49 51zM301 270q11 0 23.5 2t25 9t24.5 19.5t23 33.5q5 9 10.5 30t10 49.5
t6.5 61.5t0 67q-2 38 -11.5 62.5t-23.5 39t-30 19.5t-32 4q-19 0 -44.5 -13t-44.5 -51q-9 -18 -14.5 -41.5t-8.5 -48.5t-4 -49.5t0 -43.5q2 -42 9 -71t19 -46.5t27.5 -25t34.5 -7.5z" />
    <glyph glyph-name="cid27" unicode=":" horiz-adv-x="350" 
d="M64 537q0 51 31 78.5t79 27.5t79.5 -27.5t31.5 -78.5q0 -49 -31.5 -79t-79.5 -30t-79 30t-31 79zM64 157q0 51 31 78.5t79 27.5t79.5 -27.5t31.5 -78.5q0 -49 -31.5 -79t-79.5 -30t-79 30t-31 79z" />
    <glyph glyph-name="cid28" unicode=";" horiz-adv-x="350" 
d="M64 537q0 51 31 78.5t79 27.5t79.5 -27.5t31.5 -78.5q0 -49 -31.5 -79t-79.5 -30t-79 30t-31 79zM229 -16q-13 -20 -34 -37t-45.5 -29t-51.5 -17.5t-53 -2.5v48q45 -2 81.5 18.5t46.5 67.5q4 12 -1 21t-16 6q-22 -2 -40 4t-31 19t-20 30.5t-7 38.5q0 25 8 45.5t23 36
t35 24.5t44 11q45 3 76.5 -22t35.5 -72q3 -19 0.5 -42.5t-9 -49t-17 -51t-25.5 -47.5z" />
    <glyph glyph-name="cid29" unicode="&#x3c;" horiz-adv-x="600" 
d="M485 599l41 -53l-246 -237l250 -238l-45 -56l-385 241v102z" />
    <glyph glyph-name="cid30" unicode="=" horiz-adv-x="670" 
d="M591 525v-116h-513v116h513zM591 273v-116h-513v116h513z" />
    <glyph glyph-name="cid31" unicode="&#x3e;" horiz-adv-x="600" 
d="M495 358v-102l-385 -241l-45 56l250 238l-246 237l41 53z" />
    <glyph glyph-name="cid32" unicode="?" horiz-adv-x="693" 
d="M314 399q18 9 36 21.5t32.5 29t23.5 37.5t9 48q1 40 -10 71.5t-32.5 51.5t-52.5 27t-70 -1q-28 -6 -49 -20t-32 -25l-15 -120l-23 -6l-93 81q10 10 28.5 27.5t42.5 37t52.5 38t60.5 31.5q78 32 155.5 34.5t138.5 -23t97 -79t30 -132.5q-3 -36 -24 -73.5t-57 -68
t-86.5 -50.5t-111.5 -21l-39 -106q-2 -6 -10.5 -15.5t-22.5 -19t-33.5 -16t-43.5 -6.5q-31 0 -44 10t-12 24l8 178q28 2 69 9.5t78 25.5zM119 -13q0 51 30.5 78.5t78.5 27.5t80 -27.5t32 -78.5q0 -49 -32 -79t-80 -30t-78.5 30t-30.5 79z" />
    <glyph glyph-name="cid33" unicode="@" 
d="M883 96q-16 -20 -39 -35t-48.5 -25t-53 -15t-52.5 -5q-39 0 -64.5 14.5t-36.5 46.5q-16 -30 -44 -45.5t-66 -15.5q-52 0 -97 13.5t-78 42t-51.5 73.5t-18.5 108q0 81 27.5 136.5t69.5 90t92 50t96 15.5q88 0 123 -65l141 65h18l-23 -380q-3 -32 10.5 -48.5t45.5 -5.5
q23 20 40 48.5t28 61.5t16 68t5 67q0 63 -21.5 122.5t-64.5 106t-107.5 75t-149.5 28.5q-107 0 -188 -30.5t-135 -87t-81.5 -136t-27.5 -177.5q0 -88 25.5 -154t71.5 -110.5t111 -66.5t143 -22q53 0 99.5 5t89 16.5t81.5 31t78 48.5q6 6 12.5 4t10 -7t3.5 -12.5t-7 -13.5
q-75 -66 -171 -91t-199 -25q-120 0 -208.5 31.5t-146 84.5t-85.5 124t-28 151q0 104 37 194t107 156t172 103.5t233 37.5q79 0 150.5 -26.5t126.5 -76t87.5 -120.5t32.5 -160q0 -79 -22.5 -142t-68.5 -121zM605 461q1 24 -20 37.5t-46 13.5t-46.5 -15t-37 -48.5t-24 -86.5
t-8.5 -129q0 -41 3 -74.5t11 -57t22.5 -36.5t37.5 -13q8 0 19.5 2t23.5 9t23.5 19.5t20.5 32.5v13t1 14z" />
    <glyph glyph-name="cid34" unicode="A" horiz-adv-x="750" 
d="M324 562l-98 -262h166zM146 83q-8 -14 -2 -25.5t29 -11.5h26v-46h-195v46h28q23 0 34.5 7.5t23.5 33.5l234 613h105q23 0 39.5 -18t24.5 -44l143 -492q12 -42 41 -47t73 24l16 -23q-54 -63 -111.5 -89t-99.5 -26q-23 0 -40 9t-29 22.5t-19.5 29t-11.5 29.5l-48 180h-199z
" />
    <glyph glyph-name="cid35" unicode="B" horiz-adv-x="735" 
d="M107 628q3 28 -25 28h-45v44h423q44 0 81.5 -9.5t65.5 -30.5t43.5 -55t15.5 -83q0 -59 -30 -96t-80 -57q25 -6 48.5 -18.5t42.5 -32.5t30.5 -47.5t12.5 -64.5q1 -69 -27 -117.5t-97 -78.5q-17 -8 -50 -12.5t-70 -6t-72.5 0t-56.5 5.5q-20 3 -42 12.5t-43 22.5
q-14 -18 -33 -25t-40 -7h-100zM261 106q-2 -9 -3.5 -17t-3.5 -15q14 -8 30.5 -16t36.5 -13q49 -9 80 2.5t49 36t25 59t7 70.5q0 41 -10.5 67t-29.5 41t-46 20.5t-60 6.5h-57zM303 657l-20 -265h48q64 0 99.5 23t38.5 81q2 40 -1.5 70t-15.5 50.5t-35.5 30.5t-61.5 10h-52z
" />
    <glyph glyph-name="cid36" unicode="C" horiz-adv-x="673" 
d="M321 -13q-55 -1 -105.5 20t-89 59.5t-61.5 93.5t-23 122q0 114 30.5 193.5t83.5 131t123.5 76.5t151.5 30q29 1 66.5 -1.5t73 -9t65 -16.5t42.5 -23l-72 -158h-15l-50 152q-4 3 -16 5t-27 3.5t-31.5 2t-28.5 0.5q-41 -2 -78 -28t-65 -73.5t-43 -114t-11 -150.5
q5 -88 53.5 -138.5t126.5 -58.5q21 -2 51.5 1t62 11t58 20t39.5 27l16 -21q-14 -23 -38 -50t-63 -50t-94.5 -39t-131.5 -17z" />
    <glyph glyph-name="cid37" unicode="D" horiz-adv-x="746" 
d="M107 628q3 28 -25 28h-45v44h367q81 0 137.5 -22.5t92 -60t52 -87t16.5 -103.5q0 -47 -2.5 -97t-12.5 -98t-29.5 -91.5t-53.5 -76.5q-22 -21 -59 -36.5t-78 -24.5t-82 -11t-70 3q-20 3 -41 12.5t-42 23.5q-14 -18 -33.5 -24.5t-39.5 -6.5h-100zM303 657l-41 -551
q-2 -10 -4 -18l-4 -16q21 -14 60 -29q56 -13 92.5 16t59.5 88q23 58 28.5 137t5.5 167q0 59 -11 98.5t-30.5 63.5t-45.5 34t-56 10h-54z" />
    <glyph glyph-name="cid38" unicode="E" horiz-adv-x="644" 
d="M107 631q2 15 -5 20t-15 5h-50v44h588v-48h-312l-21 -261h277v-47h-281l-23 -295h341v-49h-484q-29 0 -45 18t-14 41z" />
    <glyph glyph-name="cid39" unicode="F" horiz-adv-x="631" 
d="M107 631q2 15 -6.5 20t-17.5 5h-46v44h578v-48h-299l-22 -276h276v-47h-281l-19 -261q-2 -21 -15.5 -36t-33.5 -25t-44.5 -15t-47.5 -5q-68 0 -67 51z" />
    <glyph glyph-name="cid40" unicode="G" horiz-adv-x="774" 
d="M310 -14q-60 3 -108.5 26.5t-84 62.5t-55 91.5t-20.5 113.5q-2 105 27.5 183.5t84.5 132t132.5 82.5t171.5 34q33 1 73.5 -1.5t78.5 -9.5t68.5 -17t44.5 -22l-74 -153h-14l-48 144q-6 3 -19.5 6.5t-31 5.5t-38 3t-41.5 -2q-98 -11 -154.5 -96t-57.5 -255q0 -72 15.5 -120
t39.5 -76.5t52 -41.5t52 -14h82l23 227q2 14 -6 20t-17 6h-51v46h256q13 0 18 -7.5t4 -16.5l-35 -338h-36q-7 2 -21.5 9t-49.5 8q-16 0 -45.5 -2.5t-58.5 -13.5q-31 -13 -71.5 -14.5t-85.5 -0.5z" />
    <glyph glyph-name="cid41" unicode="H" horiz-adv-x="809" 
d="M524 330h-243l-22 -265q-2 -21 -14.5 -35.5t-31.5 -24t-42.5 -14t-46.5 -4.5q-66 0 -65 51l49 588q2 14 -5 21.5t-18 7.5h-47v45h251q9 0 17 -7t6 -18l-26 -298h243l21 249q2 14 -4 21.5t-17 7.5h-49v45h251q8 0 15.5 -7t5.5 -18l-51 -610q-2 -21 -14.5 -35.5t-32 -24
t-43 -14t-47.5 -4.5q-65 0 -64 51z" />
    <glyph glyph-name="cid42" unicode="I" horiz-adv-x="421" 
d="M129 629q2 14 -3.5 19.5t-16.5 5.5h-41v46h328v-46h-40q-8 0 -12 -5.5t-6 -19.5l-43 -557q-2 -14 2 -20t18 -6h39v-46h-328v46h40q9 0 13.5 5.5t6.5 19.5z" />
    <glyph glyph-name="cid43" unicode="J" horiz-adv-x="462" 
d="M324 -89q-5 -52 -26.5 -85.5t-52 -53t-67.5 -27.5t-71 -8q-53 -1 -93.5 15t-70.5 45.5t-50 69.5t-30 87l152 12l7 -10l-50 -110q5 -13 15 -23t22.5 -17t25 -10.5t21.5 -2.5q13 1 24 5.5t19 15t13.5 30t8.5 52.5l62 727q2 15 -5.5 23t-21.5 8h-43v46h333v-46h-42
q-15 0 -18 -5.5t-5 -19.5z" />
    <glyph glyph-name="cid44" unicode="K" horiz-adv-x="768" 
d="M107 631q2 15 -6.5 20t-17.5 5h-46v44h247q15 0 20.5 -8t3.5 -19l-23 -260l249 214q14 14 12 20.5t-13 6.5h-34v46h234v-46h-34q-17 0 -29.5 -1.5t-23.5 -6t-23.5 -13.5t-29.5 -24l-254 -216q50 -1 94 -3.5t67 -7.5q33 -7 56 -34.5t38.5 -63t25.5 -73.5t18 -66
q8 -35 36 -44t75 26l15 -20q-23 -32 -50.5 -54.5t-56 -37t-55.5 -21.5t-49 -7q-23 0 -43.5 7t-38 24t-30.5 44t-19 68q-4 25 -11.5 58t-18 65.5t-24 58t-28.5 35.5q-7 4 -24.5 4.5t-36.5 1.5l-19 -284q-2 -21 -14.5 -36t-31 -25t-42 -15t-46.5 -5q-65 0 -64 51z" />
    <glyph glyph-name="cid45" unicode="L" horiz-adv-x="583" 
d="M568 0h-456q-24 0 -38 16.5t-12 40.5l46 570q3 28 -23 28h-47v45h258q13 0 18 -8.5t4 -16.5l-52 -625h302v-50z" />
    <glyph glyph-name="cid46" unicode="M" horiz-adv-x="933" 
d="M654 700h252v-43h-35q-14 0 -22.5 -5t-10.5 -27l-40 -473q-1 -19 5 -32.5t19.5 -18.5t33 0.5t45.5 23.5l17 -22q-27 -32 -56.5 -54t-59 -36.5t-56 -21t-47.5 -6.5q-51 0 -75.5 34.5t-17.5 109.5l34 428l-265 -539h-23q-7 0 -15 2.5t-16 10.5t-16 23t-15 41l-123 424
l-33 -432q-2 -20 4.5 -33.5t30.5 -13.5h31v-40h-191v40h26q23 0 33 11.5t12 37.5l41 540q1 8 -3 17t-18 9h-39v45h253l121 -443z" />
    <glyph glyph-name="cid47" unicode="N" horiz-adv-x="763" 
d="M635 0h-69q-29 0 -60.5 21.5t-61.5 78.5l-275 464l-34 -476q-1 -20 4 -34t29 -14h33v-40h-191v40h31q21 0 29 11t10 37l38 535q2 14 -7 22.5t-22 8.5h-33v46h248l286 -492l30 408q3 39 -30 39h-43v45h206v-45h-39q-19 0 -25.5 -9.5t-8.5 -29.5z" />
    <glyph glyph-name="cid48" unicode="O" horiz-adv-x="800" 
d="M385 -10q-88 -1 -153 20t-107.5 58.5t-63.5 89t-21 113.5q0 106 27 188t76.5 137.5t119.5 84t156 28.5q90 0 154.5 -20.5t106 -56.5t61 -85.5t19.5 -109.5q0 -214 -96.5 -329.5t-278.5 -117.5zM417 664q-27 0 -57.5 -16.5t-56.5 -60t-43.5 -118.5t-17.5 -192
q0 -76 13 -123t34 -73.5t46.5 -36t50.5 -9.5q27 0 56.5 18.5t53.5 64t40 122t16 193.5q0 76 -11.5 121.5t-30.5 70t-43.5 32t-49.5 7.5z" />
    <glyph glyph-name="cid49" unicode="P" horiz-adv-x="727" 
d="M107 627q2 14 -5 21.5t-18 7.5h-47v44h389q54 0 103 -11.5t85.5 -36.5t58 -63t20.5 -91q-2 -68 -27.5 -117t-71 -80t-109 -45.5t-140.5 -14.5h-74l-15 -175q-2 -21 -14 -35.5t-30 -24t-41 -14t-46 -4.5q-65 0 -64 51zM320 657q-17 0 -18 -22l-27 -350h21q15 0 35.5 1
t42 7.5t42.5 19.5t37.5 37t27 60.5t10.5 90.5q0 31 -5.5 59t-18 49.5t-34 34.5t-54.5 13h-59z" />
    <glyph glyph-name="cid50" unicode="Q" horiz-adv-x="800" 
d="M174 -53q21 2 44.5 7t47 11.5t46 13.5t41.5 13q-80 3 -139 25.5t-97.5 60t-57.5 87.5t-19 109q0 106 27 188t76.5 137.5t119.5 84t156 28.5q90 0 154 -20.5t105.5 -56.5t61 -85.5t19.5 -109.5q0 -174 -64.5 -284t-187.5 -148q-16 -8 -37.5 -16.5t-43.5 -17t-42.5 -14.5
t-33.5 -9l297 -40q1 -22 -3 -48.5t-11.5 -50t-18 -40t-23.5 -17.5q-37 22 -90 45.5t-111 45t-116.5 39t-106.5 27.5zM417 667q-27 0 -57.5 -17t-56.5 -60.5t-43.5 -118.5t-17.5 -191q0 -76 13 -123t34 -73.5t46.5 -36t50.5 -9.5q27 0 56.5 18.5t53.5 64t40 122t16 193.5
q0 76 -11.5 121.5t-30.5 70t-43.5 32t-49.5 7.5z" />
    <glyph glyph-name="cid51" unicode="R" horiz-adv-x="739" 
d="M107 627q2 14 -5 21.5t-18 7.5h-47v44h390q71 0 118 -15t74.5 -38.5t39 -52.5t12.5 -58q2 -87 -54 -142.5t-160 -66.5l26 -4q33 -7 54 -25t34 -42t21.5 -52.5t16.5 -56.5q10 -35 37 -44t75 26l17 -19q-23 -32 -51 -54.5t-56.5 -37.5t-56 -22t-48.5 -7q-23 0 -44.5 7
t-38.5 24t-30 44t-19 68q-4 25 -10 52t-15 52t-21 44.5t-27 28.5q-8 5 -21.5 6t-25.5 2l-19 -251q-2 -21 -14 -35.5t-30 -24t-41 -14t-46 -4.5q-65 0 -64 51zM319 657q-9 -1 -13 -5.5t-5 -16.5l-23 -275h61q18 0 41 7.5t43 27t34 55t14 91.5q0 21 -6 41.5t-19 37t-33 27
t-47 10.5h-47z" />
    <glyph glyph-name="cid52" unicode="S" horiz-adv-x="704" 
d="M89 520q2 52 29 89t74 61t110.5 34t139.5 8t136.5 -18.5t92.5 -41.5l-95 -131l-18 4l-32 132q-10 5 -31 8t-37 3q-85 0 -130 -26t-45 -64q0 -31 21.5 -55t56.5 -45q33 -19 70.5 -38.5t73.5 -41t67.5 -46.5t53 -54.5t30 -65.5t-0.5 -80q-5 -21 -15 -42.5t-28 -40.5
t-43.5 -35.5t-60.5 -26.5q-63 -18 -133.5 -19.5t-141.5 9.5q-31 4 -62 13.5t-60 22.5t-54.5 29t-44.5 34l93 127l15 -4l31 -139q18 -14 47 -24.5t54 -12.5q55 -4 90.5 4t56.5 23t29.5 34t10.5 37q7 73 -44 103q-26 15 -55.5 31t-57 31.5t-51 29t-35.5 21.5
q-48 29 -78.5 71.5t-28.5 91.5z" />
    <glyph glyph-name="cid53" unicode="T" horiz-adv-x="678" 
d="M231 623q1 10 -3.5 19.5t-22.5 9.5h-188v48h642v-48h-190q-14 0 -20.5 -6t-8.5 -23l-46 -554q-2 -21 -15.5 -36t-34 -25t-45 -15t-47.5 -5q-69 0 -68 51z" />
    <glyph glyph-name="cid54" unicode="U" horiz-adv-x="754" 
d="M108 631q2 15 -6 20t-17 5h-48v44h245q15 0 19.5 -7.5t3.5 -18.5l-41 -500q-2 -30 4 -55t20.5 -44t37.5 -29.5t55 -10.5q28 0 61 5.5t62 22.5t50.5 48.5t26.5 83.5l32 425q2 20 -6 27.5t-26 7.5h-37v45h199v-45h-32q-14 0 -23.5 -5t-13.5 -31l-33 -426q-6 -65 -35 -105.5
t-69 -63t-85.5 -30.5t-85.5 -8q-78 0 -135 15t-93 41t-52.5 60t-13.5 72z" />
    <glyph glyph-name="cid55" unicode="V" horiz-adv-x="737" 
d="M590 616q8 14 2 26t-29 12h-30v46h196v-46h-22q-23 0 -36.5 -8t-25.5 -34l-272 -616h-81q-6 0 -16 2.5t-20 10.5t-18.5 23t-12.5 39l-129 559q-3 9 -7 16.5t-23 7.5h-53v46h279l108 -522z" />
    <glyph glyph-name="cid56" unicode="W" horiz-adv-x="1011" 
d="M867 613q8 18 4.5 29.5t-22.5 11.5h-32v46h185v-46h-28q-21 0 -28.5 -8t-19.5 -34l-266 -616h-70q-22 0 -44.5 27t-25.5 77l-33 302l-156 -406h-73q-23 0 -44.5 27.5t-29.5 76.5l-99 524q-4 16 -8.5 23t-24.5 7h-38v46h250l89 -510l122 317l-12 117q-1 9 -5.5 18.5
t-25.5 9.5h-37v48h240l52 -514z" />
    <glyph glyph-name="cid57" unicode="X" horiz-adv-x="713" 
d="M304 232l-123 -165q-6 -8 -6 -15.5t13 -7.5h36v-44h-213v44h35q13 0 23.5 1.5t20.5 6.5t21 15.5t26 28.5l143 192l-147 343q-7 14 -13.5 19.5t-28.5 5.5h-49v44h275l98 -230l124 167q8 10 3.5 16t-17.5 5h-28v42h204v-44h-44q-23 0 -38 -12t-32 -38l-147 -195l141 -339
q6 -16 18.5 -21.5t25.5 -5.5h55v-45h-200q-14 0 -29 3.5t-30.5 13.5t-30 27.5t-26.5 46.5z" />
    <glyph glyph-name="cid58" unicode="Y" horiz-adv-x="728" 
d="M253 304l-156 326q-7 14 -14.5 19.5t-29.5 4.5h-39v46h271l135 -304l152 238q8 11 3.5 16.5t-18.5 4.5h-38v45h199v-46h-35h-14.5t-12.5 -3t-13 -10.5t-16 -22.5l-161 -255l-27 -294q-2 -21 -15.5 -36t-33.5 -25t-44.5 -15t-47.5 -5q-70 0 -69 51z" />
    <glyph glyph-name="cid59" unicode="Z" horiz-adv-x="637" 
d="M170 653l-84 -97l-18 4l-23 123v17h575l-399 -653h266l89 114l15 -4l19 -139v-18h-537q-20 0 -33 9.5t-18.5 24t-3.5 32.5t12 35l314 515q9 13 5.5 25t-17.5 12h-162z" />
    <glyph glyph-name="cid60" unicode="[" horiz-adv-x="400" 
d="M229 -77q-1 -11 4.5 -14.5t15.5 -3.5h86v-46h-202q-37 0 -58.5 17.5t-18.5 54.5l50 782q2 33 20.5 52t49.5 19h209v-46h-85q-17 0 -19 -20z" />
    <glyph glyph-name="cid61" unicode="\" horiz-adv-x="997" 
d="M153 476l-21 148q-3 16 -7 23t-24 7h-38v46h237l28 -224h143l13 31l-12 117q-1 9 -5 18.5t-24 9.5h-35v48h226l18 -224h125l49 137q8 18 4 29.5t-21 11.5h-31v46h195v-46h-38q-20 0 -31.5 -9t-22.5 -35l-49 -134h142v-63h-163l-150 -417h-73q-10 0 -21 7t-20.5 20.5
t-16.5 32.5t-8 44l-27 302l-153 -406h-69q-23 0 -40.5 27.5t-25.5 76.5l-44 313h-141v63h131zM363 190l85 223h-112zM755 413h-98l19 -227z" />
    <glyph glyph-name="cid62" unicode="]" horiz-adv-x="400" 
d="M173 720q1 11 -4.5 14.5t-15.5 3.5h-86v46h202q37 0 58.5 -17.5t18.5 -54.5l-50 -782q-2 -33 -20.5 -52t-49.5 -19h-209v46h85q17 0 19 20z" />
    <glyph glyph-name="cid63" unicode="^" horiz-adv-x="446" 
d="M417 603l-79 -56l-101 148l-133 -149l-80 60l163 191h117z" />
    <glyph glyph-name="cid64" unicode="_" horiz-adv-x="570" 
d="M543 0v-102h-515v102h515z" />
    <glyph glyph-name="cid65" unicode="`" horiz-adv-x="300" 
d="M288 541q1 -14 -8 -24.5t-25 -10.5q-17 0 -33.5 10t-27.5 21l-146 151l-21 89q-2 11 4 17.5t17 6.5h150z" />
    <glyph glyph-name="cid66" unicode="a" horiz-adv-x="743" 
d="M624 144q-4 -43 21.5 -54.5t79.5 23.5l11 -16q-24 -30 -50.5 -50.5t-53.5 -34t-52.5 -19.5t-47.5 -6q-42 0 -68.5 15t-37.5 50q-17 -32 -49 -48.5t-71 -16.5q-55 0 -103 14t-83.5 44.5t-56 78t-20.5 113.5q0 85 29.5 143.5t74.5 95t99 52.5t102 16q47 0 81 -17t52 -51
l149 68h19zM442 456q1 12 -5.5 22t-17.5 17t-24 10.5t-26 3.5q-27 0 -50 -16t-40 -51t-27 -91t-10 -135q0 -43 3.5 -78.5t13 -60.5t25.5 -38.5t40 -13.5q9 0 21.5 2.5t26 9.5t26.5 20.5t22 34.5v13.5t1 14.5z" />
    <glyph glyph-name="cid67" unicode="b" horiz-adv-x="721" 
d="M119 667q2 42 -16.5 53.5t-46.5 11.5l2 32q43 1 81 8t70.5 15t58 14.5t43.5 6.5q13 0 17.5 -6t3.5 -14l-21 -306q22 29 58 47t87 18q45 0 84.5 -15t69 -43t46.5 -69t19 -94q2 -66 -15.5 -125t-54.5 -104t-92 -73t-128 -32q-27 -2 -56 2.5t-49 12.5l-205 -12zM400 492
q-26 0 -54 -18t-39 -56l-24 -370q17 -8 35.5 -12.5t32.5 -4.5q27 1 50 19t40.5 55.5t28.5 96t13 139.5q2 27 -3 54t-15.5 48.5t-27 35t-37.5 13.5z" />
    <glyph glyph-name="cid68" unicode="c" horiz-adv-x="560" 
d="M270 -13q-43 0 -84 16.5t-73 48.5t-51.5 78.5t-19.5 106.5q0 76 28 133.5t76 96t111.5 58t134.5 19.5q18 0 40.5 -3t44.5 -9t42 -15.5t32 -22.5l-64 -154h-10l-57 166q-3 3 -13 3h-18q-27 0 -52.5 -18.5t-46 -51.5t-33 -79.5t-12.5 -103.5q0 -35 7.5 -65.5t22.5 -52.5
t36.5 -34.5t49.5 -12.5q35 0 75 12t75 35l13 -14q-33 -68 -99.5 -102.5t-154.5 -34.5z" />
    <glyph glyph-name="cid69" unicode="d" horiz-adv-x="743" 
d="M451 667q1 21 -3 34t-12.5 19.5t-20.5 9t-26 2.5l2 32q43 1 81 8t70.5 15t58 14.5t42.5 6.5q14 0 18.5 -5.5t3.5 -14.5l-43 -634q-3 -44 23 -54.5t79 24.5l11 -16q-24 -29 -51 -51t-55 -36.5t-54 -22t-48 -7.5q-45 0 -72 17.5t-36 59.5q-20 -40 -60 -58t-90 -18
q-51 0 -93 15t-72.5 44t-47 72t-16.5 99q0 75 25 135t69 102.5t104.5 65t132.5 22.5q20 0 39 -4.5t32 -12.5zM397 509q-41 0 -70 -26.5t-48 -72.5t-28 -106.5t-9 -127.5q-1 -71 19 -101t53 -30q14 0 31 5t32.5 16t26.5 30t13 48l23 353q-8 5 -21.5 8.5t-21.5 3.5z" />
    <glyph glyph-name="cid70" unicode="e" horiz-adv-x="640" 
d="M302 -13q-53 -1 -100.5 16.5t-83 51t-56.5 81.5t-21 108q0 75 27 131.5t72 94t103 56t121 18.5q58 0 102 -12t74 -31.5t45 -44.5t15 -51q0 -46 -27 -77t-75 -51.5t-114.5 -32t-145.5 -18.5q4 -30 18.5 -54.5t36.5 -42.5t49.5 -28t59.5 -10q49 0 87 16.5t71 45.5l15 -13
q-15 -36 -41 -64t-61 -48t-78.5 -30.5t-92.5 -10.5zM428 442q0 31 -15.5 50t-48.5 19q-26 0 -49 -18.5t-40.5 -52t-28 -80t-10.5 -101.5q47 7 83 25.5t60 44t36.5 55t12.5 58.5z" />
    <glyph glyph-name="cid71" unicode="f" horiz-adv-x="536" 
d="M28 407h113l10 156q3 49 22 88.5t49.5 68t70 44t83.5 17.5q140 4 187 -93q6 -12 6 -33.5t-5.5 -44t-15 -42.5t-23.5 -29l-93 76l-1 13l80 36q0 19 -11 33.5t-27.5 22t-35.5 9t-33 -4.5t-22.5 -17t-13.5 -29t-7.5 -43.5t-4.5 -59.5l-12 -168h143v-48h-146l-28 -430
q-5 -99 -65 -157.5t-162 -64.5q-44 -2 -79.5 10.5t-64.5 55.5l30 28q6 -10 16.5 -19t23.5 -15.5t26.5 -9t25.5 1.5q13 4 21 13t12.5 26t6.5 43.5t5 65.5l29 452h-110v48z" />
    <glyph glyph-name="cid72" unicode="g" horiz-adv-x="741" 
d="M217 -46q-30 -11 -45.5 -38t-13.5 -65q2 -26 19 -42.5t40.5 -25.5t49.5 -12t47 -3q19 0 42 2t44.5 8t40.5 15.5t31 24.5q10 12 15.5 31.5t4.5 40.5t-10 41t-30 34q-22 13 -50 18t-58.5 6t-62.5 0.5t-62 2.5q-51 5 -82 28.5t-36 61.5q-6 31 14.5 64t52.5 55
q-32 14 -50.5 39.5t-20.5 58.5q-3 60 19.5 105t63.5 76t98 48t122 20q78 3 130 -10q46 15 77.5 40.5t49.5 51.5q15 -5 32 -19.5t30.5 -32.5t22 -37.5t7.5 -32.5l-137 -8q45 -36 48 -91q4 -67 -20 -109.5t-66.5 -67.5t-99.5 -36t-118 -14q-38 -2 -70.5 -1t-58.5 5l-14 -11
q-8 -6 -11.5 -23t7.5 -27q7 -7 15 -11.5t20.5 -7.5t32 -4t50.5 0q75 4 135 1.5t105 -16.5t74 -40.5t42 -69.5q8 -26 9 -54.5t-7 -56t-25.5 -53t-46.5 -44.5q-53 -38 -127.5 -51t-168.5 -13q-146 0 -220.5 37.5t-77.5 98.5q-2 36 11.5 61.5t39.5 42t63.5 24t83.5 5.5v-20z
M400 508q-25 -1 -47.5 -13t-39 -36t-25.5 -62t-6 -90q1 -31 9 -48.5t18.5 -25.5t22.5 -9.5t23 -1.5q26 1 48.5 12t39 34t25 59.5t5.5 89.5t-22.5 72.5t-50.5 18.5z" />
    <glyph glyph-name="cid73" unicode="h" horiz-adv-x="764" 
d="M119 667q1 21 -3 34t-13 19.5t-21 9t-26 2.5l2 32q43 1 81 8.5t70.5 15t58 14t43.5 6.5q14 0 18.5 -5.5t3.5 -14.5l-21 -320q71 33 137.5 57.5t113.5 24.5q51 0 78 -29t24 -78l-21 -293q-3 -44 22 -55.5t79 23.5l10 -16q-24 -29 -51.5 -50t-54.5 -34.5t-53 -19.5t-48 -6
q-57 0 -86.5 31.5t-24.5 102.5l23 302q0 17 -9 26.5t-23 9.5q-8 0 -22.5 -3t-31.5 -7.5t-34 -10t-31 -11.5l-28 -431l-206 -11z" />
    <glyph glyph-name="cid74" unicode="i" horiz-adv-x="427" 
d="M118 472q-22 -4 -45 -7t-48 -5v36q72 9 147.5 32t141.5 57h18l-30 -445q-3 -44 26 -51t82 28l12 -15q-24 -30 -52 -51.5t-56 -35.5t-55 -21t-49 -7q-56 0 -88 30t-27 100zM146 762q0 51 31.5 77.5t79.5 26.5t80 -26.5t32 -77.5q0 -49 -32 -77.5t-80 -28.5t-79.5 28.5
t-31.5 77.5z" />
    <glyph glyph-name="cid75" unicode="j" horiz-adv-x="449" 
d="M329 -55q-3 -44 -14.5 -87t-40 -76.5t-77 -54.5t-125.5 -21q-69 0 -114 35.5t-56 111.5l43 11q6 -27 15.5 -45t21.5 -28.5t25.5 -14.5t26.5 -4q38 0 60.5 25t25.5 79l37 595q-22 -5 -45.5 -8t-46.5 -5v37q72 8 146.5 31t141.5 58h17zM174 760q0 51 31.5 77.5t79.5 26.5
t80 -26.5t32 -77.5q0 -49 -32 -77.5t-80 -28.5t-79.5 28.5t-31.5 77.5z" />
    <glyph glyph-name="cid76" unicode="k" horiz-adv-x="736" 
d="M119 667q1 21 -3.5 34t-13.5 19.5t-21 9t-25 2.5l1 32q43 1 81.5 8t71 15t58 14.5t43.5 6.5q14 0 18.5 -5.5t3.5 -14.5l-29 -428q25 45 61 80.5t76.5 60.5t81 38.5t74.5 13.5q20 0 38 -8t20 -21l-72 -143h-14l-41 107q-10 -1 -32 -11.5t-48.5 -29t-54 -44.5t-49.5 -58
q70 1 122.5 -8t87 -31t49.5 -59t11 -92q-2 -22 4.5 -37t20.5 -21t36 -1t51 23l14 -17q-24 -29 -54.5 -50.5t-62 -35.5t-61 -20.5t-51.5 -6.5q-109 0 -109 170q0 29 -2 57.5t-8.5 52t-19.5 40.5t-34 24q-13 -20 -26.5 -44t-15.5 -47l-15 -240l-206 -11z" />
    <glyph glyph-name="cid77" unicode="l" horiz-adv-x="408" 
d="M283 146q-3 -47 26.5 -55t82.5 28l11 -15q-24 -29 -52 -51t-56 -36t-54.5 -21t-48.5 -7q-63 0 -91 35t-23 99l37 544q1 21 -3.5 34t-13.5 19.5t-21 9t-25 2.5l2 32q43 1 81.5 8t71 15.5t58 15t42.5 6.5q14 0 18.5 -8t3.5 -17z" />
    <glyph glyph-name="cid78" unicode="m" horiz-adv-x="1049" 
d="M112 406q1 21 -3.5 33.5t-13 19t-20.5 9t-25 2.5l1 33q43 1 80 8t68 15t55 14t42 6q23 0 21 -20l-4 -63q70 33 124.5 57t100.5 24q41 0 62.5 -22t26.5 -60q72 34 127 58t101 24q47 0 71 -28t20 -76l-19 -296q-3 -41 24 -51t80 25l11 -15q-24 -30 -51.5 -51.5t-55.5 -36
t-54.5 -21.5t-48.5 -7q-57 0 -83.5 31t-21.5 102l22 313q2 26 -22 26q-17 0 -45 -10t-54 -22l-28 -426l-199 -10l31 442q2 26 -22 26q-8 0 -19.5 -3t-25 -7.5t-28 -10t-27.5 -11.5l-27 -426l-198 -10z" />
    <glyph glyph-name="cid79" unicode="n" horiz-adv-x="765" 
d="M110 406q1 21 -3 33.5t-13 19t-21 9t-25 2.5l2 33q42 1 80 8t70 15t57.5 14t42.5 6q14 0 18.5 -5.5t4.5 -14.5l-5 -66q75 35 141 59.5t113 24.5q48 0 71.5 -28t19.5 -76l-20 -296q-2 -20 4 -33t19 -17.5t33 1.5t47 23l11 -15q-24 -30 -52.5 -51.5t-57.5 -36t-56.5 -21.5
t-48.5 -7q-57 0 -83.5 31t-21.5 102l21 312q2 26 -20 26q-9 0 -24 -3t-32.5 -8.5t-35 -12t-30.5 -12.5l-28 -421l-205 -10z" />
    <glyph glyph-name="cid80" unicode="o" horiz-adv-x="690" 
d="M45 237q0 85 31.5 143.5t79.5 95t104.5 52.5t107.5 16q56 0 106 -14.5t88 -44.5t60 -77.5t22 -113.5q0 -85 -31.5 -143.5t-79.5 -95t-104.5 -52.5t-107.5 -16q-56 0 -106 14.5t-88 44.5t-60 77.5t-22 113.5zM248 208q0 -88 16 -139t58 -51q18 0 38.5 16.5t38.5 52.5
t30 94t12 142q0 88 -16 138.5t-58 50.5q-18 0 -38.5 -16t-38.5 -52t-30 -94t-12 -142z" />
    <glyph glyph-name="cid81" unicode="p" horiz-adv-x="724" 
d="M466 544q45 0 84.5 -15t69 -43t46.5 -69t19 -94q2 -66 -15.5 -125t-54.5 -104t-92 -73t-128 -32q-29 -2 -57 3.5t-51 16.5l-14 -215q-2 -20 -14.5 -35.5t-31.5 -26t-43 -15.5t-48 -5q-33 0 -51.5 13.5t-17.5 39.5l42 617v14t-3 14.5t-9.5 11t-18.5 3.5q-17 -4 -31 -5
t-30 -3v38q72 9 147 31.5t141 57.5h19l-5 -67q22 30 58.5 48.5t88.5 18.5zM409 489q-26 0 -54.5 -18.5t-39.5 -57.5l-25 -368q17 -8 37 -12.5t35 -4.5q27 1 50 19t40.5 55.5t28 96t12.5 139.5q2 27 -3 54t-15.5 48.5t-27 35t-38.5 13.5z" />
    <glyph glyph-name="cid82" unicode="q" horiz-adv-x="724" 
d="M605 -130q-4 -44 21.5 -55.5t79.5 23.5l12 -16q-24 -29 -51 -50t-54 -34.5t-52.5 -19.5t-47.5 -6q-57 0 -86.5 31t-24.5 103l13 213q-23 -32 -62.5 -51.5t-93.5 -19.5q-45 0 -85 15t-69.5 43t-47.5 69t-19 94q-2 66 15 125.5t53 105t91 73.5t128 32q18 1 38 -1.5t39.5 -8
t37 -15.5t30.5 -24l156 48h20zM316 43q13 0 28.5 5t30.5 15t26.5 25t17.5 36l21 358q-30 21 -76 22q-27 -1 -50 -19t-40.5 -55.5t-28.5 -96t-13 -139.5q-2 -27 3 -54t15.5 -48.5t27 -35t38.5 -13.5z" />
    <glyph glyph-name="cid83" unicode="r" horiz-adv-x="595" 
d="M108 406q1 21 -3 33.5t-13 19t-21 9t-25 2.5l2 33q43 1 81 8t70 15t57 14t42 6q14 0 18.5 -5.5t4.5 -14.5l-7 -102q31 15 59.5 34.5t53 39t44 39t32.5 34.5q17 -5 35 -23.5t32.5 -42.5t24 -49.5t9.5 -44.5l-294 -45l-24 -365l-205 -10z" />
    <glyph glyph-name="cid84" unicode="s" horiz-adv-x="568" 
d="M56 359q-2 35 11.5 67t46 57.5t86 42.5t132.5 20q33 1 64.5 -2.5t58.5 -10t47.5 -14.5t31.5 -16l-59 -111h-12l-39 106q-8 6 -28 9t-37 3q-32 0 -54 -7.5t-35.5 -19.5t-19 -26.5t-4.5 -27.5q2 -25 15.5 -40t35.5 -26q21 -11 47.5 -21.5t53.5 -22t50.5 -23t38.5 -24.5
q31 -29 40.5 -60.5t9.5 -62.5q1 -153 -237 -166q-50 -3 -91.5 0t-78 13.5t-70 28.5t-66.5 45l78 92l10 -4l25 -101q11 -10 35 -17.5t49 -12.5q38 -7 64 -1.5t42 17t23.5 27t8.5 28.5q4 20 -4 39t-26 32q-17 11 -37.5 20.5t-40.5 18.5t-39 17.5t-34 16.5q-42 23 -66 53.5
t-26 63.5z" />
    <glyph glyph-name="cid85" unicode="t" horiz-adv-x="455" 
d="M294 141q-3 -43 26.5 -50.5t82.5 28.5l11 -15q-24 -30 -51.5 -51.5t-55.5 -35.5t-54.5 -21t-48.5 -7q-56 0 -88.5 30t-27.5 100l28 381h-90v40q46 13 91 37t83.5 56t67 70t42.5 79h29l-16 -237h117v-45h-120z" />
    <glyph glyph-name="cid86" unicode="u" horiz-adv-x="786" 
d="M481 406q1 21 -3.5 33.5t-13 19t-20.5 9t-25 2.5l1 33q43 1 81 8t70 15t57 14t42 6q14 0 20 -8t5 -17l-31 -373q-3 -43 24.5 -53.5t80.5 24.5l13 -16q-24 -30 -52 -51t-56 -34.5t-55 -20t-49 -6.5q-39 0 -65.5 15t-38.5 47q-23 -32 -57.5 -48t-77.5 -18q-122 -7 -184 41
t-54 144l20 257q1 11 -7 17t-16 6q-11 0 -22 -3.5t-19 -9.5l-16 24q35 35 87 58.5t103 23.5q45 0 72.5 -20t25.5 -62l-25 -347q-2 -23 1 -38.5t10 -25t16.5 -14t20.5 -4.5q10 0 26.5 2.5t33.5 10.5t31.5 24t22.5 43z" />
    <glyph glyph-name="cid87" unicode="v" horiz-adv-x="703" 
d="M514 427q-2 22 -11 33t-29 9h-36l-1 41h37q36 3 61.5 11t45 16.5t34 15.5t28.5 7q13 1 21 -7.5t7 -17.5q0 -71 -12 -138t-33 -126.5t-50 -110t-62 -87.5q-41 -45 -92 -64.5t-108 -22.5q-54 -2 -95 13.5t-68 44.5t-39.5 69.5t-9.5 88.5l14 207q1 19 -2.5 33t-12.5 20
t-22.5 2.5t-32.5 -19.5l-20 26q13 18 33.5 31.5t43.5 23t47.5 14.5t45.5 5q27 0 51 -9t41 -25.5t26 -40t8 -53.5l-20 -301q-3 -45 11.5 -62t34.5 -19q29 -3 62 17t53 58q18 33 28.5 73.5t16 83.5t6.5 84t0 76z" />
    <glyph glyph-name="cid88" unicode="w" horiz-adv-x="971" 
d="M619 -15q-56 -2 -92.5 15t-58.5 49q-36 -30 -76.5 -45t-86.5 -18q-54 -2 -94 13t-66 43.5t-37.5 68t-7.5 87.5l15 211q1 19 -2 33t-11.5 20t-21.5 2t-32 -20l-17 27q13 18 32.5 31.5t42 23t46 14.5t44.5 5q55 0 88.5 -34t30.5 -94l-22 -302q-3 -45 12 -61.5t34 -18.5
q26 -3 56.5 14t50.5 49q-8 25 -9.5 53t1.5 59l17 201q1 16 -0.5 28.5t-7 19t-15.5 5.5t-26 -11l-12 23q27 36 59 51.5t64 17.5q63 3 91 -32.5t26 -95.5l-23 -288q-6 -51 2.5 -74t22.5 -25q9 -2 21 2.5t25.5 14.5t27 24.5t25.5 33.5q15 25 27.5 64.5t21.5 83t13.5 87
t2.5 78.5q-3 48 -40 48h-31v41h29q33 0 57.5 8t43 17.5t32 17.5t24.5 9q14 1 20 -7t5 -17q0 -161 -38 -271.5t-112 -192.5q-23 -25 -47 -41.5t-46.5 -26t-42.5 -13.5t-35 -5z" />
    <glyph glyph-name="cid89" unicode="x" horiz-adv-x="687" 
d="M127 545q56 4 91.5 -8.5t58.5 -30.5q22 -21 35.5 -57t15.5 -72l16 48q13 34 32.5 57.5t41.5 38t46.5 22.5t48.5 11q44 6 91.5 -9t78.5 -48l-9 -17q-31 15 -54.5 13.5t-41.5 -15t-31 -36.5t-23 -53q-14 -43 -31 -84t-36 -81q-2 -13 -3.5 -30t0 -35t6 -35.5t13.5 -30.5
q14 -23 33 -32.5t39.5 -9.5t40 8t34.5 22l19 -49q-6 -8 -29 -19t-47 -15q-11 -2 -29 -1.5t-37.5 5.5t-38 15.5t-31.5 29.5q-14 17 -19.5 40t-8.5 35q-15 -23 -30 -45.5t-32 -39.5q-19 -19 -43.5 -29.5t-47.5 -15.5t-43 -6.5t-30 -2.5q-9 0 -31 1t-47.5 7t-50.5 17.5
t-39 31.5l12 20q22 -14 44.5 -12t42.5 11.5t36 23t26 23.5q13 14 25.5 28.5t25.5 32.5t26.5 42t29.5 56q3 16 6 39t2.5 47t-6 47t-17.5 40q-14 20 -35.5 31t-41.5 15l-42 -78h-13l-71 107q0 4 8.5 9.5t19.5 10t23.5 8t20.5 4.5z" />
    <glyph glyph-name="cid90" unicode="y" horiz-adv-x="769" 
d="M291 118q-2 -23 1.5 -38.5t11 -25t17.5 -14t21 -4.5q9 0 23 1.5t29.5 6t30 14t25.5 26.5l24 328q2 17 -4.5 32t-24.5 13h-28v43h27q40 4 73.5 13t61 18t49 16.5t38.5 8.5q13 1 17.5 -6t3.5 -16l-41 -592q-4 -53 -24.5 -96.5t-60 -75t-98.5 -48.5t-139 -17q-51 0 -93.5 11
t-73.5 34.5t-47.5 61.5t-16.5 93h53q-2 -72 37.5 -105t111.5 -34q60 -1 97 36.5t43 118.5l10 107q-22 -18 -53 -28t-63 -12q-121 -6 -183.5 42t-51.5 144l18 255q1 11 -6.5 17t-15.5 6q-11 0 -22.5 -3.5t-19.5 -9.5l-16 24q35 35 84.5 58.5t100.5 23.5q45 0 72.5 -20
t25.5 -62z" />
    <glyph glyph-name="cid91" unicode="z" horiz-adv-x="607" 
d="M203 559q46 2 79.5 -7t72.5 -29q17 -9 38 -13t43 -4t44 4.5t41 13.5q14 14 28 15.5t20 -2.5q11 -8 11.5 -18t-3.5 -15l-330 -330q22 10 47 9q18 0 35 -4t33.5 -8t34 -7t37.5 -1t39 8t33 16t22.5 24t8.5 32h23q14 -54 11 -99.5t-23.5 -79t-57.5 -53t-91 -21.5
q-35 -1 -76 10t-83 34q-28 16 -62.5 16.5t-64.5 -16.5l-40 -42q-8 -11 -24 -12.5t-22 4.5q-7 6 -7.5 17.5t8.5 19.5l375 386q-25 -12 -46 -20t-40 -10q-34 -4 -75 0.5t-72 17.5q-35 14 -59 0.5t-25 -55.5h-26q-9 39 -4 77t23.5 69t49.5 51t74 22z" />
    <glyph glyph-name="cid92" unicode="{" horiz-adv-x="450" 
d="M222 329q65 -3 92.5 -47.5t21.5 -112.5q-2 -18 -6 -39t-9 -43t-9.5 -43t-5.5 -39q-3 -52 16 -82t64 -29v-38q-78 -4 -129.5 2.5t-83 23t-45.5 42t-18 59.5q-2 21 6 48.5t19 55.5t22 53t15 41q2 10 4.5 24.5t3 29.5t-1.5 29.5t-8 23.5q-9 14 -37.5 18t-70.5 4v39
q42 0 69 4t39 15q13 11 15.5 32t2.5 41q0 15 -5.5 39t-11.5 50t-11.5 50.5t-5.5 41.5q0 95 71 134.5t214 34.5v-38q-19 0 -35 -6.5t-28 -22.5t-19.5 -43t-9.5 -68v-27.5v-43.5v-43.5t-1 -27.5q-4 -27 -11.5 -50.5t-21.5 -41t-36 -29t-55 -14.5v-7z" />
    <glyph glyph-name="cid93" unicode="|" horiz-adv-x="350" 
d="M131 787h87v-932h-87v932z" />
    <glyph glyph-name="cid94" unicode="}" horiz-adv-x="450" 
d="M227 314q-65 3 -92.5 47.5t-21.5 112.5q1 18 5.5 39t9.5 43t9.5 43t5.5 39q3 52 -16 82t-64 29v38q78 4 129.5 -2.5t83 -23t45.5 -42t18 -59.5q2 -21 -6 -49t-19 -55.5t-22 -52.5t-15 -41q-2 -10 -4.5 -24.5t-3 -29.5t1.5 -29.5t8 -23.5q9 -14 37.5 -18t70.5 -4v-39
q-42 0 -69 -4t-39 -15q-13 -11 -15.5 -32t-2.5 -41q0 -15 5.5 -39t11.5 -50t11.5 -50.5t5.5 -41.5q0 -95 -71 -134.5t-214 -34.5v38q19 0 35 6.5t28 22.5t19.5 43t9.5 68v27.5v43.5v43.5t1 27.5q4 27 11.5 50.5t21.5 41t36 29t55 14.5v7z" />
    <glyph glyph-name="cid95" unicode="~" horiz-adv-x="678" 
d="M215 337q-52 17 -82.5 -1.5t-55.5 -63.5l-39 21q15 52 43 89t63 58t73.5 26t74.5 -5q1 -1 14 -7t31 -15.5t39 -20t39 -20t31 -16t15 -6.5q41 -10 80 6t59 55l37 -21q-15 -53 -42.5 -89t-62 -57t-73 -26t-74.5 5q-3 1 -15.5 7.5t-31 16.5t-39 21t-38.5 20.5t-31 16
t-15 6.5z" />
    <glyph glyph-name="cid208" unicode="&#xa1;" horiz-adv-x="460" 
d="M322 -65h-226q-11 0 -17 6.5t-4 17.5l24 165l116 325q2 6 7.5 16.5t15 20t25.5 17t39 7.5q29 0 39 -12t9 -26zM189 684q0 51 30.5 78.5t78.5 27.5t80 -27.5t32 -78.5q0 -49 -32 -79t-80 -30t-78.5 30t-30.5 79z" />
    <glyph glyph-name="cid143" unicode="&#xa2;" horiz-adv-x="890" 
d="M362 2q-31 12 -57.5 33t-46.5 50.5t-31.5 67.5t-11.5 84q0 76 28 133.5t76 96t111.5 58t134.5 19.5h6.5t7.5 -1l56 139l58 -20l-52 -128q25 -6 47 -16t36 -24l-64 -154h-10l-40 117l-140 -344q28 -22 64 -22q35 0 75 12t75 35l13 -14q-33 -68 -99.5 -102.5t-154.5 -34.5
h-12t-12 1l-43 -107l-55 20zM418 256q0 -47 13 -82l134 335h-3q-27 0 -52.5 -18.5t-46 -51.5t-33 -79.5t-12.5 -103.5z" />
    <glyph glyph-name="cid143" unicode="&#xffe0;" horiz-adv-x="890" 
d="M362 2q-31 12 -57.5 33t-46.5 50.5t-31.5 67.5t-11.5 84q0 76 28 133.5t76 96t111.5 58t134.5 19.5h6.5t7.5 -1l56 139l58 -20l-52 -128q25 -6 47 -16t36 -24l-64 -154h-10l-40 117l-140 -344q28 -22 64 -22q35 0 75 12t75 35l13 -14q-33 -68 -99.5 -102.5t-154.5 -34.5
h-12t-12 1l-43 -107l-55 20zM418 256q0 -47 13 -82l134 335h-3q-27 0 -52.5 -18.5t-46 -51.5t-33 -79.5t-12.5 -103.5z" />
    <glyph glyph-name="cid144" unicode="&#xa3;" horiz-adv-x="890" 
d="M246 420q-5 22 -7.5 43t-0.5 41q2 43 18 83t50.5 70.5t90 48t135.5 15.5q59 -2 100 -16t79 -40q32 -22 55.5 -54.5t31.5 -57.5l-162 -67l-14 7l31 152q-10 14 -36.5 27t-61.5 12q-28 -1 -48 -10.5t-33.5 -25t-20 -35t-6.5 -39.5q0 -30 12 -71t21 -83h155l-8 -53h-139
q1 -9 1.5 -17.5t-0.5 -16.5q-3 -32 -11.5 -53.5t-21.5 -35.5t-29.5 -22.5t-35.5 -14.5q28 -5 52.5 -12.5t50 -16t55 -16t68.5 -11.5q31 -3 62 -2t57.5 8.5t47 23t30.5 41.5h27q-7 -83 -31 -135t-63.5 -79.5t-95 -34.5t-124.5 1q-37 5 -81 22t-103 53q-39 -34 -79.5 -52.5
t-85.5 -18.5q-69 0 -102 30.5t-33 81.5q0 34 22 66.5t60 49.5q33 15 81 21t105 -6q-14 37 -27.5 73.5t-24.5 72.5h-154l8 53h133zM305 82q-22 14 -40.5 27t-36.5 23t-36.5 15.5t-40.5 4.5q-25 -2 -42.5 -18.5t-17.5 -45.5q0 -35 21.5 -53.5t61.5 -18.5q17 0 35.5 5t36.5 14
t33.5 21t25.5 26z" />
    <glyph glyph-name="cid144" unicode="&#xffe1;" horiz-adv-x="890" 
d="M246 420q-5 22 -7.5 43t-0.5 41q2 43 18 83t50.5 70.5t90 48t135.5 15.5q59 -2 100 -16t79 -40q32 -22 55.5 -54.5t31.5 -57.5l-162 -67l-14 7l31 152q-10 14 -36.5 27t-61.5 12q-28 -1 -48 -10.5t-33.5 -25t-20 -35t-6.5 -39.5q0 -30 12 -71t21 -83h155l-8 -53h-139
q1 -9 1.5 -17.5t-0.5 -16.5q-3 -32 -11.5 -53.5t-21.5 -35.5t-29.5 -22.5t-35.5 -14.5q28 -5 52.5 -12.5t50 -16t55 -16t68.5 -11.5q31 -3 62 -2t57.5 8.5t47 23t30.5 41.5h27q-7 -83 -31 -135t-63.5 -79.5t-95 -34.5t-124.5 1q-37 5 -81 22t-103 53q-39 -34 -79.5 -52.5
t-85.5 -18.5q-69 0 -102 30.5t-33 81.5q0 34 22 66.5t60 49.5q33 15 81 21t105 -6q-14 37 -27.5 73.5t-24.5 72.5h-154l8 53h133zM305 82q-22 14 -40.5 27t-36.5 23t-36.5 15.5t-40.5 4.5q-25 -2 -42.5 -18.5t-17.5 -45.5q0 -35 21.5 -53.5t61.5 -18.5q17 0 35.5 5t36.5 14
t33.5 21t25.5 26z" />
    <glyph glyph-name="cid214" unicode="&#xa4;" horiz-adv-x="800" 
d="M644 330q0 -77 -48 -145l44 -50l-50 -49l-45 48q-32 -25 -68.5 -35t-80.5 -10q-38 0 -73 10t-67 33l-48 -46l-51 48l48 49q-11 9 -20.5 25t-16.5 35.5t-11.5 41t-4.5 41.5q0 40 14.5 76t37.5 70l-47 43l51 55l48 -48q31 24 68 34.5t79 10.5q81 0 141 -45l49 48l50 -54
l-48 -44q23 -35 36 -67.5t13 -74.5zM540 326q0 28 -8.5 54t-25.5 46.5t-43.5 33t-62.5 12.5t-63 -11.5t-45 -31.5t-27 -46.5t-9 -56.5q0 -28 9 -53t27 -44.5t44.5 -31t61.5 -11.5q34 0 60.5 11t44.5 30t27.5 44.5t9.5 54.5z" />
    <glyph glyph-name="cid145" unicode="&#xa5;" horiz-adv-x="890" 
d="M308 396l-112 234q-7 14 -14.5 19.5t-29.5 4.5h-39v46h256l135 -304l152 238q8 11 3.5 16.5t-18.5 4.5h-38v45h206v-46h-38h-15t-14 -3t-14.5 -10.5t-16.5 -22.5l-144 -222h228v-56h-252l-6 -72h258v-56h-263l-13 -143q-4 -42 -39 -61.5t-82 -19.5q-70 0 -69 51l15 173
h-240l-1 56h247l3 36l-16 36h-233l-1 56h205z" />
    <glyph glyph-name="cid145" unicode="&#xffe5;" horiz-adv-x="890" 
d="M308 396l-112 234q-7 14 -14.5 19.5t-29.5 4.5h-39v46h256l135 -304l152 238q8 11 3.5 16.5t-18.5 4.5h-38v45h206v-46h-38h-15t-14 -3t-14.5 -10.5t-16.5 -22.5l-144 -222h228v-56h-252l-6 -72h258v-56h-263l-13 -143q-4 -42 -39 -61.5t-82 -19.5q-70 0 -69 51l15 173
h-240l-1 56h247l3 36l-16 36h-233l-1 56h205z" />
    <glyph glyph-name="cid155" unicode="&#xa7;" horiz-adv-x="712" 
d="M200 -184q-36 16 -64.5 40.5t-37.5 43.5l119 81l14 -7l-5 -123q15 -12 43.5 -17.5t50.5 -5.5q21 0 41.5 4.5t37 13.5t26.5 22.5t10 32.5q0 32 -18 56q-20 26 -74 63.5t-129 88.5q-36 28 -59.5 62t-23.5 77q0 60 43.5 100.5t115.5 51.5q-60 42 -91.5 87.5t-30.5 93.5
q0 46 20 78.5t52 52t71.5 28.5t80.5 9q19 0 41.5 -2.5t41.5 -10.5q47 -20 69 -42.5t35 -45.5l-113 -87l-14 7l-1 136q-8 5 -26.5 8t-31.5 3q-42 0 -71 -18.5t-29 -51.5q0 -30 14 -52.5t36 -40.5t48.5 -33t50.5 -31q25 -17 53.5 -34t52 -39t39.5 -51.5t16 -69.5
q0 -30 -12 -55.5t-34 -45t-53 -33t-68 -17.5q31 -24 55 -44t40 -39.5t23.5 -41.5t7.5 -50q-1 -46 -19 -79t-50 -54.5t-76.5 -32t-96.5 -10.5q-32 0 -63.5 6.5t-56.5 17.5zM424 151q25 18 34 42t4.5 49.5t-22.5 50t-48 41.5l-89 58q-23 -20 -31.5 -44.5t-3.5 -50.5
t23.5 -50.5t51.5 -42.5z" />
    <glyph glyph-name="cid107" unicode="&#xa8;" horiz-adv-x="570" 
d="M47 652q0 45 27.5 72.5t70.5 27.5q44 0 72.5 -27.5t28.5 -72.5t-28.5 -74t-72.5 -29q-43 0 -70.5 29t-27.5 74zM327 652q0 45 27.5 72.5t70.5 27.5q44 0 72.5 -27.5t28.5 -72.5t-28.5 -74t-72.5 -29q-43 0 -70.5 29t-27.5 74z" />
    <glyph glyph-name="cid98" unicode="&#xa9;" horiz-adv-x="1030" 
d="M134 329q0 -78 30.5 -148.5t82 -123t121 -83.5t147.5 -31t147 31t120.5 83.5t82 123t30.5 148.5t-30.5 147.5t-82 122t-120.5 83.5t-147 31t-147.5 -31t-121 -83.5t-82 -122t-30.5 -147.5zM514 771q92 0 173 -35t141 -95t94.5 -140.5t34.5 -172.5t-34.5 -172.5
t-94.5 -140.5t-141 -95t-173 -35t-172.5 35t-140.5 95t-94.5 140.5t-34.5 172.5t34.5 172.5t94.5 140.5t140.5 95t172.5 35zM458 36q-44 -1 -84.5 16t-71.5 48t-49 74.5t-18 97.5q0 91 24.5 154.5t66.5 105t98.5 61.5t121.5 24q23 1 53 -1.5t58.5 -7.5t51.5 -13t34 -18
l-57 -127h-12l-40 122q-3 2 -12.5 3.5t-22 3t-25.5 2t-23 0.5q-33 -2 -62.5 -23t-51.5 -58.5t-34 -91t-9 -120.5q4 -71 42.5 -111.5t101.5 -46.5q16 -2 41 0.5t49.5 9t46 16t32.5 21.5l12 -16q-11 -18 -30 -39.5t-50 -40.5t-75.5 -31.5t-105.5 -13.5z" />
    <glyph glyph-name="cid176" unicode="&#xab;" 
d="M629 37l-556 269v55l556 264v-97l-411 -195l411 -196v-100zM926 37l-556 269v55l556 264v-97l-414 -195l414 -196v-100z" />
    <glyph glyph-name="cid176" unicode="&#x226a;" 
d="M629 37l-556 269v55l556 264v-97l-411 -195l411 -196v-100zM926 37l-556 269v55l556 264v-97l-414 -195l414 -196v-100z" />
    <glyph glyph-name="cid194" unicode="&#xac;" 
d="M847 524v-329h-115v239h-679v90h794z" />
    <glyph glyph-name="cid194" unicode="&#xffe2;" 
d="M847 524v-329h-115v239h-679v90h794z" />
    <glyph glyph-name="cid109" unicode="&#xad;" horiz-adv-x="500" 
d="M429 418v-115h-355v115h355z" />
    <glyph glyph-name="cid109" unicode="&#x2013;" horiz-adv-x="500" 
d="M429 418v-115h-355v115h355z" />
    <glyph glyph-name="cid18352" unicode="&#xae;" horiz-adv-x="1030" 
d="M134 329q0 -78 30.5 -148.5t82 -123t121 -83.5t147.5 -31t147 31t120.5 83.5t82 123t30.5 148.5t-30.5 147.5t-82 122t-120.5 83.5t-147 31t-147.5 -31t-121 -83.5t-82 -122t-30.5 -147.5zM514 771q92 0 173 -35t141 -95t94.5 -140.5t34.5 -172.5t-34.5 -172.5
t-94.5 -140.5t-141 -95t-173 -35t-172.5 35t-140.5 95t-94.5 140.5t-34.5 172.5t34.5 172.5t94.5 140.5t140.5 95t172.5 35zM324 540q2 12 -3.5 17.5t-14.5 5.5h-35v34h307q56 0 92.5 -11.5t58.5 -30t31 -41.5t9 -46q2 -68 -43.5 -111.5t-126.5 -51.5l19 -3q27 -6 43 -20
t26.5 -33t17 -41t12.5 -44q8 -27 29 -34t59 21l11 -17q-18 -24 -39.5 -42t-43.5 -29.5t-43 -17t-37 -5.5q-37 0 -65.5 24.5t-39.5 87.5q-3 19 -8 40.5t-11.5 41t-15.5 35t-21 22.5q-7 4 -17 4.5t-19 1.5l-18 -197q-2 -16 -11.5 -27.5t-24.5 -19t-33.5 -11t-36.5 -3.5
q-51 0 -50 41zM493 564q-13 -1 -13 -17l-21 -216h47q14 0 32.5 6t35 21t27.5 42.5t11 71.5q0 16 -4.5 32.5t-14.5 30t-25.5 21.5t-37.5 8h-37z" />
    <glyph glyph-name="cid138" unicode="&#xb0;" horiz-adv-x="400" 
d="M151 653q0 -22 13.5 -36t35.5 -14q23 0 36.5 14t13.5 36t-13.5 35.5t-36.5 13.5q-22 0 -35.5 -13.5t-13.5 -35.5zM61 653q0 29 11 53.5t30 42.5t44.5 28t53.5 10t53.5 -10.5t44.5 -28.5t30 -42.5t11 -52.5q0 -30 -11 -54.5t-30 -42.5t-44.5 -27.5t-53.5 -9.5t-53.5 10.5
t-44.5 28.5t-30 42.5t-11 52.5z" />
    <glyph glyph-name="cid130" unicode="&#xb1;" horiz-adv-x="700" 
d="M407 629v-174h173v-97h-173v-174h-118v174h-169v97h169v174h118zM572 143v-97h-444v97h444z" />
    <glyph glyph-name="cid843" unicode="&#xb2;" horiz-adv-x="450" 
d="M71 663q11 29 28.5 46.5t37.5 26.5t42.5 11t43.5 2q66 0 103 -28t39 -77q0 -31 -13 -53.5t-34 -40t-47.5 -31.5t-53.5 -27q-20 -11 -43 -26.5t-37 -27.5v-5q54 23 95 22t83 -14q22 -7 36 1.5t12 40.5l11 1q10 -37 4.5 -63.5t-23 -43t-43 -24t-55.5 -5.5q-12 1 -38.5 7.5
t-53.5 21.5q-9 6 -19.5 10t-22 5t-23 -2.5t-22.5 -13.5l-12 -11q-5 -5 -15 -5t-13 4q-9 8 1 18l91 92q18 18 37 36.5t34.5 37.5t26 40t13.5 44q4 23 -4 45.5t-33 31.5q-35 12 -62.5 -6t-36.5 -51z" />
    <glyph glyph-name="cid844" unicode="&#xb3;" horiz-adv-x="450" 
d="M85 684q13 24 32 37.5t40 20.5t41.5 8t35.5 1q75 -1 111 -27.5t37 -69.5q0 -31 -12.5 -55t-40.5 -35q30 -11 43.5 -35.5t13.5 -59.5q0 -37 -20 -66.5t-68 -44.5q-44 -14 -84 -13t-77 10q-35 10 -56 30t-26 32l64 58l8 -4l-4 -78q8 -5 20 -8t25 -4.5t25.5 -0.5t21.5 5
q20 8 34.5 31t14.5 60q1 32 -15.5 53t-58.5 23h-57v28h48q35 0 58.5 17.5t24.5 57.5q1 32 -15 46t-36 17q-33 4 -60.5 -11.5t-36.5 -36.5z" />
    <glyph glyph-name="cid199" unicode="&#xb4;" horiz-adv-x="300" 
d="M136 831h136q11 0 17 -6.5t4 -17.5l-20 -87l-109 -113q-11 -11 -25 -21t-31 -10q-20 0 -26.5 12t-5.5 26z" />
    <glyph glyph-name="cid244" unicode="&#xb6;" 
d="M707 748l-144 -940h-83l134 882h-80l-129 -882h-86l74 495q-50 0 -84.5 17t-54.5 47t-24.5 70.5t6.5 88.5q10 45 33.5 85.5t58 71t78 48t94.5 17.5h207z" />
    <glyph glyph-name="cid104" unicode="&#xb7;" horiz-adv-x="300" 
d="M36 332q0 51 30.5 81t78.5 30t80 -30t32 -81q0 -24 -8.5 -45t-23.5 -36.5t-35.5 -24t-44.5 -8.5q-48 0 -78.5 32.5t-30.5 81.5z" />
    <glyph glyph-name="cid104" unicode="&#x30fb;" horiz-adv-x="300" 
d="M36 332q0 51 30.5 81t78.5 30t80 -30t32 -81q0 -24 -8.5 -45t-23.5 -36.5t-35.5 -24t-44.5 -8.5q-48 0 -78.5 32.5t-30.5 81.5z" />
    <glyph glyph-name="cid206" unicode="&#xb8;" horiz-adv-x="500" 
d="M231 90l-15 -56h11q33 0 61.5 -5.5t49.5 -18.5t33 -34t12 -52q0 -39 -17 -71t-66 -44q-33 -8 -68.5 -6t-66 12t-53.5 27.5t-31 40.5l66 50l8 -4l-5 -73q14 -12 33.5 -15.5t38.5 0.5q21 4 37 26.5t15 60.5q-1 40 -19 55.5t-42 15.5h-34q-6 0 -11.5 5t-3.5 16l16 70h51z
" />
    <glyph glyph-name="cid842" unicode="&#xb9;" horiz-adv-x="450" 
d="M282 420q-4 -36 -22.5 -50.5t-38.5 -14.5h-67l30 314q1 13 -2 20t-15 7h-31v26h20q22 1 44.5 6t42 11t34.5 11t24 5q14 0 12 -10z" />
    <glyph glyph-name="cid177" unicode="&#xbb;" 
d="M370 137l411 196l-411 195v107l556 -264v-75l-556 -269v110zM53 137l411 196l-411 195v107l556 -264v-75l-556 -269v110z" />
    <glyph glyph-name="cid177" unicode="&#x226b;" 
d="M370 137l411 196l-411 195v107l556 -264v-75l-556 -269v110zM53 137l411 196l-411 195v107l556 -264v-75l-556 -269v110z" />
    <glyph glyph-name="cid751" unicode="&#xbc;" horiz-adv-x="1100" 
d="M332 281q-2 -26 -10.5 -44t-21 -29t-27.5 -16t-30 -5h-82l44 453q2 20 -3 29.5t-23 9.5h-44v38h29q33 1 63 8.5t55.5 16.5t45.5 16t33 7q11 0 14.5 -3.5t2.5 -11.5zM479 118l257 314q24 31 46 47.5t43 24t41.5 8.5t42.5 1q21 0 28.5 -10.5t6.5 -23.5l-35 -363h96v-40
h-100l-4 -45q-8 -52 -33.5 -73t-55.5 -21h-82l14 139h-265v42zM528 116h220l26 260q1 8 -1.5 11.5t-7 3.5t-10 -3.5t-9.5 -8.5zM757 766l48 -29l-577 -821l-45 29z" />
    <glyph glyph-name="cid748" unicode="&#xbd;" horiz-adv-x="1100" 
d="M295 281q-2 -26 -10.5 -44t-21 -29t-27.5 -16t-30 -5h-82l44 453q2 20 -3 29.5t-23 9.5h-44v38h29q33 1 63 8.5t55.5 16.5t45.5 16t33 7q11 0 14.5 -3.5t2.5 -11.5zM559 396q15 43 37.5 68t51 37.5t62 16t69.5 3.5q48 0 83.5 -13.5t59.5 -34.5t36 -48.5t13 -56.5
q0 -42 -16.5 -74.5t-44.5 -58.5t-64.5 -47.5t-75.5 -40.5q-15 -8 -31 -17.5t-31.5 -20.5t-29.5 -21.5t-24 -19.5v-6q28 16 58.5 21.5t61.5 4t62.5 -6.5t62.5 -9q67 -8 69 62l16 1q13 -47 1.5 -84.5t-38 -63.5t-62 -39.5t-70.5 -11.5q-18 2 -49.5 8t-70.5 29q-14 8 -29 15.5
t-31.5 10t-33.5 -1t-33 -18.5l-17 -17q-8 -8 -18 -7.5t-14 5.5q-5 6 -5.5 13.5t7.5 14.5l132 133q26 27 51.5 49t46.5 46t35.5 54t19.5 74q4 42 -7.5 73t-47.5 46q-26 7 -51 5t-46.5 -12.5t-37 -28t-22.5 -41.5zM687 766l48 -29l-577 -821l-45 29z" />
    <glyph glyph-name="cid752" unicode="&#xbe;" horiz-adv-x="1100" 
d="M553 118l257 314q24 31 46 47.5t43 24t41.5 8.5t42.5 1q21 0 28.5 -10.5t6.5 -23.5l-35 -363h96v-40h-100l-4 -45q-8 -52 -33.5 -73t-55.5 -21h-82l14 139h-265v42zM602 116h220l26 260q1 8 -1.5 11.5t-7 3.5t-10 -3.5t-9.5 -8.5zM69 666q18 35 44 54.5t54.5 29.5
t57.5 12t54 2q109 -2 157.5 -40.5t49.5 -101.5q0 -55 -28 -85.5t-68 -44.5q44 -17 73 -52t29 -86q0 -57 -29 -100t-100 -63q-26 -8 -58.5 -11t-64 -3t-59 2.5t-43.5 7.5q-26 7 -46 19.5t-35 26.5t-24.5 27t-12.5 22l86 76l12 -6v-115q30 -17 66 -19.5t68 10.5
q29 11 49.5 44.5t21.5 90.5q0 19 -5.5 39t-18 36.5t-33.5 27t-51 11.5h-68v36h55q52 0 85.5 26t34.5 84q2 47 -20.5 71.5t-58.5 29.5q-24 3 -46.5 -2.5t-41.5 -16.5t-32.5 -26t-20.5 -31zM867 766l48 -29l-577 -821l-45 29z" />
    <glyph glyph-name="cid209" unicode="&#xbf;" horiz-adv-x="717" 
d="M385 269q-18 -9 -36 -21.5t-32.5 -29t-23.5 -37.5t-9 -48q-1 -41 10 -72t32.5 -51t52.5 -27t70 1q28 6 49 20t32 25l15 120l23 6l93 -81q-11 -10 -29 -27.5t-42 -37t-52.5 -38t-60.5 -31.5q-78 -32 -155.5 -34.5t-138.5 23t-97 78.5t-30 133q3 36 24 73.5t57 68
t86.5 50.5t111.5 21l39 106q2 6 10.5 15.5t22.5 19t33.5 16t43.5 6.5q31 0 44 -10t12 -24l-8 -178q-28 -2 -69 -9.5t-78 -25.5zM359 684q0 51 30.5 78.5t78.5 27.5t80 -27.5t32 -78.5q0 -49 -32 -79t-80 -30t-78.5 30t-30.5 79z" />
    <glyph glyph-name="cid131" unicode="&#xd7;" horiz-adv-x="700" 
d="M350 443l156 156l79 -79l-156 -156l156 -156l-79 -79l-156 156l-156 -156l-79 79l156 156l-156 156l79 79z" />
    <glyph glyph-name="cid768" unicode="&#xdf;" horiz-adv-x="700" 
d="M120 468l2 27q3 40 16.5 77t41.5 65.5t72 45.5t107 17h78q43 0 81 -10.5t65.5 -31.5t43.5 -53t16 -76q0 -59 -30 -99.5t-80 -60.5q25 -6 48.5 -18.5t42.5 -32.5t30.5 -47.5t12.5 -64.5q1 -69 -29.5 -117t-99.5 -79q-16 -7 -37.5 -11.5t-45 -6.5t-46 -1t-40.5 5
q-27 7 -43.5 31.5t-22.5 56.5l37 15q5 -17 14 -34.5t22 -19.5q50 -11 76.5 29t26.5 139q0 33 -4.5 56.5t-14.5 38.5t-24.5 23.5t-34.5 12.5q-10 2 -21.5 3t-23.5 1q-11 -1 -16 6t-5 15.5t4 15.5t12 7q12 0 23 1t20 3q37 7 53.5 35.5t18.5 74.5q4 81 -17 116t-57 35
q-38 0 -57.5 -31.5t-22.5 -84.5l-34 -438q-7 -37 -19.5 -58t-26.5 -31.5t-29 -13.5t-27 -3h-92l32 424h-81v47h85z" />
    <glyph glyph-name="cid757" unicode="&#xe6;" horiz-adv-x="1050" 
d="M691 -13q-41 0 -77 11.5t-64 28.5t-46 36t-23 36q-11 -26 -23 -46.5t-30 -35t-43 -22.5t-61 -8q-55 0 -103 14t-83.5 44.5t-56 78t-20.5 113.5q0 85 29.5 143.5t74.5 95t99 52.5t102 16q36 0 63 -8.5t47 -22t33 -29.5t21 -31q14 22 38 39t53.5 28.5t63 17.5t68.5 6
q58 0 102 -12t74 -31.5t45 -44.5t15 -51q0 -46 -27 -77t-75 -51.5t-114.5 -32t-145.5 -18.5q4 -30 18.5 -54.5t36.5 -42.5t49.5 -28t59.5 -10q49 0 87 16.5t71 45.5l15 -13q-15 -36 -41 -64.5t-61 -48t-78.5 -30t-92.5 -10.5zM462 418q1 10 -1 25.5t-9.5 30t-23 25
t-41.5 10.5q-27 0 -50 -16t-40 -51t-27 -91t-10 -135q0 -43 3.5 -78t13 -60t25.5 -38.5t40 -13.5q11 0 27 4.5t31.5 19.5t28.5 42.5t19 72.5v12v18.5t0.5 18.5t0.5 13zM817 442q0 31 -15.5 50t-48.5 19q-26 0 -49 -18.5t-40.5 -52t-28 -80t-10.5 -101.5q47 7 83 25.5t60 44
t36.5 55t12.5 58.5z" />
    <glyph glyph-name="cid759" unicode="&#xf0;" horiz-adv-x="695" 
d="M40 215q0 85 31.5 140.5t79.5 88.5t104.5 46.5t107.5 13.5q25 0 51.5 -8.5t38.5 -19.5q11 40 6 72t-22 55l-94 -48l-20 39l78 40q-25 13 -59 15h-27.5t-44 -6t-51 -19t-48.5 -38l-24 24q26 40 86.5 67.5t141.5 28.5q37 0 67.5 -5.5t56.5 -15.5l127 65l20 -38l-100 -52
q34 -24 54.5 -55.5t32 -66t14.5 -69.5t1 -64l-9 -135q-6 -84 -38 -139t-78.5 -87t-101.5 -44.5t-105 -12.5q-56 0 -106 11t-88 37t-60 70t-22 110zM243 186q0 -88 16 -128t58 -40q18 0 38.5 13t38.5 45t30 86.5t12 138.5q0 88 -16 129.5t-58 41.5q-18 0 -38.5 -13.5
t-38.5 -46t-30 -87.5t-12 -139z" />
    <glyph glyph-name="cid132" unicode="&#xf7;" horiz-adv-x="700" 
d="M627 426v-107h-555v107h555zM250 582q0 45 27.5 72.5t70.5 27.5q44 0 72.5 -27.5t28.5 -72.5t-28.5 -74t-72.5 -29q-43 0 -70.5 29t-27.5 74zM250 168q0 45 27.5 72.5t70.5 27.5q44 0 72.5 -27.5t28.5 -72.5t-28.5 -74t-72.5 -29q-43 0 -70.5 29t-27.5 74z" />
    <glyph glyph-name="cid766" unicode="&#xf8;" horiz-adv-x="689" 
d="M193 8q-66 26 -107 81.5t-41 147.5q0 85 31.5 143.5t79.5 95t104.5 52.5t107.5 16q47 0 87 -10l44 89l48 -21l-42 -84q62 -26 100.5 -81t38.5 -143q0 -85 -31.5 -143.5t-79.5 -95t-104.5 -52.5t-107.5 -16q-21 0 -40.5 2t-38.5 6l-52 -104l-45 21zM248 208q0 -23 1 -43.5
t3 -38.5l170 342q-9 21 -22 32.5t-33 11.5q-18 0 -38.5 -16t-38.5 -52t-30 -94t-12 -142zM441 323q0 34 -3 63l-167 -334q17 -34 51 -34q18 0 38.5 16.5t38.5 52.5t30 94t12 142z" />
    <glyph glyph-name="cid769" unicode="&#xfe;" horiz-adv-x="730" 
d="M118 667q2 42 -16.5 53.5t-46.5 11.5l2 32q43 1 81 8t70.5 15t58 14.5t43.5 6.5q13 0 17.5 -6t3.5 -14l-21 -306q22 29 58 47t87 18q45 0 84.5 -15t69 -43t46.5 -69t19 -94q2 -66 -15.5 -125t-54.5 -104t-92 -73t-128 -32q-27 -2 -55.5 2.5t-48.5 12.5l-12 -213
q-2 -20 -15 -35.5t-33 -26t-44.5 -15.5t-48.5 -5q-33 0 -51 16t-17 42zM399 492q-26 0 -54 -18t-39 -56l-24 -370q17 -8 35.5 -12.5t32.5 -4.5q27 1 50 19t40.5 55.5t28.5 96t13 139.5q2 27 -3 54t-15.5 48.5t-27 35t-37.5 13.5z" />
    <glyph glyph-name="cid758" unicode="&#x111;" horiz-adv-x="785" 
d="M456 641l2 26q1 21 -3 34t-12.5 19.5t-20.5 9t-26 2.5l2 32q43 1 81 8t70.5 15t58 14.5t42.5 6.5q14 0 18.5 -5.5t3.5 -14.5l-10 -147h99v-47h-102l-30 -440q-3 -44 23 -54.5t79 24.5l11 -16q-24 -29 -51 -51t-55 -36.5t-54 -22t-48 -7.5q-45 0 -72 17.5t-36 59.5
q-20 -40 -60 -58t-90 -18q-51 0 -93 15t-72.5 44t-47 72t-16.5 99q0 75 25 135t69 102.5t104.5 65t132.5 22.5q20 0 39 -4.5t32 -12.5l4 64h-107v47h110zM404 509q-41 0 -70 -26.5t-48 -72.5t-28 -106.5t-9 -127.5q-1 -71 19 -101t53 -30q14 0 31 5t32.5 16t26.5 30t13 48
l23 353q-8 5 -21.5 8.5t-21.5 3.5z" />
    <glyph glyph-name="cid760" unicode="&#x127;" horiz-adv-x="770" 
d="M127 641l2 26q1 21 -3 34t-13 19.5t-21 9t-26 2.5l2 32q43 1 81 8.5t70.5 15t58 14t43.5 6.5q14 0 18.5 -5.5t3.5 -14.5l-10 -147h108v-47h-111l-8 -126q71 33 135 57.5t111 24.5q51 0 78 -29t24 -78l-21 -293q-3 -44 22 -55.5t79 23.5l10 -16q-24 -29 -51.5 -50
t-54.5 -34.5t-53 -19.5t-48 -6q-57 0 -86.5 31.5t-24.5 102.5l23 302q0 17 -9 26.5t-23 9.5q-8 0 -22 -3t-29.5 -7.5t-32 -10t-30.5 -11.5l-28 -431l-206 -11l39 604h-98v47h101z" />
    <glyph glyph-name="cid761" unicode="&#x131;" horiz-adv-x="420" 
d="M149 472q-22 -4 -45 -7t-48 -5v36q72 9 147.5 32t141.5 57h18l-46 -513q-2 -14 2 -20t18 -6h39v-46h-322v46h40q9 0 13.5 5.5t6.5 19.5z" />
    <glyph glyph-name="cid762" unicode="&#x133;" horiz-adv-x="859" 
d="M186 472q-22 -4 -40 -7t-43 -5v36q72 9 137.5 32t131.5 57h18l-33 -442q-3 -44 26 -51t82 28l12 -15q-48 -59 -103 -87t-99 -28q-56 0 -88 30t-27 100zM308 646q-45 0 -74.5 25t-29.5 67q0 25 10 45t26.5 34t37.5 21.5t43 7.5q45 0 74.5 -25t29.5 -67q0 -25 -10 -45
t-26.5 -34t-37.5 -21.5t-43 -7.5zM699 -47q-5 -44 -15.5 -87t-36 -76.5t-72 -54.5t-123.5 -21q-69 0 -114 35.5t-56 111.5l43 11q6 -27 15.5 -45t21.5 -28.5t25.5 -14.5t26.5 -4q38 0 60.5 25t25.5 79l35 587q-22 -5 -40.5 -8t-41.5 -5v37q72 8 136.5 31t131.5 58h17z
M649 646q-45 0 -74.5 25t-29.5 67q0 25 10 45t26.5 34t37.5 21.5t43 7.5q45 0 74.5 -25t29.5 -67q0 -25 -10 -45t-26.5 -34t-37.5 -21.5t-43 -7.5z" />
    <glyph glyph-name="cid763" unicode="&#x138;" horiz-adv-x="747" 
d="M105 422q1 21 -3.5 34t-13.5 19.5t-21 9t-25 2.5l1 32q43 1 81.5 8t71 15t58 14.5t43.5 6.5q14 0 18.5 -5.5t3.5 -14.5l-15 -203q28 50 62 89.5t70.5 67t74.5 42t76 14.5q20 0 38 -8t20 -21l-72 -143h-14l-41 107q-10 -1 -30.5 -15t-45.5 -36.5t-51.5 -51.5t-48.5 -61
q70 1 122 -4.5t86 -24t48.5 -52t10.5 -88.5q-2 -22 4.5 -37t20.5 -21t36 -1t51 23l11 -15q-24 -29 -54 -51t-61 -36t-60 -21t-51 -7q-109 0 -109 170q0 29 -2 54.5t-8.5 45t-19 33.5t-33.5 21q-13 -20 -24.5 -44t-13.5 -47l-15 -220l-206 -11z" />
    <glyph glyph-name="cid764" unicode="&#x140;" horiz-adv-x="674" 
d="M148 629q2 14 -3.5 19.5t-16.5 5.5h-41v46h328v-46h-40q-8 0 -12 -5.5t-6 -19.5l-55 -557q-2 -14 2 -20t18 -6h39v-46h-328v46h40q9 0 13.5 5.5t6.5 19.5zM406 332q0 51 30.5 81t78.5 30t80 -30t32 -81q0 -24 -8.5 -45t-23.5 -36.5t-35.5 -24t-44.5 -8.5
q-48 0 -78.5 32.5t-30.5 81.5z" />
    <glyph glyph-name="cid765" unicode="&#x142;" horiz-adv-x="444" 
d="M124 388l24 241q2 14 -3.5 19.5t-16.5 5.5h-41v46h328v-46h-40q-8 0 -12 -5.5t-6 -19.5l-24 -241h106v-47h-111l-26 -269q-2 -14 2 -20t18 -6h39v-46h-328v46h40q9 0 13.5 5.5t6.5 19.5l26 270h-115v47h120z" />
    <glyph glyph-name="cid772" unicode="&#x149;" horiz-adv-x="850" 
d="M191 406q1 21 -3 33.5t-13 19t-21 9t-25 2.5l2 33q42 1 80 8t70 15t57.5 14t42.5 6q14 0 18.5 -5.5t4.5 -14.5l-5 -66q75 35 141 59.5t113 24.5q48 0 71.5 -28t19.5 -76l-20 -296q-2 -20 4 -33t19 -17.5t33 1.5t47 23l11 -15q-24 -30 -52.5 -51.5t-57.5 -36t-56.5 -21.5
t-48.5 -7q-57 0 -83.5 31t-21.5 102l21 312q2 26 -20 26q-9 0 -24 -3t-32.5 -8.5t-35 -12t-30.5 -12.5l-28 -421l-205 -10zM108 509q-20 -7 -41 -7t-36 6l5 37q13 -2 25.5 0.5t26.5 10.5q11 7 18 18t10 23q6 24 -16 19q-45 0 -69 23.5t-24 65.5q0 50 30.5 74.5t75.5 24.5
q14 0 31 -5t32 -16.5t26 -29t13 -41.5q3 -32 -1.5 -63t-17.5 -58.5t-35 -49t-53 -32.5z" />
    <glyph glyph-name="cid771" unicode="&#x14b;" horiz-adv-x="745" 
d="M630 -46q-5 -44 -17 -87t-39.5 -76.5t-75.5 -54.5t-125 -21q-69 0 -114 35.5t-56 111.5l43 11q6 -27 15.5 -45t21.5 -28.5t25.5 -14.5t26.5 -4q38 0 60.5 25t25.5 79l37 547q2 26 -20 26q-9 0 -24 -3t-32.5 -8.5t-35 -12t-30.5 -12.5l-28 -421l-205 -10l27 415
q1 21 -3 33.5t-13 19t-21 9t-25 2.5l2 33q42 1 80 8t70 15t57.5 14t42.5 6q14 0 18.5 -5.5t4.5 -14.5l-5 -66q75 35 141 59.5t113 24.5q48 0 71.5 -28t19.5 -76z" />
    <glyph glyph-name="cid767" unicode="&#x153;" horiz-adv-x="1050" 
d="M706 -13q-24 0 -48 4.5t-47 14.5t-43.5 26t-35.5 39q-23 -28 -48 -44.5t-51 -25.5t-52 -11.5t-50 -2.5q-56 0 -104.5 14.5t-84.5 44.5t-56.5 77.5t-20.5 113.5q0 85 30 143.5t76 95t101 52.5t106 16q54 0 101.5 -16t83.5 -60q41 43 90.5 59.5t104.5 16.5q58 0 100.5 -12
t70.5 -31.5t41.5 -44.5t13.5 -51q0 -46 -24.5 -77t-69.5 -51.5t-109 -32t-143 -18.5q0 -1 -0.5 -1.5t-0.5 -1.5q10 -58 53 -95t106 -37q49 0 82 16.5t66 45.5l15 -13q-29 -72 -91.5 -112.5t-161.5 -40.5zM263 208q0 -88 13.5 -139t55.5 -51q18 0 38 16.5t37 52.5t28 94
t11 142q0 88 -13.5 138.5t-55.5 50.5q-18 0 -38 -16t-37 -52t-28 -94t-11 -142zM817 442q0 31 -13 50t-46 19q-23 0 -41.5 -13t-33 -34.5t-24.5 -49t-15 -55.5t-5.5 -54t3.5 -45q45 7 78 26t54.5 44.5t32 54.5t10.5 57z" />
    <glyph glyph-name="cid770" unicode="&#x167;" horiz-adv-x="500" 
d="M129 371l10 129h-90v40q46 13 91 37t83.5 56t67 70t42.5 79h29l-16 -237h117v-45h-120l-10 -129h119v-45h-122l-13 -185q-3 -43 26.5 -50.5t82.5 28.5l11 -15q-24 -30 -51.5 -51.5t-55.5 -35.5t-54.5 -21t-48.5 -7q-56 0 -88.5 30t-27.5 100l15 207h-89v45h92z" />
    <glyph glyph-name="cid201" unicode="&#x2c7;" horiz-adv-x="410" 
d="M12 711l74 56l98 -154l146 154l68 -58l-171 -183h-105z" />
    <glyph glyph-name="cid210" unicode="&#x2d0;" horiz-adv-x="500" 
d="M368 615l-123 -214l-121 214h244zM124 37l121 214l123 -214h-244z" />
    <glyph glyph-name="cid210" unicode="&#x2236;" horiz-adv-x="500" 
d="M368 615l-123 -214l-121 214h244zM124 37l121 214l123 -214h-244z" />
    <glyph glyph-name="cid202" unicode="&#x2d8;" horiz-adv-x="410" 
d="M118 761q-3 -19 -2 -38t8 -34t22 -24.5t39 -9.5q51 0 78 31t38 76h83q-3 -42 -15.5 -79.5t-37 -65.5t-62.5 -44.5t-90 -16.5q-42 0 -73 14.5t-50 41.5t-25 64.5t3 84.5h84z" />
    <glyph glyph-name="cid205" unicode="&#x2d9;" horiz-adv-x="500" 
d="M141 632q0 51 30.5 81t78.5 30t80 -30t32 -81q0 -24 -8.5 -45t-23.5 -36.5t-35.5 -24t-44.5 -8.5q-48 0 -78.5 32.5t-30.5 81.5z" />
    <glyph glyph-name="cid204" unicode="&#x2da;" horiz-adv-x="400" 
d="M151 663q0 -22 13.5 -36t35.5 -14q23 0 36.5 14t13.5 36t-13.5 35.5t-36.5 13.5q-22 0 -35.5 -13.5t-13.5 -35.5zM61 663q0 29 11 53.5t30 42.5t44.5 28t53.5 10t53.5 -10.5t44.5 -28.5t30 -42.5t11 -52.5q0 -30 -11 -54.5t-30 -42.5t-44.5 -27.5t-53.5 -9.5t-53.5 10.5
t-44.5 28.5t-30 42.5t-11 52.5z" />
    <glyph glyph-name="cid207" unicode="&#x2db;" horiz-adv-x="300" 
d="M175 4q-23 -18 -40.5 -45.5t-17.5 -51.5q0 -17 14 -22t32 -5h67v-79h-76q-24 0 -49 5t-45.5 16.5t-33 31t-12.5 48.5q0 27 8 49.5t21.5 42t31.5 37t38 34.5z" />
    <glyph glyph-name="cid200" unicode="&#x2dc;" 
d="M381 337q-52 17 -82.5 -1.5t-55.5 -63.5l-39 21q15 52 43 89t63 58t73.5 26t74.5 -5q1 -1 14 -7t31 -15.5t39 -20t39 -20t31 -16t15 -6.5q41 -10 80 6t59 55l37 -21q-15 -53 -42.5 -89t-62 -57t-73 -26t-74.5 5q-3 1 -15.5 7.5t-31 16.5t-39 21t-38.5 20.5t-31 16
t-15 6.5z" />
    <glyph glyph-name="cid203" unicode="&#x2dd;" horiz-adv-x="450" 
d="M57 791h136q11 0 17 -6.5t4 -17.5l-21 -99l-82 -141q-8 -14 -21.5 -22.5t-30.5 -8.5q-20 0 -26.5 12t-5.5 26zM266 791h136q11 0 17 -6.5t4 -17.5l-21 -99l-82 -141q-8 -14 -21.5 -22.5t-30.5 -8.5q-20 0 -26.5 12t-5.5 26z" />
    <glyph glyph-name="cid471" unicode="&#x391;" horiz-adv-x="758" 
d="M324 562l-98 -262h166zM146 83q-8 -14 -2 -25.5t29 -11.5h26v-46h-195v46h28q23 0 34.5 7.5t23.5 33.5l234 613h105q23 0 39.5 -18t24.5 -44l143 -492q12 -42 41 -47t73 24l16 -23q-54 -63 -111.5 -89t-99.5 -26q-23 0 -40 9t-29 22.5t-19.5 29t-11.5 29.5l-48 180h-199z
" />
    <glyph glyph-name="cid472" unicode="&#x392;" horiz-adv-x="740" 
d="M107 628q3 28 -25 28h-45v44h423q44 0 81.5 -9.5t65.5 -30.5t43.5 -55t15.5 -83q0 -59 -30 -96t-80 -57q25 -6 48.5 -18.5t42.5 -32.5t30.5 -47.5t12.5 -64.5q1 -69 -27 -117.5t-97 -78.5q-17 -8 -50 -12.5t-70 -6t-72.5 0t-56.5 5.5q-20 3 -42 12.5t-43 22.5
q-14 -18 -33 -25t-40 -7h-100zM261 106q-2 -9 -3.5 -17t-3.5 -15q14 -8 30.5 -16t36.5 -13q49 -9 80 2.5t49 36t25 59t7 70.5q0 41 -10.5 67t-29.5 41t-46 20.5t-60 6.5h-57zM303 657l-20 -265h48q64 0 99.5 23t38.5 81q2 40 -1.5 70t-15.5 50.5t-35.5 30.5t-61.5 10h-52z
" />
    <glyph glyph-name="cid473" unicode="&#x393;" horiz-adv-x="614" 
d="M101 631q2 15 -6.5 20t-17.5 5h-43v44h575v-48h-299l-49 -584q-2 -21 -15.5 -36t-33.5 -25t-44.5 -15t-47.5 -5q-68 0 -67 51z" />
    <glyph glyph-name="cid474" unicode="&#x394;" horiz-adv-x="590" 
d="M194 700h225l139 -638v-62h-530v61zM188 73h209l-91 472h-4z" />
    <glyph glyph-name="cid475" unicode="&#x395;" horiz-adv-x="644" 
d="M105 631q2 15 -6 20t-16 5h-45v44h585v-48h-311l-24 -261h276v-47h-280l-26 -295h341v-49h-484q-29 0 -45 18t-14 41z" />
    <glyph glyph-name="cid476" unicode="&#x396;" horiz-adv-x="651" 
d="M180 653l-84 -97l-18 4l-23 123v17h575l-399 -653h266l89 114l15 -4l19 -139v-18h-537q-20 0 -33 9.5t-18.5 24t-3.5 32.5t12 35l314 515q9 13 5.5 25t-17.5 12h-162z" />
    <glyph glyph-name="cid477" unicode="&#x397;" horiz-adv-x="809" 
d="M523 330h-243l-25 -265q-2 -21 -14.5 -35.5t-31.5 -24t-42.5 -14t-46.5 -4.5q-66 0 -65 51l55 590q2 14 -5 21.5t-18 7.5h-45v43h249q9 0 17 -7t6 -18l-29 -298h243l24 251q2 14 -4 21.5t-17 7.5h-47v43h249q8 0 15.5 -7t5.5 -18l-57 -610q-2 -21 -14.5 -35.5t-32 -24
t-43 -14t-47.5 -4.5q-65 0 -64 51z" />
    <glyph glyph-name="cid478" unicode="&#x398;" horiz-adv-x="791" 
d="M380 -10q-88 -1 -153 20t-107.5 58.5t-63.5 89t-21 113.5q0 106 27 188t76.5 137.5t119.5 84t156 28.5q90 0 154.5 -20.5t106 -56.5t61 -85.5t19.5 -109.5q0 -214 -96.5 -329.5t-278.5 -117.5zM412 664q-27 0 -57.5 -16.5t-56.5 -60t-43.5 -118.5t-17.5 -192
q0 -76 13 -123t34 -73.5t46.5 -36t50.5 -9.5q27 0 56.5 18.5t53.5 64t40 122t16 193.5q0 76 -11.5 121.5t-30.5 70t-43.5 32t-49.5 7.5zM499 412v-109h-209v109h209z" />
    <glyph glyph-name="cid479" unicode="&#x399;" horiz-adv-x="409" 
d="M128 629q2 14 -3.5 19.5t-16.5 5.5h-41v46h328v-46h-40q-8 0 -12 -5.5t-6 -19.5l-55 -557q-2 -14 2 -20t18 -6h39v-46h-328v46h40q9 0 13.5 5.5t6.5 19.5z" />
    <glyph glyph-name="cid480" unicode="&#x39a;" horiz-adv-x="768" 
d="M107 631q2 15 -6.5 20t-17.5 5h-43v44h245q15 0 20.5 -8t3.5 -19l-24 -260l249 214q14 14 12 20.5t-13 6.5h-34v46h234v-46h-34q-17 0 -29.5 -1.5t-23.5 -6t-23.5 -13.5t-29.5 -24l-254 -216q50 -1 94 -3.5t67 -7.5q33 -7 56 -34.5t38.5 -63t25.5 -73.5t18 -66
q8 -35 36 -44t75 26l15 -20q-23 -32 -50.5 -54.5t-56 -37t-55.5 -21.5t-49 -7q-23 0 -43.5 7t-38 24t-30.5 44t-19 68q-4 25 -11.5 58t-18 65.5t-24 58t-28.5 35.5q-7 4 -24.5 4.5t-36.5 1.5l-26 -284q-2 -21 -14.5 -36t-31 -25t-42 -15t-46.5 -5q-65 0 -64 51z" />
    <glyph glyph-name="cid481" unicode="&#x39b;" horiz-adv-x="769" 
d="M168 80q-8 -14 -2 -26t29 -12h30v-46h-206v46h28q23 0 38.5 8t27.5 34l276 616h81q6 0 16 -2.5t20 -10.5t18.5 -23t12.5 -39l129 -559q3 -9 7 -16.5t23 -7.5h53v-46h-279l-108 522z" />
    <glyph glyph-name="cid482" unicode="&#x39c;" horiz-adv-x="977" 
d="M698 700h252v-43h-35q-14 0 -22.5 -5t-10.5 -27l-46 -473q-1 -19 5 -32.5t19.5 -18.5t33 0.5t45.5 23.5l17 -22q-27 -32 -56.5 -54t-59 -36.5t-56 -21t-47.5 -6.5q-51 0 -75.5 34.5t-17.5 109.5l40 428l-271 -539h-23q-7 0 -15 2.5t-16 10.5t-16 23t-15 41l-120 422
l-36 -430q-2 -20 4.5 -33.5t30.5 -13.5h31v-40h-212v40h46q23 0 33.5 11.5t12.5 37.5l48 542q1 8 -3 17t-18 9h-35v43h248l115 -443z" />
    <glyph glyph-name="cid483" unicode="&#x39d;" horiz-adv-x="820" 
d="M673 0h-69q-29 0 -60.5 21.5t-61.5 78.5l-271 460l-40 -472q-1 -20 4 -34t29 -14h37v-40h-220v40h46q21 0 34 11t15 37l49 534q2 14 -7 22.5t-22 8.5h-33v47h254l279 -486l31 402q3 39 -30 39h-43v45h217v-45h-46q-35 0 -38 -39z" />
    <glyph glyph-name="cid484" unicode="&#x39e;" horiz-adv-x="711" 
d="M635 700v-17l-23 -123l-18 -4l-84 97h-325l-84 -97l-18 4l-23 123v17h575zM38 0v18l19 139l15 4l89 -114h391l89 114l15 -4l19 -139v-18h-637zM515 373v-47h-335v47h335z" />
    <glyph glyph-name="cid485" unicode="&#x39f;" horiz-adv-x="791" 
d="M380 -10q-88 -1 -153 20t-107.5 58.5t-63.5 89t-21 113.5q0 106 27 188t76.5 137.5t119.5 84t156 28.5q90 0 154.5 -20.5t106 -56.5t61 -85.5t19.5 -109.5q0 -214 -96.5 -329.5t-278.5 -117.5zM412 664q-27 0 -57.5 -16.5t-56.5 -60t-43.5 -118.5t-17.5 -192
q0 -76 13 -123t34 -73.5t46.5 -36t50.5 -9.5q27 0 56.5 18.5t53.5 64t40 122t16 193.5q0 76 -11.5 121.5t-30.5 70t-43.5 32t-49.5 7.5z" />
    <glyph glyph-name="cid486" unicode="&#x3a0;" horiz-adv-x="814" 
d="M134 629q1 19 -9 23h-59v48h738v-48h-60q-8 -5 -9 -23l-55 -557q-2 -14 2 -20t18 -6h29v-46h-292v46h30q9 0 13.5 5.5t6.5 19.5l55 558q1 19 -9 23h-196q-8 -5 -9 -23l-55 -557q-2 -14 2 -20t18 -6h29v-46h-293v46h30q9 0 13.5 5.5t6.5 19.5z" />
    <glyph glyph-name="cid487" unicode="&#x3a1;" horiz-adv-x="730" 
d="M106 628q2 14 -5 21.5t-18 7.5h-47v43h392q54 0 103 -11.5t85.5 -36.5t58 -63t20.5 -91q-2 -68 -27.5 -117t-71 -80t-109 -45.5t-140.5 -14.5h-78l-15 -175q-2 -21 -14.5 -35.5t-31.5 -24t-42.5 -14t-46.5 -4.5q-65 0 -64 51zM322 658q-17 0 -18 -22l-31 -351h25
q15 0 35.5 1t42 7.5t42.5 19.5t37.5 37t27 60.5t10.5 90.5q0 31 -5.5 59t-18 50t-34 35t-54.5 13h-59z" />
    <glyph glyph-name="cid488" unicode="&#x3a3;" horiz-adv-x="671" 
d="M493 346l-254 -299h258l89 114l15 -4l19 -139v-18h-547q-40 0 -51.5 23.5t8.5 57.5l241 269l-211 269q-20 34 -8.5 57.5t51.5 23.5h547v-18l-19 -139l-15 -4l-89 114h-258l224 -299v-8z" />
    <glyph glyph-name="cid489" unicode="&#x3a4;" horiz-adv-x="682" 
d="M232 623q1 10 -3.5 19.5t-22.5 9.5h-188v48h646v-48h-194q-14 0 -20.5 -6t-8.5 -23l-51 -554q-2 -21 -15.5 -36t-34 -25t-45 -15t-47.5 -5q-69 0 -68 51z" />
    <glyph glyph-name="cid490" unicode="&#x3a5;" horiz-adv-x="755" 
d="M261 304l-156 326q-7 14 -14.5 19.5t-29.5 4.5h-39v46h271l135 -304l152 238q8 11 3.5 16.5t-18.5 4.5h-38v45h206v-46h-38h-15t-14 -3t-14.5 -10.5t-16.5 -22.5l-161 -255l-27 -294q-2 -21 -15.5 -36t-33.5 -25t-44.5 -15t-47.5 -5q-70 0 -69 51z" />
    <glyph glyph-name="cid491" unicode="&#x3a6;" horiz-adv-x="800" 
d="M15 317q0 58 22 104.5t61.5 81.5t95 57.5t122.5 31.5l4 37q2 14 -3.5 19.5t-16.5 5.5h-41v46h306v-46h-40q-8 0 -12 -5.5t-6 -19.5l-4 -35q81 -9 132 -31.5t80 -52t39.5 -61t10.5 -58.5q0 -59 -21 -107.5t-61 -85.5t-97.5 -61t-130.5 -33l-3 -32q-2 -14 2 -20t18 -6h39
v-46h-306v46h40q9 0 13.5 5.5t6.5 19.5l3 34q-81 10 -130.5 34t-77 54t-36.5 63t-9 61zM567 387q0 52 -16.5 90t-53.5 58l-37 -373q21 10 40.5 27.5t34 44.5t23.5 64.5t9 88.5zM207 323q0 -48 17 -86.5t51 -61.5l35 356q-20 -10 -39 -26.5t-33 -41.5t-22.5 -59.5t-8.5 -80.5
z" />
    <glyph glyph-name="cid492" unicode="&#x3a7;" horiz-adv-x="761" 
d="M330 231l-123 -164q-6 -8 -6 -15.5t13 -7.5h46v-44h-239v44h45q13 1 24.5 2.5t22.5 6.5t23 15t27 28l143 192l-147 345q-7 14 -13.5 19.5t-28.5 3.5h-55v44h284l95 -230l124 167q8 10 3.5 16t-17.5 5l-38 -1v43h224v-44h-40q-19 -1 -29 -2.5t-17 -6t-15 -14t-23 -27.5
l-147 -195l141 -339q6 -16 18.5 -21.5t25.5 -5.5h55v-45h-200q-14 0 -29 3.5t-30.5 13.5t-30 27.5t-26.5 46.5z" />
    <glyph glyph-name="cid493" unicode="&#x3a8;" horiz-adv-x="840" 
d="M69 631q2 15 -6.5 20t-17.5 5h-23v44h221q15 0 19.5 -7.5t3.5 -18.5l-21 -244q-5 -84 14.5 -126.5t78.5 -55.5l38 381q2 14 -3.5 19.5t-16.5 5.5h-31v46h286v-46h-30q-8 0 -12 -5.5t-6 -19.5l-37 -375q28 6 56 18t50.5 32t37.5 49t18 70l16 197q2 20 -3.5 27.5t-23.5 7.5
h-27v45h177v-45h-26q-20 0 -26.5 -6.5t-10.5 -32.5l-16 -195q-4 -54 -24.5 -92t-51.5 -63.5t-70 -40.5t-81 -22l-13 -131q-2 -14 2 -20t18 -6h29v-46h-286v46h30q9 0 13.5 5.5t6.5 19.5l12 124q-84 4 -139.5 21.5t-88 47t-44.5 71t-8 95.5z" />
    <glyph glyph-name="cid494" unicode="&#x3a9;" 
d="M68 0v18l29 119l15 4l79 -94h76l7 86q-2 0 -3 1q-66 29 -98.5 79.5t-32.5 127.5q0 86 27 154.5t76.5 116t119.5 72.5t156 25q100 0 165.5 -23.5t104.5 -58.5t55 -78t16 -82q0 -65 -13.5 -116.5t-37.5 -92t-56 -69.5t-68 -48l-19 -9l-5 -85h104l79 94l15 -4l29 -119v-18
h-377l14 182v1q11 1 24.5 8t25.5 16t21.5 19t12.5 18q9 17 17 36t13.5 45t9 61.5t3.5 86.5q0 55 -11.5 92t-30.5 59t-43.5 31t-49.5 9q-27 0 -57.5 -13.5t-56.5 -48.5t-43.5 -97t-17.5 -158q0 -148 82 -167l-15 -180h-341z" />
    <glyph glyph-name="cid495" unicode="&#x3b1;" horiz-adv-x="724" 
d="M676 532q0 -27 -9 -62.5t-24 -76t-36.5 -84t-46.5 -86.5q5 -20 8 -36.5l5 -27.5q4 -25 17 -38t28 -15t30.5 6t24.5 25l12 -16q-8 -33 -24 -56t-35.5 -38t-42 -21.5t-44.5 -6.5q-32 0 -57.5 13.5t-41.5 45.5q-14 -14 -27 -25t-25 -19q-26 -17 -58 -22.5t-61 -3.5
q-45 2 -86.5 18.5t-73 46t-51 71.5t-20.5 95q-2 75 19 136t61 103.5t96.5 65t125.5 21.5q74 -2 113.5 -37.5t59.5 -100.5v-2q11 35 17 66t9 61h137zM417 151l2 6t3 7v10.5t1 11.5q4 66 1.5 123t-12 100t-25 68.5t-37.5 28.5q-49 4 -80.5 -66t-37.5 -226q-2 -51 1.5 -84.5
t12.5 -54t23 -28.5t34 -8q10 0 24.5 5.5t29.5 18t30.5 34t29.5 54.5z" />
    <glyph glyph-name="cid496" unicode="&#x3b2;" horiz-adv-x="700" 
d="M233 -107q-7 -37 -19.5 -58t-26.5 -31.5t-29 -13.5t-27 -3h-92l53 708q3 40 18 77t45 65.5t75.5 45.5t108.5 17h88q43 0 81 -10.5t65.5 -31.5t43.5 -53t16 -76q0 -59 -30 -99.5t-80 -60.5q25 -6 48.5 -18.5t42.5 -32.5t30.5 -47.5t12.5 -64.5q1 -69 -29.5 -117t-99.5 -79
q-20 -9 -45 -14t-52.5 -6t-55 0.5t-51.5 6.5q-13 2 -37 11t-44 26zM247 87q17 -17 41.5 -27.5t39.5 -14.5q39 -7 65.5 4t43.5 34.5t24.5 57.5t7.5 72q0 33 -5.5 56.5t-16.5 38.5t-27.5 23.5t-38.5 12.5q-10 1 -31.5 2.5t-33.5 1.5q-11 -1 -16 6t-5 15.5t4 15.5t12 7
q12 0 33 1t30 3q42 8 61 35t21 75q4 81 -18.5 116t-65.5 35q-45 0 -66 -31.5t-24 -84.5z" />
    <glyph glyph-name="cid497" unicode="&#x3b3;" horiz-adv-x="686" 
d="M214 81q-17 45 -28.5 85.5t-20 80.5t-15.5 79.5t-16 82.5q-8 44 -32.5 56.5t-54.5 -21.5l-15 27q13 18 35 31.5t47 23t51 14.5t47 5q53 0 84 -32.5t35 -95.5q2 -32 2 -57v-48t1 -47t4 -54q2 -20 4.5 -30.5t11.5 -0.5q24 24 43 54t32.5 62.5t21 65.5t8.5 65q-2 22 -11 33
t-29 9h-36l-1 41h37q36 3 63 10t48 14t37.5 13t30.5 6q13 1 21 -7.5t7 -17.5q-2 -68 -18 -123t-44 -102.5t-66 -90t-83 -85.5q-13 -13 -29 -24.5t-26 -21.5q3 -16 10.5 -49t12.5 -73q8 -63 -13 -108.5t-71 -57.5q-39 -10 -69 -6t-50 19t-30 41.5t-8 61.5q2 42 22.5 88.5
t49.5 83.5zM263 -149q11 14 9 51.5t-18 80.5q-9 -11 -16.5 -27.5t-12 -33t-6.5 -31t-1 -22.5q2 -23 18 -27.5t27 9.5z" />
    <glyph glyph-name="cid498" unicode="&#x3b4;" horiz-adv-x="689" 
d="M45 212q0 78 26.5 130t68.5 84t93.5 47.5t100.5 18.5q-21 9 -46 16.5t-49.5 13t-46 9t-35.5 5.5l-7 35q48 10 98.5 25.5t99.5 34.5t94 40.5t82 43.5q13 -1 23.5 -14.5t18 -33t11.5 -43t3 -45.5l-247 -47q25 -5 60.5 -18.5t68.5 -27.5q39 -8 72.5 -23.5t57.5 -41.5
t38 -63.5t14 -88.5q0 -85 -31.5 -139.5t-79.5 -86t-104.5 -44t-107.5 -12.5q-56 0 -106 10.5t-88 36t-60 69t-22 109.5zM248 183q0 -88 16 -126.5t58 -38.5q18 0 38.5 12.5t38.5 44t30 85.5t12 138q0 88 -16 126t-58 38q-18 0 -38.5 -12t-38.5 -43.5t-30 -85.5t-12 -138z
" />
    <glyph glyph-name="cid499" unicode="&#x3b5;" horiz-adv-x="642" 
d="M549 403q-9 19 -23.5 37t-35 31.5t-46 20.5t-55.5 6q-55 -2 -87 -21.5t-40 -64.5q-6 -30 7 -48t34.5 -27t47.5 -12t47 -3h69v-45h-95q-30 0 -53.5 -10t-39.5 -26.5t-24 -38t-8 -45.5q0 -30 9 -50t22.5 -32.5t31.5 -19.5t36 -10t33.5 -4.5t31 0t33 5.5t40.5 13l9 114l15 7
l108 -70q-4 -12 -16 -26.5t-31.5 -29.5t-47 -28.5t-62.5 -23.5q-20 -6 -54.5 -10t-74 -5t-80 2t-73.5 12q-43 11 -70.5 28.5t-43 38t-21.5 42t-6 40.5q0 31 9.5 56.5t26 44.5t37.5 30.5t45 14.5q-17 4 -34 11t-30 19t-21 30.5t-8 44.5q0 41 25 68.5t64 45t87.5 25t96.5 8.5
q31 0 69.5 -4t74.5 -17t66 -37.5t46 -64.5z" />
    <glyph glyph-name="cid500" unicode="&#x3b6;" horiz-adv-x="600" 
d="M247 698q-17 -5 -28.5 -24t-6.5 -54q2 -12 11 -22.5t26 -15.5q21 22 43 39t46.5 30t53.5 20.5t64 9.5q33 2 54 -8t21 -25q0 -13 -13.5 -32t-45.5 -39q-22 -14 -50.5 -24t-57.5 -18q-23 -30 -45.5 -68t-40.5 -81t-29.5 -88t-11.5 -88q0 -22 1.5 -46t8.5 -44.5t20 -33.5
t37 -13q22 0 33 0.5t31 0.5q31 0 61 -7t53 -21t37.5 -36.5t14.5 -53.5q0 -55 -22 -87t-58 -48.5t-82.5 -21.5t-95.5 -5q-45 0 -73 9.5t-28 37.5q0 21 20.5 28.5t62.5 7.5q20 0 35.5 0.5t31.5 0.5q17 0 25.5 19t8.5 46q0 28 -10 42.5t-39 15.5q-7 0 -11 -0.5t-8.5 -0.5
t-11.5 -0.5t-20 -0.5q-59 0 -98.5 15t-63 42t-33 65t-9.5 83q0 42 13 87t34.5 88.5t48.5 84t55 73.5q-49 8 -80.5 27t-31.5 50q0 25 11.5 44t31 32t45 21t53.5 12z" />
    <glyph glyph-name="cid501" unicode="&#x3b7;" horiz-adv-x="765" 
d="M618 -107q-3 -38 -15 -59t-27 -31.5t-31.5 -13t-28.5 -2.5h-104l46 645q2 26 -20 26q-9 0 -24 -3t-32.5 -8.5t-35 -12t-30.5 -12.5l-28 -421l-205 -10l27 415q1 21 -3 33.5t-13 19t-21 9t-25 2.5l2 33q42 1 80 8t70 15t57.5 14t42.5 6q14 0 18.5 -5.5t4.5 -14.5l-5 -66
q75 35 141 59.5t113 24.5q48 0 71.5 -28t19.5 -76z" />
    <glyph glyph-name="cid502" unicode="&#x3b8;" horiz-adv-x="727" 
d="M351 -19q-85 -3 -144.5 19.5t-97 62.5t-55 93t-17.5 110q0 217 89.5 333t258.5 122q83 3 141 -19t94.5 -61.5t53 -91.5t16.5 -108q0 -217 -85.5 -335.5t-253.5 -124.5zM244 325v-51q0 -80 9 -127.5t24 -73.5t34.5 -34t40.5 -8q23 0 44 15t38 49.5t29 90.5t17 139h-236z
M383 672q-22 0 -43.5 -13.5t-39.5 -45t-31.5 -83.5t-19.5 -128h234v33q0 78 -8 125t-21.5 72t-32 32.5t-38.5 7.5z" />
    <glyph glyph-name="cid503" unicode="&#x3b9;" horiz-adv-x="420" 
d="M116 472q-22 -4 -45 -7t-48 -5v36q72 9 147.5 32t141.5 57h18l-33 -442q-3 -44 26 -51t82 28l12 -15q-24 -30 -52 -51.5t-56 -35.5t-55 -21t-49 -7q-56 0 -88 30t-27 100z" />
    <glyph glyph-name="cid504" unicode="&#x3ba;" horiz-adv-x="747" 
d="M115 422q1 21 -3.5 34t-13.5 19.5t-21 9t-25 2.5l1 32q43 1 81.5 8t71 15t58 14.5t43.5 6.5q14 0 18.5 -5.5t3.5 -14.5l-15 -203q28 50 62 89.5t70.5 67t74.5 42t76 14.5q20 0 38 -8t20 -21l-72 -143h-14l-41 107q-10 -1 -30.5 -15t-45.5 -36.5t-51.5 -51.5t-48.5 -61
q70 1 122 -4.5t86 -24t48.5 -52t10.5 -88.5q-2 -22 4.5 -37t20.5 -21t36 -1t51 23l11 -15q-24 -29 -54 -51t-61 -36t-60 -21t-51 -7q-109 0 -109 170q0 29 -2 54.5t-8.5 45t-19 33.5t-33.5 21q-13 -20 -24.5 -44t-13.5 -47l-15 -220l-206 -11z" />
    <glyph glyph-name="cid505" unicode="&#x3bb;" horiz-adv-x="759" 
d="M274 98q2 -42 -23 -62t-70 -20q-51 0 -95.5 23.5t-79.5 58.5l16 24q8 -6 19.5 -9.5t22.5 -3.5q8 0 15.5 6t6.5 17l12 190q6 97 70 144.5t181 41.5q63 -4 90 -39l3 91q3 111 -85 114q-22 1 -48 -3t-50 -16.5t-42.5 -35t-24.5 -58.5h-53q7 51 32 84t60 52t76.5 26.5
t82.5 7.5q79 0 130.5 -20t81 -53t40 -75t8.5 -85l-27 -471q1 -9 -3.5 -16t-17.5 -6q-17 1 -36 8.5t-43.5 16.5t-55 18t-70.5 13h-27v43h28q18 -2 24.5 13t4.5 32l17 264q-21 33 -43 40t-39 7q-22 -1 -42.5 -18t-24.5 -64z" />
    <glyph glyph-name="cid506" unicode="&#x3bc;" horiz-adv-x="775" 
d="M478 406q1 21 -3.5 33.5t-13 19t-20.5 9t-25 2.5l1 33q43 1 81 8t70 15t57 14t42 6q14 0 20 -8t5 -17l-31 -373q-3 -43 24.5 -53.5t80.5 24.5l13 -16q-24 -30 -52 -51t-56 -34.5t-55 -20t-49 -6.5q-39 0 -65.5 15t-38.5 47q-23 -32 -57.5 -48t-77.5 -18q-17 -1 -33 -1
t-31 2l-6 -95q-3 -38 -14.5 -59t-27 -31.5t-32 -13t-28.5 -2.5h-94l27 349q-2 19 1 36l20 257q1 11 -7 17t-16 6q-11 0 -22 -3.5t-19 -9.5l-16 24q35 35 87 58.5t103 23.5q45 0 72.5 -20t25.5 -62l-25 -347q-2 -23 1 -38.5t10 -25t16.5 -14t20.5 -4.5q10 0 26.5 2.5
t33.5 10.5t31.5 24t22.5 43z" />
    <glyph glyph-name="cid507" unicode="&#x3bd;" horiz-adv-x="686" 
d="M499 427q-2 22 -11 33t-29 9h-36l-1 41h37q36 3 61.5 11t45 16.5t34 15.5t28.5 7q13 1 21 -7.5t7 -17.5q0 -71 -12 -138t-33 -126.5t-49.5 -110t-61.5 -87.5q-41 -45 -91.5 -64.5t-107.5 -22.5q-54 -2 -95.5 13.5t-69 44.5t-40 69.5t-7.5 88.5l14 207q1 19 -1.5 33
t-10.5 20t-21 2t-32 -20l-15 27q27 35 72 54.5t88 19.5q27 0 51 -9t41 -25.5t26 -40t8 -53.5l-20 -301q-3 -45 11.5 -62t34.5 -19q29 -3 61.5 17t52.5 58q18 33 28.5 73.5t15.5 83.5t6 84t0 76z" />
    <glyph glyph-name="cid508" unicode="&#x3be;" horiz-adv-x="600" 
d="M340 716q-11 1 -23.5 -1.5t-21.5 -9.5t-12.5 -18.5t4.5 -29.5q2 -5 10.5 -14.5t13.5 -11.5q38 36 80.5 54t77.5 18q21 0 41 -5t20 -23q0 -17 -17.5 -33t-42 -29t-52 -21.5t-48.5 -9.5q-13 -14 -21 -26t-16 -35q-3 -10 -5.5 -23t-3.5 -26.5t0 -24.5t5 -16q29 12 57.5 19
t61.5 7q17 0 34 -2t30.5 -6.5t21.5 -11.5t8 -18q0 -25 -38 -38.5t-107 -13.5q-20 0 -38 3.5t-33 5.5q-45 -32 -69 -77t-24 -101q0 -71 14.5 -100.5t51.5 -29.5h89q90 0 130 -23t40 -85q0 -38 -13.5 -67.5t-42.5 -55.5q-10 -9 -30.5 -16.5t-46 -12.5t-53 -8t-50.5 -3
q-54 0 -77.5 10t-23.5 37q0 21 18.5 31t51.5 10q21 0 37 -5.5t35 -9.5q6 -1 11 5t9 16.5t6 23t2 24.5q0 32 -11.5 50t-29.5 18h-86q-57 0 -96.5 8.5t-65 29t-37 53.5t-11.5 83q0 33 11 64t30 58.5t44.5 51.5t54.5 42q-9 8 -14.5 19.5t-8.5 23.5t-4 23.5t-1 19.5q0 13 4 28
t10 30t13.5 27t15.5 19q-36 11 -53 29.5t-17 41.5q0 16 12 29t31 22.5t42 16t45.5 10.5t41.5 5t29 -1v-24z" />
    <glyph glyph-name="cid509" unicode="&#x3bf;" horiz-adv-x="689" 
d="M45 237q0 85 31.5 143.5t79.5 95t104.5 52.5t107.5 16q56 0 106 -14.5t88 -44.5t60 -77.5t22 -113.5q0 -85 -31.5 -143.5t-79.5 -95t-104.5 -52.5t-107.5 -16q-56 0 -106 14.5t-88 44.5t-60 77.5t-22 113.5zM248 208q0 -88 16 -139t58 -51q18 0 38.5 16.5t38.5 52.5
t30 94t12 142q0 88 -16 138.5t-58 50.5q-18 0 -38.5 -16t-38.5 -52t-30 -94t-12 -142z" />
    <glyph glyph-name="cid510" unicode="&#x3c0;" horiz-adv-x="800" 
d="M617 152q-1 -19 5 -32.5t19.5 -18.5t33 0.5t45.5 23.5l17 -22q-27 -32 -56.5 -54t-59 -36.5t-56 -21t-47.5 -6.5q-51 0 -75 34.5t-18 109.5l27 332q1 19 -9 23h-91q-8 -5 -9 -23l-33 -365q-3 -35 -15 -54.5t-27 -28.5t-31.5 -11t-28.5 -2h-93l34 461q1 19 -9 23h-79v48
h698v-48h-105q-8 -5 -9 -23z" />
    <glyph glyph-name="cid511" unicode="&#x3c1;" horiz-adv-x="730" 
d="M450 549q45 0 88 -15t76 -44t53.5 -71t22.5 -96q2 -66 -15.5 -125t-54.5 -104t-92 -73t-128 -32q-29 -2 -57 6t-51 34l-14 -235q-2 -20 -15 -35.5t-33 -26t-44.5 -15.5t-48.5 -5q-33 0 -51 13.5t-17 39.5l32 471q5 89 33.5 151.5t76.5 98.5q15 12 36.5 23t50 20
t66.5 14.5t86 5.5zM414 494q-26 0 -44.5 -14.5t-30.5 -38.5t-18.5 -56t-8.5 -67l-17 -253q17 -23 37 -30t35 -7q27 1 50 19t40.5 55.5t28 96t12.5 139.5q2 27 -3 55t-15.5 50.5t-27 36.5t-38.5 14z" />
    <glyph glyph-name="cid512" unicode="&#x3c3;" horiz-adv-x="689" 
d="M35 237q0 85 31.5 143.5t79.5 95t104.5 52.5t107.5 16h15.5t41.5 -0.5t94 -1t173 -0.5v-47h-144q44 -30 70 -79.5t26 -121.5q0 -85 -31.5 -143.5t-79.5 -95t-104.5 -52.5t-107.5 -16q-56 0 -106 14.5t-88 44.5t-60 77.5t-22 113.5zM238 208q0 -88 16 -139t58 -51
q18 0 38.5 16.5t38.5 52.5t30 94t12 142q0 88 -16 138.5t-58 50.5q-18 0 -38.5 -16t-38.5 -52t-30 -94t-12 -142z" />
    <glyph glyph-name="cid513" unicode="&#x3c4;" horiz-adv-x="600" 
d="M363 152q-1 -19 5 -32.5t19.5 -18.5t33 0.5t45.5 23.5l17 -22q-27 -32 -56.5 -54t-59 -36.5t-56 -21t-47.5 -6.5q-51 0 -75 34.5t-18 109.5l26 333q1 19 -9 23h-128v48h488v-48h-149q-8 -5 -9 -23z" />
    <glyph glyph-name="cid514" unicode="&#x3c5;" horiz-adv-x="775" 
d="M478 406q1 21 -3.5 33.5t-13 19t-20.5 9t-25 2.5l1 33q43 1 81 8t70 15t57 14t42 6q14 0 20 -8t5 -17l-31 -373q-3 -43 24.5 -53.5t80.5 24.5l13 -16q-24 -30 -52 -51t-56 -34.5t-55 -20t-49 -6.5q-39 0 -65.5 15t-38.5 47q-23 -32 -57.5 -48t-77.5 -18
q-61 -3 -107.5 7.5t-77.5 34t-44.5 59.5t-8.5 84l20 257q1 11 -7 17t-16 6q-11 0 -22 -3.5t-19 -9.5l-16 24q35 35 87 58.5t103 23.5q45 0 72.5 -20t25.5 -62l-25 -347q-2 -23 1 -38.5t10 -25t16.5 -14t20.5 -4.5q10 0 26.5 2.5t33.5 10.5t31.5 24t22.5 43z" />
    <glyph glyph-name="cid515" unicode="&#x3c6;" horiz-adv-x="800" 
d="M218 238q0 -60 19.5 -102t54.5 -64l21 297q4 53 20 87t42 53.5t60.5 27t73.5 7.5q12 0 28 -2t33 -6.5t34.5 -10.5t32.5 -15q69 -40 99.5 -93.5t30.5 -122.5q0 -71 -27.5 -119.5t-72 -80.5t-99.5 -49t-110 -23l-10 -124q-2 -33 -11.5 -54t-23 -34t-29 -18t-29.5 -5h-83
l16 235q-53 8 -99.5 26.5t-81.5 48.5t-55.5 72t-20.5 98q0 54 15.5 96t40.5 73.5t57 52.5t65 34t63.5 17.5t53.5 2.5v-34q-12 1 -30 -9t-35.5 -40t-30 -83.5t-12.5 -138.5zM462 71q24 11 45.5 30.5t38 49.5t26 72.5t9.5 99.5q0 48 -12 87t-44 62q-16 11 -24.5 -2.5
t-12.5 -68.5z" />
    <glyph glyph-name="cid516" unicode="&#x3c7;" horiz-adv-x="687" 
d="M128 545q26 2 47 -1t37.5 -10t29.5 -17t22 -21q13 -15 22 -36.5t14.5 -45.5t7.5 -49t-1 -48l34 108q12 36 30.5 60t42 38t50.5 21t56 10q21 2 44.5 -2t46.5 -13t44 -22.5t37 -29.5l-9 -17q-31 15 -56.5 15t-45.5 -12t-34.5 -33.5t-23.5 -50.5q-13 -43 -25 -95.5
t-29 -115.5q-6 -18 -8.5 -51t0.5 -70.5t13 -75.5t29 -68q12 -20 29 -31t35 -14t34.5 1t28.5 15l21 -52q-3 -4 -12 -9t-21 -8.5t-25.5 -6t-25.5 -0.5q-10 1 -24 3.5t-29.5 9t-31 17.5t-28.5 29q-10 13 -19.5 31.5t-16.5 41t-10 48.5t1 55q-8 -44 -18 -76.5t-21 -56t-21 -39
t-17 -24.5q-30 -37 -68.5 -49t-79.5 -15q-9 0 -31 1t-48 7t-51 17.5t-40 31.5l11 20q21 -13 39.5 -13.5t34 5.5t27.5 15.5t20 18.5q34 37 58 105t51 162q2 11 3 32t1 47.5t-1.5 55.5t-4.5 56t-8 49t-12 35q-14 23 -29.5 40t-29.5 16l-39 -78h-13l-75 107q0 4 10 9.5t23 10
t26.5 8t21.5 4.5z" />
    <glyph glyph-name="cid517" unicode="&#x3c8;" horiz-adv-x="800" 
d="M89 476q2 15 -6.5 20t-17.5 5h-23v44h221q15 0 19.5 -7.5t3.5 -18.5l-21 -244q-8 -86 10 -128.5t69 -53.5l32 451h173l-35 -442q22 7 43.5 19.5t38.5 32t28 47.5t14 67l16 197q2 20 -3.5 27.5t-23.5 7.5h-27v45h177v-45h-26q-20 0 -26.5 -6.5t-10.5 -32.5l-16 -195
q-4 -53 -20.5 -90.5t-41.5 -63t-57.5 -40.5t-68.5 -22l-12 -152q-2 -33 -11.5 -54t-23 -34t-29 -18t-29.5 -5h-83l18 253q-284 15 -267 235z" />
    <glyph glyph-name="cid518" unicode="&#x3c9;" horiz-adv-x="800" 
d="M401 452q13 0 26 -8t23 -27.5t16 -52.5t6 -84q0 -35 -6 -70t-8 -71q1 -22 9 -39t18 -29t20.5 -18t18.5 -6q18 0 34 9t27.5 30t18 56.5t6.5 89.5q0 51 -11 98.5t-28 86t-38.5 65t-43.5 34.5l19 36q56 -3 105.5 -31.5t87 -73.5t59.5 -102.5t22 -117.5q0 -42 -13.5 -84.5
t-43.5 -77t-78.5 -56t-118.5 -21.5q-43 0 -72 10.5t-50 33.5q-21 -23 -55 -33.5t-77 -10.5q-71 0 -119.5 21.5t-78.5 56t-43.5 77t-13.5 84.5q0 59 22 116.5t59.5 103t87.5 74t106 31.5l19 -36q-22 -8 -43.5 -34.5t-39 -65.5t-28.5 -86.5t-11 -98.5q0 -54 6.5 -89.5
t18.5 -56.5t28 -29.5t34 -8.5q8 0 18 6t20 18t17.5 29t10.5 39q-2 36 -8.5 70.5t-6.5 69.5q0 51 6.5 84t16.5 53t23 28t26 8z" />
    <glyph glyph-name="cid1026" unicode="&#x401;" horiz-adv-x="644" 
d="M105 631q2 15 -6 20t-16 5h-45v44h585v-48h-311l-24 -261h276v-47h-280l-26 -295h341v-49h-484q-29 0 -45 18t-14 41zM173 822q0 35 21.5 56t53.5 21q34 0 55.5 -21t21.5 -56t-21.5 -57.5t-55.5 -22.5q-32 0 -53.5 22.5t-21.5 57.5zM408 822q0 35 21 56t53 21
q34 0 56 -21t22 -56t-22 -57.5t-56 -22.5q-32 0 -53 22.5t-21 57.5z" />
    <glyph glyph-name="cid1020" unicode="&#x410;" horiz-adv-x="758" 
d="M318 562l-98 -262h166zM140 83q-8 -14 -2 -25.5t29 -11.5h26v-46h-195v46h28q23 0 34.5 7.5t23.5 33.5l234 613h105q23 0 39.5 -18t24.5 -44l143 -492q12 -42 41 -47t73 24l16 -23q-54 -63 -111.5 -89t-99.5 -26q-23 0 -40 9t-29 22.5t-19.5 29t-11.5 29.5l-48 180h-199z
" />
    <glyph glyph-name="cid1021" unicode="&#x411;" horiz-adv-x="750" 
d="M463 411q40 0 80.5 -11.5t72.5 -35.5t52.5 -61t21.5 -87q1 -69 -27 -122.5t-97 -83.5q-17 -8 -50 -12.5t-70 -6t-72.5 0t-56.5 5.5q-20 3 -42 12.5t-43 22.5q-14 -18 -33 -25t-40 -7h-100l48 626q3 28 -25 28h-45v46h598v-17l-23 -123l-18 -4l-84 97h-208l-17 -242h178z
M261 106q-2 -9 -3.5 -17t-3.5 -15q14 -8 30.5 -16t36.5 -13q49 -9 80 4t49 39.5t25 62.5t7 72q0 41 -10 68.5t-29 44t-45.5 23.5t-59.5 8h-57z" />
    <glyph glyph-name="cid1022" unicode="&#x412;" horiz-adv-x="740" 
d="M107 628q3 28 -25 28h-45v44h423q44 0 81.5 -9.5t65.5 -30.5t43.5 -55t15.5 -83q0 -59 -30 -96t-80 -57q25 -6 48.5 -18.5t42.5 -32.5t30.5 -47.5t12.5 -64.5q1 -69 -27 -117.5t-97 -78.5q-17 -8 -50 -12.5t-70 -6t-72.5 0t-56.5 5.5q-20 3 -42 12.5t-43 22.5
q-14 -18 -33 -25t-40 -7h-100zM261 106q-2 -9 -3.5 -17t-3.5 -15q14 -8 30.5 -16t36.5 -13q49 -9 80 2.5t49 36t25 59t7 70.5q0 41 -10.5 67t-29.5 41t-46 20.5t-60 6.5h-57zM303 657l-20 -265h48q64 0 99.5 23t38.5 81q2 40 -1.5 70t-15.5 50.5t-35.5 30.5t-61.5 10h-52z
" />
    <glyph glyph-name="cid1023" unicode="&#x413;" horiz-adv-x="614" 
d="M101 631q2 15 -6.5 20t-17.5 5h-43v44h575v-48h-299l-49 -584q-2 -21 -15.5 -36t-33.5 -25t-44.5 -15t-47.5 -5q-68 0 -67 51z" />
    <glyph glyph-name="cid1024" unicode="&#x414;" horiz-adv-x="870" 
d="M72 46q16 1 41 20.5t50 60.5t46.5 106.5t32.5 159.5l26 236q1 19 -9 23h-103v48h698v-48h-60q-8 -5 -9 -23l-55 -557q-2 -14 2 -20t18 -6h100v-18l-19 -139l-15 -4l-89 114h-601l-89 -114l-15 4l-19 139v18h69zM521 46q13 1 16 25l55 558q1 19 -9 23h-112q-8 -5 -9 -23
q-9 -104 -18 -190t-23.5 -156t-36.5 -124.5t-56 -96.5q-15 -16 1 -16h192z" />
    <glyph glyph-name="cid1025" unicode="&#x415;" horiz-adv-x="644" 
d="M105 631q2 15 -6 20t-16 5h-45v44h585v-48h-311l-24 -261h276v-47h-280l-26 -295h341v-49h-484q-29 0 -45 18t-14 41z" />
    <glyph glyph-name="cid1027" unicode="&#x416;" 
d="M424 352q-17 -1 -35.5 -1.5t-23.5 -3.5q-15 -10 -22 -35.5t-10 -58t-4.5 -65.5t-5.5 -58q-13 -81 -44.5 -112t-76.5 -31q-22 0 -47.5 7t-52 21.5t-53 37t-48.5 54.5l15 20q46 -35 69.5 -26t31.5 44q8 28 21.5 66t32.5 73.5t45 63t59 34.5q12 2 20 4t17.5 3.5t24 2.5
t39.5 1l-174 216q-17 15 -29.5 24t-23 13.5t-21 6t-22.5 1.5h-34v46h224v-46h-34q-11 0 -13 -6.5t12 -20.5l169 -214l22 216q2 14 -3.5 19.5t-16.5 5.5h-31v46h265v-46h-30q-8 0 -12 -5.5t-6 -19.5l-21 -209l197 207q14 14 12 20.5t-13 6.5h-34v46h224v-46h-34
q-12 0 -22.5 -1.5t-21 -6t-23 -13.5t-29.5 -24l-214 -216q25 0 41 -1t27.5 -2.5t21 -3.5t21.5 -4q33 -7 56 -34.5t38.5 -63t25.5 -73.5t18 -66q4 -17 8.5 -28.5t13 -15t22.5 2t37 23.5l15 -20q-45 -63 -91 -91.5t-90 -28.5q-45 0 -76.5 31t-44.5 112q-4 25 -5.5 58
t-4.5 65.5t-10 58t-22 35.5q-6 3 -19.5 4t-29.5 1l-28 -280q-2 -14 2 -20t18 -6h29v-46h-265v46h30q9 0 13.5 5.5t6.5 19.5z" />
    <glyph glyph-name="cid1028" unicode="&#x417;" horiz-adv-x="600" 
d="M77 595q23 44 52 69t61 37t65 14.5t65 2.5q68 -1 113.5 -14t73 -36.5t39.5 -55.5t12 -71q0 -35 -9.5 -61t-25.5 -46t-38 -33.5t-47 -22.5q55 -21 91.5 -65t36.5 -108q0 -71 -36 -124.5t-125 -78.5q-32 -9 -66.5 -13.5t-67 -4.5t-60.5 3.5t-48 9.5q-32 9 -57.5 24.5
t-44 33t-30 34t-15.5 27.5l107 94l15 -7v-144q31 -15 67.5 -20t70.5 9q37 14 57.5 55.5t21.5 113.5q0 24 -6.5 49t-22.5 45t-42 33t-64 15h-45v45h29q65 0 106.5 33t43.5 105q2 58 -16 89.5t-63 36.5q-30 4 -55.5 -3t-45 -21t-33.5 -33t-23 -38z" />
    <glyph glyph-name="cid1029" unicode="&#x418;" horiz-adv-x="820" 
d="M163 616q2 20 -3.5 29.5t-24.5 9.5h-46v45h217v-45h-48q-16 0 -29 -9.5t-11 -29.5l-36 -402l365 486h187l-52 -612q-2 -26 3 -37t26 -11h46v-40h-220v40h37q20 0 35 14t18 34l35 472l-346 -470q-38 -51 -70.5 -70.5t-61.5 -19.5h-76z" />
    <glyph glyph-name="cid1030" unicode="&#x419;" horiz-adv-x="820" 
d="M371 856q-3 -17 -2 -33t7 -28.5t18.5 -20.5t33.5 -8q44 0 67 26.5t31 64.5h71q-2 -36 -13 -68t-32 -56t-52.5 -38t-76.5 -14q-72 0 -105 47.5t-18 127.5h71zM163 616q2 20 -3.5 29.5t-24.5 9.5h-46v45h217v-45h-48q-16 0 -29 -9.5t-11 -29.5l-36 -402l365 486h187
l-52 -612q-2 -26 3 -37t26 -11h46v-40h-220v40h37q20 0 35 14t18 34l35 472l-346 -470q-38 -51 -70.5 -70.5t-61.5 -19.5h-76z" />
    <glyph glyph-name="cid1031" unicode="&#x41a;" horiz-adv-x="768" 
d="M591 623q-24 0 -40.5 -11t-29.5 -28.5t-23.5 -38.5t-21.5 -41q-11 -19 -27 -38t-35.5 -34.5t-40.5 -26t-42 -12.5q25 0 50 -1t47.5 -2.5t41 -3.5t30.5 -4q33 -7 56 -34.5t38.5 -63t25.5 -73.5t18 -66q8 -35 36 -44t75 26l15 -20q-23 -32 -50.5 -54.5t-56 -37t-55.5 -21.5
t-49 -7q-23 0 -43.5 7t-38 24t-30.5 44t-19 68q-4 25 -11.5 58t-18 65.5t-24 58t-28.5 35.5q-7 4 -24.5 4.5t-36.5 1.5l-26 -284q-2 -21 -14.5 -36t-31 -25t-42 -15t-46.5 -5q-65 0 -64 51l52 592q2 15 -6.5 20t-17.5 5h-43v44h245q15 0 20.5 -8t3.5 -19l-20 -229
q31 5 70 34.5t69 86.5q14 28 30 51t36 40t45.5 27.5t59.5 14.5q37 4 62.5 0t41.5 -11t24 -15.5t10 -13.5l-85 -149h-16z" />
    <glyph glyph-name="cid1032" unicode="&#x41b;" horiz-adv-x="800" 
d="M272 -82q-5 -52 -26.5 -85.5t-52 -53t-67.5 -27.5t-71 -8q-53 -1 -93 15t-69.5 45.5t-48.5 69.5t-29 87l152 12l7 -10l-54 -115q5 -13 15 -22.5t22.5 -15.5t25 -8.5t21.5 -1.5q13 1 24 5.5t19 15t13.5 30t8.5 52.5l75 720q2 15 -5.5 23t-21.5 8h-40v46h699v-46h-40
q-8 0 -12 -5.5t-6 -19.5l-55 -557q-2 -14 2 -20t18 -6h39v-46h-328v46h40q9 0 13.5 5.5t6.5 19.5l55 558q2 14 -3.5 19.5t-16.5 5.5h-124q-15 0 -18 -5.5t-5 -19.5z" />
    <glyph glyph-name="cid1033" unicode="&#x41c;" horiz-adv-x="977" 
d="M688 700h252v-43h-35q-14 0 -22.5 -5t-10.5 -27l-46 -473q-1 -19 5 -32.5t19.5 -18.5t33 0.5t45.5 23.5l17 -22q-27 -32 -56.5 -54t-59 -36.5t-56 -21t-47.5 -6.5q-51 0 -75.5 34.5t-17.5 109.5l40 428l-271 -539h-23q-7 0 -15 2.5t-16 10.5t-16 23t-15 41l-120 422
l-36 -430q-2 -20 4.5 -33.5t30.5 -13.5h31v-40h-212v40h46q23 0 33.5 11.5t12.5 37.5l48 542q1 8 -3 17t-18 9h-35v43h248l115 -443z" />
    <glyph glyph-name="cid1034" unicode="&#x41d;" horiz-adv-x="809" 
d="M523 330h-243l-25 -265q-2 -21 -14.5 -35.5t-31.5 -24t-42.5 -14t-46.5 -4.5q-66 0 -65 51l55 590q2 14 -5 21.5t-18 7.5h-45v43h249q9 0 17 -7t6 -18l-29 -298h243l24 251q2 14 -4 21.5t-17 7.5h-47v43h249q8 0 15.5 -7t5.5 -18l-57 -610q-2 -21 -14.5 -35.5t-32 -24
t-43 -14t-47.5 -4.5q-65 0 -64 51z" />
    <glyph glyph-name="cid1035" unicode="&#x41e;" horiz-adv-x="791" 
d="M380 -10q-88 -1 -153 20t-107.5 58.5t-63.5 89t-21 113.5q0 106 27 188t76.5 137.5t119.5 84t156 28.5q90 0 154.5 -20.5t106 -56.5t61 -85.5t19.5 -109.5q0 -214 -96.5 -329.5t-278.5 -117.5zM412 664q-27 0 -57.5 -16.5t-56.5 -60t-43.5 -118.5t-17.5 -192
q0 -76 13 -123t34 -73.5t46.5 -36t50.5 -9.5q27 0 56.5 18.5t53.5 64t40 122t16 193.5q0 76 -11.5 121.5t-30.5 70t-43.5 32t-49.5 7.5z" />
    <glyph glyph-name="cid1036" unicode="&#x41f;" horiz-adv-x="814" 
d="M124 629q1 19 -9 23h-59v48h738v-48h-60q-8 -5 -9 -23l-55 -557q-2 -14 2 -20t18 -6h29v-46h-292v46h30q9 0 13.5 5.5t6.5 19.5l55 558q1 19 -9 23h-196q-8 -5 -9 -23l-55 -557q-2 -14 2 -20t18 -6h29v-46h-293v46h30q9 0 13.5 5.5t6.5 19.5z" />
    <glyph glyph-name="cid1037" unicode="&#x420;" horiz-adv-x="730" 
d="M106 628q2 14 -5 21.5t-18 7.5h-47v43h392q54 0 103 -11.5t85.5 -36.5t58 -63t20.5 -91q-2 -68 -27.5 -117t-71 -80t-109 -45.5t-140.5 -14.5h-78l-15 -175q-2 -21 -14.5 -35.5t-31.5 -24t-42.5 -14t-46.5 -4.5q-65 0 -64 51zM322 658q-17 0 -18 -22l-31 -351h25
q15 0 35.5 1t42 7.5t42.5 19.5t37.5 37t27 60.5t10.5 90.5q0 31 -5.5 59t-18 50t-34 35t-54.5 13h-59z" />
    <glyph glyph-name="cid1038" unicode="&#x421;" horiz-adv-x="663" 
d="M316 -13q-55 -1 -105.5 20t-89 59.5t-61.5 93.5t-23 122q0 114 30.5 193.5t83.5 131t123.5 76.5t151.5 30q29 1 66.5 -1.5t73 -9t65 -16.5t42.5 -23l-72 -158h-15l-50 152q-4 3 -16 5t-27 3.5t-31.5 2t-28.5 0.5q-41 -2 -78 -28t-65 -73.5t-43 -114t-11 -150.5
q5 -88 53.5 -138.5t126.5 -58.5q21 -2 51.5 1t62 11t58 20t39.5 27l16 -21q-14 -23 -38 -50t-63 -50t-94.5 -39t-131.5 -17z" />
    <glyph glyph-name="cid1039" unicode="&#x422;" horiz-adv-x="682" 
d="M232 623q1 10 -3.5 19.5t-22.5 9.5h-188v48h646v-48h-194q-14 0 -20.5 -6t-8.5 -23l-51 -554q-2 -21 -15.5 -36t-34 -25t-45 -15t-47.5 -5q-69 0 -68 51z" />
    <glyph glyph-name="cid1040" unicode="&#x423;" horiz-adv-x="759" 
d="M294 343q-2 -23 1 -38.5t9.5 -25t16 -14t20.5 -4.5q9 0 22 1t27 6t28 14t25 26l22 274q2 17 -4.5 32t-24.5 13h-28v43h27q40 4 73.5 13t61 18t49 16.5t38.5 8.5q13 1 17.5 -6t3.5 -16l-33 -490q-4 -53 -24.5 -96.5t-60 -75t-98.5 -48.5t-139 -17q-51 0 -93.5 11
t-73.5 34.5t-47.5 61.5t-16.5 93h53q-2 -72 37.5 -105t111.5 -34q60 -1 97 36.5t43 118.5l4 59q-22 -18 -50 -27.5t-60 -11.5q-121 -6 -181.5 42t-49.5 144l14 200q1 11 -6.5 17t-15.5 6q-11 0 -22.5 -3.5t-19.5 -9.5l-16 24q35 35 84.5 58.5t100.5 23.5q45 0 72.5 -20
t25.5 -62z" />
    <glyph glyph-name="cid1041" unicode="&#x424;" horiz-adv-x="830" 
d="M20 317q0 61 24.5 108.5t67.5 82t101.5 56t127.5 29.5l4 36q2 14 -3.5 19.5t-16.5 5.5h-41v46h306v-46h-40q-8 0 -12 -5.5t-6 -19.5l-4 -35q82 -8 136.5 -29.5t87 -50t45.5 -61t13 -62.5q0 -62 -23.5 -111.5t-67 -86t-104 -59t-135.5 -30.5l-3 -32q-2 -14 2 -20t18 -6h39
v-46h-306v46h40q9 0 13.5 5.5t6.5 19.5l3 34q-83 9 -136 32t-83.5 52.5t-42 63t-11.5 64.5zM612 387q0 55 -20.5 94.5t-68.5 58.5l-38 -383q24 8 47 24.5t40.5 43.5t28.5 66.5t11 95.5zM212 323q0 -62 22.5 -101t64.5 -58l36 370q-24 -10 -46 -26.5t-39 -42t-27.5 -60.5
t-10.5 -82z" />
    <glyph glyph-name="cid1042" unicode="&#x425;" horiz-adv-x="761" 
d="M330 231l-123 -164q-6 -8 -6 -15.5t13 -7.5h46v-44h-239v44h45q13 1 24.5 2.5t22.5 6.5t23 15t27 28l143 192l-147 345q-7 14 -13.5 19.5t-28.5 3.5h-55v44h284l95 -230l124 167q8 10 3.5 16t-17.5 5l-38 -1v43h224v-44h-40q-19 -1 -29 -2.5t-17 -6t-15 -14t-23 -27.5
l-147 -195l141 -339q6 -16 18.5 -21.5t25.5 -5.5h55v-45h-200q-14 0 -29 3.5t-30.5 13.5t-30 27.5t-26.5 46.5z" />
    <glyph glyph-name="cid1043" unicode="&#x426;" horiz-adv-x="870" 
d="M699 70q-1 -19 9 -23h142v-19l-19 -139l-15 -4l-89 114h-698v48h60q8 5 9 23l55 557q2 14 -2 20t-18 6h-29v46h292v-46h-30q-9 0 -13.5 -5.5t-6.5 -19.5l-55 -558q-1 -19 9 -23h196q8 5 9 23l55 557q2 14 -2 20t-18 6h-29v46h293v-46h-30q-9 0 -13.5 -5.5t-6.5 -19.5z
" />
    <glyph glyph-name="cid1044" unicode="&#x427;" horiz-adv-x="770" 
d="M647 41q-2 -21 2.5 -34t13.5 -19.5t21 -9t26 -2.5l-2 -32q-43 -2 -81 -9t-70.5 -14.5t-58 -14t-43.5 -6.5q-14 0 -18.5 5.5t-3.5 14.5l21 320q-71 -33 -135 -57.5t-111 -24.5q-51 0 -78 29t-24 78l21 293q3 44 -22 55.5t-79 -23.5l-10 16q49 58 106 84t101 26
q57 0 86.5 -31.5t24.5 -102.5l-23 -302q0 -17 9 -26.5t23 -9.5q8 0 22 3t29.5 7.5t32 10t30.5 11.5l28 431l206 11z" />
    <glyph glyph-name="cid1045" unicode="&#x428;" horiz-adv-x="1050" 
d="M722 47q8 5 9 23l55 557q2 14 -2 20t-18 6h-29v46h293v-46h-30q-9 0 -13.5 -5.5t-6.5 -19.5l-55 -558q-1 -19 9 -23h52v-48h-967v48h52q8 5 9 23l55 557q2 14 -2 20t-18 6h-29v46h292v-46h-30q-9 0 -13.5 -5.5t-6.5 -19.5l-55 -558q-1 -19 9 -23h115q8 5 9 23l55 557
q2 14 -2 20t-18 6h-29v46h293v-46h-30q-9 0 -13.5 -5.5t-6.5 -19.5l-55 -558q-1 -19 9 -23h113z" />
    <glyph glyph-name="cid1046" unicode="&#x429;" horiz-adv-x="1070" 
d="M722 47q8 5 9 23l55 557q2 14 -2 20t-18 6h-29v46h293v-46h-30q-9 0 -13.5 -5.5t-6.5 -19.5l-55 -558q-1 -19 9 -23h94v-19l-19 -139l-15 -4l-89 114h-886v48h52q8 5 9 23l55 557q2 14 -2 20t-18 6h-29v46h292v-46h-30q-9 0 -13.5 -5.5t-6.5 -19.5l-55 -558q-1 -19 9 -23
h115q8 5 9 23l55 557q2 14 -2 20t-18 6h-29v46h293v-46h-30q-9 0 -13.5 -5.5t-6.5 -19.5l-55 -558q-1 -19 9 -23h113z" />
    <glyph glyph-name="cid1047" unicode="&#x42a;" horiz-adv-x="800" 
d="M533 411q40 0 80.5 -11.5t72.5 -35.5t52.5 -61t21.5 -87q1 -69 -27 -122.5t-97 -83.5q-17 -8 -50 -12.5t-70 -6t-72.5 0t-56.5 5.5q-20 3 -42 12.5t-43 22.5q-14 -18 -33 -25t-40 -7h-100l48 626q3 25 -20 28h-45l-54 -88l-18 4l-23 113v17h429v-46h-74l-17 -243h178z
M331 106q-2 -9 -3.5 -17t-3.5 -15q14 -8 30.5 -16t36.5 -13q49 -9 80 4t49 39.5t25 62.5t7 72q0 41 -10 68.5t-29 44t-45.5 23.5t-59.5 8h-57z" />
    <glyph glyph-name="cid1048" unicode="&#x42b;" horiz-adv-x="1050" 
d="M483 411q40 0 79 -11.5t69 -35.5t49 -61t20 -87q1 -69 -27 -122.5t-97 -83.5q-17 -8 -45.5 -12.5t-60 -6t-62 0t-51.5 5.5q-20 3 -42 12.5t-43 22.5q-14 -18 -28 -25t-35 -7h-90l48 626q3 28 -25 28h-40l-50 -88l-18 4l-17 113v17h399v-46h-74l-17 -243h158zM778 629
q2 14 -3.5 19.5t-16.5 5.5h-31v46h288v-46h-30q-8 0 -12 -5.5t-6 -19.5l-55 -557q-2 -14 2 -20t18 -6h29v-46h-288v46h30q9 0 13.5 5.5t6.5 19.5zM301 106q-2 -9 -3.5 -17t-3.5 -15q14 -8 30.5 -16t36.5 -13q36 -7 63 5.5t44 38t25.5 60.5t8.5 74q0 40 -10 67.5t-27 44.5
t-39.5 24.5t-47.5 7.5h-57z" />
    <glyph glyph-name="cid1049" unicode="&#x42c;" horiz-adv-x="800" 
d="M331 106q-2 -9 -3.5 -17t-3.5 -15q14 -8 30.5 -16t36.5 -13q49 -9 80 4t49 39.5t25 62.5t7 72q0 41 -10 68.5t-29 44t-45.5 23.5t-59.5 8h-57zM533 411q40 0 80.5 -11.5t72.5 -35.5t52.5 -61t21.5 -87q1 -69 -27 -122.5t-97 -83.5q-17 -8 -50 -12.5t-70 -6t-72.5 0
t-56.5 5.5q-20 3 -42 12.5t-43 22.5q-14 -18 -33 -25t-40 -7h-100l48 626q3 28 -25 28h-45v46h269l-21 -289h178z" />
    <glyph glyph-name="cid1050" unicode="&#x42d;" horiz-adv-x="800" 
d="M101 594q13 12 43.5 31.5t75 39t100 34.5t119.5 16q55 1 105.5 -20t89 -59.5t61.5 -93.5t23 -122q0 -114 -30.5 -193.5t-83.5 -131t-123.5 -77t-151.5 -29.5q-29 -2 -66.5 1t-73 9.5t-65 16.5t-42.5 23l22 38q49 -25 105 -35t113 -8q35 2 67.5 21.5t59 55t44.5 86
t24 114.5h-312v47h314v42q-3 44 -16 87t-35.5 77.5t-55 57t-73.5 26.5q-19 2 -50.5 -6t-60.5 -29l-40 -177h-15z" />
    <glyph glyph-name="cid1051" unicode="&#x42e;" horiz-adv-x="930" 
d="M604 -10q-78 -1 -131.5 23.5t-86 64.5t-47 91t-14.5 102v30t1 29h-56l-25 -265q-2 -21 -13 -35.5t-28 -24t-39 -14t-45 -4.5q-66 0 -65 51l55 590q2 14 -5 21.5t-18 7.5h-45v43h239q9 0 17 -7t6 -18l-29 -298h54q8 81 29 143t58.5 104t92 63.5t129.5 21.5q79 0 132 -24
t85 -62.5t45 -87.5t13 -98q0 -106 -14.5 -189t-49.5 -140t-95 -87t-150 -31zM636 664q-27 0 -48 -20.5t-36 -66.5t-23 -120t-8 -180q0 -129 23.5 -185.5t60.5 -56.5q27 0 47 22t33 70t19.5 123.5t6.5 182.5q0 64 -5 108.5t-14.5 71.5t-23.5 39t-32 12z" />
    <glyph glyph-name="cid1052" unicode="&#x42f;" horiz-adv-x="820" 
d="M715 66q-2 -21 -14.5 -35.5t-31.5 -24t-42.5 -14t-46.5 -4.5q-65 0 -64 51l15 278q-6 0 -16 -0.5t-20.5 -1.5t-20 -2.5t-13.5 -3.5q-15 -9 -28.5 -28.5t-24 -44.5t-18 -52t-11.5 -52q-6 -41 -22 -68t-37.5 -44t-46 -24t-47.5 -7q-65 0 -114 29t-94 92l14 20
q48 -35 84.5 -26.5t46.5 43.5q8 28 18 56.5t25 52.5t37.5 42t55.5 25l39 4q-47 5 -83 22t-59 43.5t-32 60.5t-2 73q4 41 27.5 73.5t61 55t86.5 34t106 11.5h373v-43h-45q-11 0 -18 -7.5t-5 -21.5zM504 658q-25 0 -49 -9t-43.5 -25.5t-32.5 -40t-17 -52.5q-9 -50 -1 -83
t24.5 -52.5t36.5 -27.5t34 -8h78l16 276q-1 12 -5 16.5t-13 5.5h-28z" />
    <glyph glyph-name="cid1053" unicode="&#x430;" horiz-adv-x="751" 
d="M628 144q-4 -43 21.5 -54.5t79.5 23.5l11 -16q-24 -30 -50.5 -50.5t-53.5 -34t-52.5 -19.5t-47.5 -6q-42 0 -68.5 15t-37.5 50q-17 -32 -49 -48.5t-71 -16.5q-55 0 -103 14t-83.5 44.5t-56 78t-20.5 113.5q0 85 29.5 143.5t74.5 95t99 52.5t102 16q47 0 81 -17t52 -51
l149 68h19zM446 456q1 12 -5.5 22t-17.5 17t-24 10.5t-26 3.5q-27 0 -50 -16t-40 -51t-27 -91t-10 -135q0 -43 3.5 -78.5t13 -60.5t25.5 -38.5t40 -13.5q9 0 21.5 2.5t26 9.5t26.5 20.5t22 34.5v13.5t1 14.5z" />
    <glyph glyph-name="cid1054" unicode="&#x431;" horiz-adv-x="700" 
d="M299 631q30 8 53.5 10t44 2.5t38 1.5t34.5 6q29 9 38.5 23t10.5 27h97q0 -38 -21.5 -68.5t-73.5 -49.5q-22 -8 -41.5 -10t-40 -2t-43.5 -1t-51 -6q-37 -6 -67 -32q46 12 91 12q56 0 106 -14.5t88 -44.5t60 -77.5t22 -113.5q0 -85 -31.5 -143.5t-79.5 -95t-104.5 -52.5
t-107.5 -16q-56 0 -106 14.5t-88 44.5t-60 77.5t-22 113.5v15t1 15v1q5 73 25 133t53 106.5t77.5 77.5t97.5 46zM248 208q0 -88 16 -139t58 -51q18 0 38.5 16.5t38.5 52.5t30 94t12 142q0 88 -16 138.5t-58 50.5q-18 0 -38.5 -16t-38.5 -52t-30 -94t-12 -142z" />
    <glyph glyph-name="cid1055" unicode="&#x432;" horiz-adv-x="740" 
d="M96 460q3 28 -25 28h-45v44h447q110 0 156 -37.5t40 -98.5q-2 -17 -9.5 -35t-21.5 -33t-34.5 -26t-47.5 -13q25 0 48 -6.5t41.5 -21t29.5 -37t12 -53.5q0 -22 -5.5 -45t-20 -44.5t-38.5 -40t-60 -31.5q-21 -8 -52 -12t-64.5 -4.5t-66.5 1t-58 6.5q-20 3 -42 13t-43 23
q-14 -18 -35.5 -27.5t-42.5 -9.5h-100zM261 106q-2 -9 -3.5 -19.5t-3.5 -17.5q14 -8 30.5 -15t36.5 -12q44 -10 74 -0.5t49 30.5t27 49.5t8 56.5q0 30 -9 48.5t-24 28t-33.5 13t-36.5 3.5h-103zM292 495l-15 -186h94q90 0 101 82q8 56 -15.5 80t-78.5 24h-86z" />
    <glyph glyph-name="cid1056" unicode="&#x433;" horiz-adv-x="544" 
d="M97 463q2 15 -6.5 20t-17.5 5h-43v44h500v-48h-239l-37 -416q-2 -21 -13.5 -36t-29.5 -25t-40.5 -15t-45.5 -5q-65 0 -64 51z" />
    <glyph glyph-name="cid1057" unicode="&#x434;" horiz-adv-x="820" 
d="M113 46q18 17 36.5 51t33.5 85.5t25 120.5t11 158q1 19 -9 23h-79v48h661v-48h-68q-8 -5 -9 -23l-38 -415h91v-18l-19 -139l-15 -4l-89 114h-512l-89 -114l-15 4l-19 139v18h103zM413 461q-5 -168 -34 -270.5t-78 -144.5h186l35 415q1 19 -9 23h-91q-9 -5 -9 -23z" />
    <glyph glyph-name="cid1058" unicode="&#x435;" horiz-adv-x="650" 
d="M308 -13q-49 0 -96 17.5t-83.5 51t-59 81t-22.5 107.5q0 75 27 131.5t72 94t103 56t121 18.5q58 0 102 -12t74 -31.5t45 -44.5t15 -51q0 -46 -27 -77t-75 -51.5t-114.5 -32t-145.5 -18.5q4 -30 18.5 -54.5t36.5 -42.5t49.5 -28t59.5 -10q49 0 87 16.5t71 45.5l15 -13
q-15 -36 -41 -64t-61 -48t-78.5 -30.5t-92.5 -10.5zM434 442q0 31 -15.5 50t-48.5 19q-26 0 -49 -18.5t-40.5 -52t-28 -80t-10.5 -101.5q47 7 83 25.5t60 44t36.5 55t12.5 58.5z" />
    <glyph glyph-name="cid1060" unicode="&#x436;" horiz-adv-x="950" 
d="M392 276q-45 -7 -68.5 -38t-23.5 -91t-15.5 -95.5t-40.5 -51t-56.5 -13t-64.5 18t-64 41t-54 57.5l11 15q58 -36 77 -28t15 52q-5 55 9 85.5t46.5 45.5t84 18t121.5 2q-21 1 -37.5 9.5t-29.5 21t-22 26.5t-13 28q-9 27 -16 44t-13 26.5t-11.5 13.5t-12.5 7l-45 -122h-16
l-79 152q2 5 10.5 14t26 16.5t43.5 10.5t62 -4q20 -3 34 -12t23.5 -22t17.5 -30t16 -37q11 -27 20 -45.5t19 -29.5t22 -17t30 -9l13 125q2 14 -3.5 19.5t-16.5 5.5h-31v46h265v-46h-30q-8 0 -12 -5.5t-6 -19.5l-12 -119q29 8 61.5 31t58.5 74q17 32 41.5 57t69.5 34
q36 7 62 4t43.5 -10.5t26 -16.5t10.5 -14l-89 -152h-16l-35 123q-9 -3 -16.5 -6.5t-15.5 -12t-18 -23.5t-23 -40q-9 -17 -24.5 -33t-36 -29.5t-45 -22t-51.5 -10.5q70 1 121.5 -2t84 -18t46 -45.5t9.5 -85.5q-4 -44 19.5 -52t82.5 28l11 -15q-24 -31 -55.5 -57t-65.5 -41.5
t-67 -18t-59 13t-42 50.5t-16 96q0 55 -20.5 83.5t-58.5 42.5l-20 -201q-2 -14 2 -20t18 -6h29v-46h-265v46h30q9 0 13.5 5.5t6.5 19.5z" />
    <glyph glyph-name="cid1061" unicode="&#x437;" horiz-adv-x="650" 
d="M82 425q19 40 51 64.5t69 37.5t75 17t71 4q48 -1 93 -8.5t80.5 -25t57.5 -45t22 -68.5q0 -26 -9.5 -44.5t-24.5 -30.5t-33.5 -19t-35.5 -11q24 -3 45 -14.5t37.5 -30.5t26 -44.5t9.5 -56.5q0 -19 -6 -40.5t-22 -42t-43 -38t-70 -28.5q-35 -9 -78 -12t-85.5 -1.5
t-79.5 6.5t-59 13q-69 25 -109 54.5t-48 53.5l108 70l15 -7l9 -114q35 -19 76.5 -25t81.5 1q18 3 36 10.5t31.5 21t22.5 34.5t9 51q0 24 -6 45.5t-20 38t-35.5 26.5t-51.5 10h-95v45h69q21 0 44.5 2.5t43.5 12t33 27.5t13 48q-2 82 -101 86q-30 1 -58.5 -6t-51.5 -20.5
t-40 -31.5t-26 -37z" />
    <glyph glyph-name="cid1062" unicode="&#x438;" horiz-adv-x="680" 
d="M121 448q2 20 -3.5 29.5t-24.5 9.5h-46v45h217v-45h-48q-16 0 -29 -9.5t-11 -29.5l-21 -264l302 348h162l-37 -444q-2 -26 3 -37t26 -11h46v-40h-220v40h37q20 0 35 14t18 34l23 314l-291 -350q-30 -33 -63.5 -42.5t-58.5 -9.5h-55z" />
    <glyph glyph-name="cid1063" unicode="&#x439;" horiz-adv-x="680" 
d="M295 704q-3 -17 -2 -33t7 -28.5t18.5 -20.5t33.5 -8q44 0 67 26.5t31 64.5h71q-2 -36 -13 -68t-32 -56t-52.5 -38t-76.5 -14q-72 0 -105 47.5t-18 127.5h71zM121 448q2 20 -3.5 29.5t-24.5 9.5h-46v45h217v-45h-48q-16 0 -29 -9.5t-11 -29.5l-21 -264l302 348h162
l-37 -444q-2 -26 3 -37t26 -11h46v-40h-220v40h37q20 0 35 14t18 34l23 314l-291 -350q-30 -33 -63.5 -42.5t-58.5 -9.5h-55z" />
    <glyph glyph-name="cid1064" unicode="&#x43a;" horiz-adv-x="750" 
d="M317 342q15 3 31.5 8.5t33 17.5t32.5 30.5t31 47.5q8 16 20 33.5t27 33.5t33.5 27.5t40.5 16.5q36 7 62 4t43.5 -10.5t26 -16.5t10.5 -14l-79 -152h-16l-45 122q-14 -3 -23.5 -8.5t-18 -17t-18 -30t-23.5 -45.5q-21 -41 -55.5 -63.5t-91.5 -26.5q70 1 124.5 -2.5
t90.5 -19.5t53 -47.5t13 -86.5q-4 -44 24.5 -52t87.5 28l11 -15q-24 -29 -54 -51t-61 -36t-60 -21t-51 -7q-56 0 -82.5 36.5t-26.5 121.5q0 59 -23.5 90t-66.5 45q-5 -13 -7 -30t-4 -40l-15 -210l-206 -11l30 432q1 21 -3.5 34t-13.5 19.5t-21 9t-25 2.5l1 32q43 1 81.5 8
t71 15t58 14.5t43.5 6.5q14 0 18.5 -5.5t3.5 -14.5z" />
    <glyph glyph-name="cid1065" unicode="&#x43b;" horiz-adv-x="781" 
d="M278 -35q-5 -52 -24.5 -85.5t-49 -53t-64.5 -27.5t-69 -8q-36 -1 -64.5 3.5t-49.5 19.5t-35.5 42.5t-24.5 72.5l46 11q12 -55 32.5 -74t44.5 -17q13 1 22 5t15 14.5t10.5 29.5t7.5 52l52 505q2 15 -5.5 23t-21.5 8h-40v46h699v-46h-40q-8 0 -12 -5.5t-6 -19.5l-39 -389
q-2 -14 2 -20t18 -6h39v-46h-328v46h40q9 0 13.5 5.5t6.5 19.5l39 390q2 14 -3.5 19.5t-16.5 5.5h-124q-15 0 -18 -5.5t-5 -19.5z" />
    <glyph glyph-name="cid1066" unicode="&#x43c;" horiz-adv-x="850" 
d="M572 530h252v-43h-35q-14 0 -22.5 -5t-10.5 -27l-30 -303q-1 -19 3.5 -32.5t16 -18.5t29.5 0.5t44 23.5l17 -22q-54 -63 -110.5 -90.5t-98.5 -27.5q-51 0 -75.5 34.5t-17.5 109.5l24 268l-205 -379h-16q-5 0 -12.5 1t-15.5 6.5t-16 16t-14 28.5l-105 323l-22 -306
q-2 -20 4.5 -33.5t30.5 -13.5h31v-40h-202v40h36q23 0 33.5 11.5t12.5 37.5l32 372q1 8 -3 17t-18 9h-35v43h238l95 -308z" />
    <glyph glyph-name="cid1067" unicode="&#x43d;" horiz-adv-x="800" 
d="M517 263h-243l-19 -198q-2 -21 -14.5 -35.5t-31.5 -24t-42.5 -14t-46.5 -4.5q-66 0 -65 51l37 422q2 14 -5 21.5t-18 7.5h-45v43h249q9 0 17 -7t6 -18l-17 -197h243l12 150q2 14 -4 21.5t-17 7.5h-47v43h249q8 0 15.5 -7t5.5 -18l-39 -442q-2 -21 -14.5 -35.5t-32 -24
t-43 -14t-47.5 -4.5q-65 0 -64 51z" />
    <glyph glyph-name="cid1068" unicode="&#x43e;" horiz-adv-x="690" 
d="M45 237q0 85 31.5 143.5t79.5 95t104.5 52.5t107.5 16q56 0 106 -14.5t88 -44.5t60 -77.5t22 -113.5q0 -85 -31.5 -143.5t-79.5 -95t-104.5 -52.5t-107.5 -16q-56 0 -106 14.5t-88 44.5t-60 77.5t-22 113.5zM248 208q0 -88 16 -139t58 -51q18 0 38.5 16.5t38.5 52.5
t30 94t12 142q0 88 -16 138.5t-58 50.5q-18 0 -38.5 -16t-38.5 -52t-30 -94t-12 -142z" />
    <glyph glyph-name="cid1069" unicode="&#x43f;" horiz-adv-x="750" 
d="M104 461q1 19 -9 23h-59v48h697v-48h-60q-8 -5 -9 -23l-39 -389q-2 -14 2 -20t18 -6h29v-46h-292v46h30q9 0 13.5 5.5t6.5 19.5l39 390q1 19 -9 23h-155q-8 -5 -9 -23l-39 -389q-2 -14 2 -20t18 -6h29v-46h-293v46h30q9 0 13.5 5.5t6.5 19.5z" />
    <glyph glyph-name="cid1070" unicode="&#x440;" horiz-adv-x="730" 
d="M471 544q45 0 84.5 -15t69 -43t46.5 -69t19 -94q2 -66 -15.5 -125t-54.5 -104t-92 -73t-128 -32q-29 -2 -57 3.5t-51 16.5l-14 -215q-2 -20 -15 -35.5t-33 -26t-44.5 -15.5t-48.5 -5q-33 0 -51 13.5t-17 39.5l42 617v14t-3 14.5t-9.5 11t-18.5 3.5q-17 -4 -32 -5t-31 -3
v38q72 9 149.5 31.5t143.5 57.5h19l-5 -67q22 30 58.5 48.5t88.5 18.5zM414 489q-26 0 -54.5 -18.5t-39.5 -57.5l-25 -368q17 -8 37 -12.5t35 -4.5q27 1 50 19t40.5 55.5t28 96t12.5 139.5q2 27 -3 54t-15.5 48.5t-27 35t-38.5 13.5z" />
    <glyph glyph-name="cid1071" unicode="&#x441;" horiz-adv-x="566" 
d="M270 -13q-43 0 -84 16.5t-73 48.5t-51.5 78.5t-19.5 106.5q0 76 28 133.5t76 96t111.5 58t134.5 19.5q18 0 40.5 -3t44.5 -9t42 -15.5t32 -22.5l-64 -154h-10l-57 166q-3 3 -13 3h-18q-27 0 -52.5 -18.5t-46 -51.5t-33 -79.5t-12.5 -103.5q0 -35 7.5 -65.5t22.5 -52.5
t36.5 -34.5t49.5 -12.5q35 0 75 12t75 35l13 -14q-33 -68 -99.5 -102.5t-154.5 -34.5z" />
    <glyph glyph-name="cid1072" unicode="&#x442;" horiz-adv-x="630" 
d="M212 455q1 10 -3.5 19.5t-22.5 9.5h-163v48h586v-48h-169q-14 0 -20.5 -6t-8.5 -23l-36 -386q-2 -21 -14 -36t-30.5 -25t-41.5 -15t-46 -5q-69 0 -68 51z" />
    <glyph glyph-name="cid1073" unicode="&#x443;" horiz-adv-x="760" 
d="M290 118q-2 -23 1 -38.5t9.5 -25t16 -14t20.5 -4.5q9 0 22 1t27 6t28 14t25 26l26 329q2 17 -4.5 32t-24.5 13h-28v43h27q40 4 73.5 13t61 18t49 16.5t38.5 8.5q13 1 17.5 -6t3.5 -16l-41 -592q-4 -53 -24.5 -96.5t-60 -75t-98.5 -48.5t-139 -17q-51 0 -93.5 11
t-73.5 34.5t-47.5 61.5t-16.5 93h53q-2 -72 37.5 -105t111.5 -34q60 -1 97 36.5t43 118.5l8 106q-22 -18 -50 -27.5t-60 -11.5q-121 -6 -181.5 42t-49.5 144l18 255q1 11 -6.5 17t-15.5 6q-11 0 -22.5 -3.5t-19.5 -9.5l-16 24q35 35 84.5 58.5t100.5 23.5q45 0 72.5 -20
t25.5 -62z" />
    <glyph glyph-name="cid1074" unicode="&#x444;" 
d="M375 19q-22 -26 -57.5 -33.5t-84.5 -7.5q-45 0 -84.5 15t-69 43t-47 69t-18.5 94q-2 66 17.5 126.5t57.5 106.5t93.5 73.5t124.5 27.5q32 0 60.5 -9.5t39.5 -24.5l11 168q2 42 -16.5 53.5t-46.5 11.5l2 32q43 1 81 8t70.5 15t58 14.5t43.5 6.5q13 0 17.5 -6t3.5 -14
l-21 -306q22 29 58 47t87 18q45 0 84.5 -15t69 -43t46.5 -69t19 -94q2 -66 -15.5 -125t-54.5 -104t-92 -73t-128 -32q-27 -2 -55.5 2.5t-48.5 12.5l-12 -213q-2 -20 -15 -35.5t-33 -26t-44.5 -15.5t-48.5 -5q-33 0 -51 16t-17 42zM289 33q25 0 51 7.5t39 39.5l25 379
q-10 13 -28.5 24t-39.5 11q-27 -1 -50 -19t-40 -55.5t-27.5 -96t-12.5 -139.5q-2 -27 3 -54t15.5 -48.5t27 -35t37.5 -13.5zM699 492q-26 0 -54 -18t-39 -56l-24 -370q17 -8 35.5 -12.5t32.5 -4.5q27 1 50 19t40.5 55.5t28.5 96t13 139.5q2 27 -3 54t-15.5 48.5t-27 35
t-37.5 13.5z" />
    <glyph glyph-name="cid1075" unicode="&#x445;" horiz-adv-x="690" 
d="M118 545q56 4 92 -8.5t59 -30.5q23 -21 38 -57t18 -72l14 48q12 34 30.5 57.5t40.5 38t46 22.5t48 11q21 3 44.5 0.5t46.5 -9.5t44 -19.5t37 -28.5l-9 -17q-31 15 -54.5 13.5t-41 -15t-30 -36.5t-21.5 -53q-13 -43 -28 -85t-32 -82q-2 -13 -2.5 -29.5t1 -34t6.5 -35
t15 -30.5q15 -23 34.5 -32.5t39.5 -9.5t39.5 8t33.5 22l21 -49q-6 -8 -28.5 -19t-46.5 -15q-11 -2 -29 -1.5t-37.5 5.5t-39 15.5t-32.5 29.5q-14 17 -20 39t-9 34q-14 -23 -29 -44.5t-31 -38.5q-19 -19 -42.5 -29.5t-47 -15.5t-43 -6.5t-29.5 -2.5q-9 0 -31 1t-48 7
t-51 17.5t-40 31.5l11 20q23 -14 45.5 -12t42 11.5t35 23t25.5 23.5q13 14 25 28t24 32t25 41.5t28 55.5q3 16 4.5 39t0 47.5t-7.5 48t-19 40.5q-15 20 -37 31t-42 15l-39 -78h-13l-75 107q0 4 8 9.5t19.5 10t23.5 8t20 4.5z" />
    <glyph glyph-name="cid1076" unicode="&#x446;" horiz-adv-x="830" 
d="M669 70q-1 -19 9 -23h142v-19l-19 -139l-15 -4l-89 114h-668v48h60q8 5 9 23l39 390q2 14 -2 20t-18 6h-29v46h292v-46h-30q-9 0 -13.5 -5.5t-6.5 -19.5l-39 -391q-1 -19 9 -23h166q8 5 9 23l39 390q2 14 -2 20t-18 6h-29v46h293v-46h-30q-9 0 -13.5 -5.5t-6.5 -19.5z
" />
    <glyph glyph-name="cid1077" unicode="&#x447;" horiz-adv-x="720" 
d="M647 41q-2 -21 2.5 -34t13.5 -19.5t21 -9t26 -2.5l-2 -32q-43 -2 -81 -9t-70.5 -14.5t-58 -14t-43.5 -6.5q-14 0 -18.5 5.5t-3.5 14.5l16 239q-71 -33 -135 -57.5t-111 -24.5q-51 0 -78 29t-24 78l14 200q3 44 -22 55.5t-79 -23.5l-10 16q49 58 106 84t101 26
q57 0 86.5 -31.5t24.5 -102.5l-16 -209q0 -17 9 -26.5t23 -9.5q8 0 22 3t29.5 7.5t32 10t30.5 11.5l21 338l206 11z" />
    <glyph glyph-name="cid1078" unicode="&#x448;" horiz-adv-x="1050" 
d="M722 47q8 5 9 23l39 390q2 14 -2 20t-18 6h-29v46h293v-46h-30q-9 0 -13.5 -5.5t-6.5 -19.5l-39 -391q-1 -19 9 -23h52v-48h-967v48h52q8 5 9 23l39 390q2 14 -2 20t-18 6h-29v46h292v-46h-30q-9 0 -13.5 -5.5t-6.5 -19.5l-39 -391q-1 -19 9 -23h115q8 5 9 23l39 390
q2 14 -2 20t-18 6h-29v46h293v-46h-30q-9 0 -13.5 -5.5t-6.5 -19.5l-39 -391q-1 -19 9 -23h113z" />
    <glyph glyph-name="cid1079" unicode="&#x449;" horiz-adv-x="1070" 
d="M722 47q8 5 9 23l39 390q2 14 -2 20t-18 6h-29v46h293v-46h-30q-9 0 -13.5 -5.5t-6.5 -19.5l-39 -391q-1 -19 9 -23h94v-19l-19 -139l-15 -4l-89 114h-886v48h52q8 5 9 23l39 390q2 14 -2 20t-18 6h-29v46h292v-46h-30q-9 0 -13.5 -5.5t-6.5 -19.5l-39 -391q-1 -19 9 -23
h115q8 5 9 23l39 390q2 14 -2 20t-18 6h-29v46h293v-46h-30q-9 0 -13.5 -5.5t-6.5 -19.5l-39 -391q-1 -19 9 -23h113z" />
    <glyph glyph-name="cid1080" unicode="&#x44a;" horiz-adv-x="690" 
d="M450 333q34 0 68.5 -9t62 -28.5t45 -49.5t18.5 -73q1 -59 -22.5 -99t-82.5 -66q-14 -7 -42 -10.5t-59.5 -5t-62 0t-48.5 4.5q-17 2 -35.5 10.5t-36.5 19.5q-12 -16 -28 -21.5t-34 -5.5h-85l36 481q1 21 -17 23h-38l-46 -74l-16 3l-19 96v15h364v-40h-62l-11 -171h151z
M280 90l-6 -28q12 -7 26 -13t31 -11q41 -8 67.5 1.5t42 30.5t21.5 49.5t6 59.5q0 35 -9 57.5t-25 35t-39 18t-51 5.5h-48z" />
    <glyph glyph-name="cid1081" unicode="&#x44b;" horiz-adv-x="880" 
d="M412 333q34 0 67 -9t58.5 -28.5t41.5 -49.5t17 -73q1 -54 -24 -97.5t-81 -69.5q-14 -6 -37.5 -9.5t-49.5 -4.5t-51.5 0.5t-43.5 4.5q-17 2 -35.5 10.5t-36.5 19.5q-12 -16 -28 -21.5t-34 -5.5h-85l36 481q1 21 -17 23h-31l-46 -74l-12 3l-13 96v15h347v-40h-62l-11 -171
h131zM665 484q2 12 -3 16.5t-14 4.5h-26v39h234v-39h-25q-7 0 -10.5 -4.5t-4.5 -16.5l-43 -422q-2 -12 1.5 -17t15.5 -5h24v-40h-234v40h25q8 0 11.5 4.5t5.5 16.5zM263 90l-6 -28q12 -7 26 -13t31 -11q23 -5 44.5 0.5t37.5 22.5t25.5 46t9.5 72q0 35 -9 57.5t-24 35
t-33.5 17.5t-37.5 6h-48z" />
    <glyph glyph-name="cid1082" unicode="&#x44c;" horiz-adv-x="630" 
d="M390 333q34 0 68.5 -9t62 -28.5t45 -49.5t18.5 -73q1 -59 -22.5 -99t-82.5 -66q-14 -7 -42 -10.5t-59.5 -5t-62 0t-48.5 4.5q-17 2 -35.5 10.5t-36.5 19.5q-12 -16 -28 -21.5t-34 -5.5h-85l36 481q1 23 -21 23h-39v40h229l-14 -211h151zM220 90l-6 -28q12 -7 26 -13
t31 -11q41 -8 67.5 1.5t42 30.5t21.5 49.5t6 59.5q0 35 -9 57.5t-25 35t-39 18t-51 5.5h-48z" />
    <glyph glyph-name="cid1083" unicode="&#x44d;" horiz-adv-x="590" 
d="M348 278q0 35 -8 72t-23 68t-36.5 50.5t-48.5 19.5q-14 0 -36 -6t-36 -19l-5 -120h-10l-76 94q32 48 100 77.5t154 29.5q43 0 84 -16.5t73 -48.5t51.5 -78.5t19.5 -106.5q0 -76 -28 -133.5t-76 -96t-111.5 -58t-134.5 -19.5q-18 0 -40.5 3t-44.5 9t-42 15.5t-32 22.5
l13 25q41 -24 77.5 -32t71.5 -8q24 0 48 15.5t44 44.5t33.5 69t17.5 90h-197v37h198z" />
    <glyph glyph-name="cid1084" unicode="&#x44e;" horiz-adv-x="830" 
d="M297 237v13t1 13h-51l-19 -198q-2 -21 -13 -35.5t-28 -24t-39 -14t-45 -4.5q-34 0 -45 12.5t-10 38.5l37 422q2 14 -5 21.5t-18 7.5h-45v43h229q9 0 17 -7t6 -18l-17 -197h50q10 64 38 108.5t65.5 72.5t82.5 40.5t90 12.5q112 0 173 -59t61 -191q0 -85 -25 -143.5
t-65 -95t-90 -52.5t-101 -16q-112 0 -173 59t-61 191zM478 208q0 -44 0.5 -79t5.5 -60t16 -38t32 -13q18 0 35.5 16.5t31.5 52.5t23 94t9 142q0 44 -0.5 79t-5.5 59.5t-16 37.5t-32 13q-18 0 -35.5 -16t-31.5 -52t-23 -94t-9 -142z" />
    <glyph glyph-name="cid1085" unicode="&#x44f;" horiz-adv-x="700" 
d="M601 68q-2 -18 -13 -30.5t-27.5 -20.5t-36.5 -12t-39 -4q-29 0 -47 10.5t-17 33.5l11 214q-11 -1 -31.5 -2t-28.5 -5q-26 -15 -43.5 -50.5t-23.5 -77.5q-6 -35 -19.5 -58t-31.5 -37.5t-39 -20.5t-40 -6q-27 0 -49.5 6t-42 19t-38 32t-37.5 46l12 17q40 -30 66.5 -22.5
t34.5 37.5q7 23 15 44t20.5 37.5t31 28t47.5 17.5l33 4q-75 8 -115.5 40.5t-39.5 76.5q0 45 20.5 74t54.5 45t80 22t97 6h313v-37h-38q-9 0 -15 -6t-5 -19zM396 496q-21 0 -40.5 -6t-34.5 -19.5t-23.5 -34.5t-8.5 -51q1 -45 22.5 -67t56.5 -22h66l10 181q-1 11 -4 14.5
t-11 4.5h-33z" />
    <glyph glyph-name="cid1059" unicode="&#x451;" horiz-adv-x="650" 
d="M308 -13q-49 0 -96 17.5t-83.5 51t-59 81t-22.5 107.5q0 75 27 131.5t72 94t103 56t121 18.5q58 0 102 -12t74 -31.5t45 -44.5t15 -51q0 -46 -27 -77t-75 -51.5t-114.5 -32t-145.5 -18.5q4 -30 18.5 -54.5t36.5 -42.5t49.5 -28t59.5 -10q49 0 87 16.5t71 45.5l15 -13
q-15 -36 -41 -64t-61 -48t-78.5 -30.5t-92.5 -10.5zM434 442q0 31 -15.5 50t-48.5 19q-26 0 -49 -18.5t-40.5 -52t-28 -80t-10.5 -101.5q47 7 83 25.5t60 44t36.5 55t12.5 58.5zM169 655q0 35 21.5 56t53.5 21q34 0 55.5 -21t21.5 -56t-21.5 -57.5t-55.5 -22.5
q-32 0 -53.5 22.5t-21.5 57.5zM404 655q0 35 21 56t53 21q34 0 56 -21t22 -56t-22 -57.5t-56 -22.5q-32 0 -53 22.5t-21 57.5z" />
    <glyph glyph-name="cid110" unicode="&#x2014;" horiz-adv-x="890" 
d="M787 418v-115h-675v115h675z" />
    <glyph glyph-name="cid110" unicode="&#x2015;" horiz-adv-x="890" 
d="M787 418v-115h-675v115h675z" />
    <glyph glyph-name="cid111" unicode="&#x2016;" 
d="M335 757h118v-842h-118v842zM546 757h118v-842h-118v842z" />
    <glyph glyph-name="cid111" unicode="&#x2225;" 
d="M335 757h118v-842h-118v842zM546 757h118v-842h-118v842z" />
    <glyph glyph-name="cid114" unicode="&#x2018;" horiz-adv-x="330" 
d="M102 771q13 20 32 40t43.5 34.5t54.5 21.5t65 2v-44q-45 3 -80.5 -19.5t-45.5 -69.5q-4 -12 0.5 -18t15.5 -3q44 4 70 -22t26 -67q1 -50 -30.5 -82t-82.5 -35q-18 -1 -37 4.5t-34 17t-25.5 29t-12.5 40.5q-3 19 -1 41.5t7.5 45.5t14.5 45t20 39z" />
    <glyph glyph-name="cid115" unicode="&#x2019;" horiz-adv-x="330" 
d="M230 607q-13 -20 -32 -40t-43.5 -34.5t-54.5 -21.5t-65 -2v44q45 -3 80.5 19.5t45.5 69.5q4 12 -0.5 18t-15.5 3q-22 -2 -40 4t-30.5 18t-19 29t-6.5 38q-1 50 30.5 82t82.5 35q18 1 37 -4.5t34 -17t25.5 -29t12.5 -40.5q3 -19 1 -41.5t-7.5 -45.5t-14.5 -45t-20 -39z
" />
    <glyph glyph-name="cid116" unicode="&#x201c;" horiz-adv-x="550" 
d="M88 771q13 20 32 39.5t42.5 33.5t52 21.5t61.5 3.5v-44q-45 3 -80 -20.5t-45 -70.5q-4 -12 0.5 -17.5t15.5 -2.5q44 4 68 -22.5t24 -67.5q0 -25 -8.5 -45t-23.5 -35t-35 -23.5t-42 -9.5q-18 -1 -36 5.5t-32 18.5t-23.5 29.5t-10.5 38.5q-5 38 6 85.5t34 82.5zM328 771
q13 20 32 39.5t42.5 33.5t52 21.5t61.5 3.5v-44q-45 3 -80 -20.5t-45 -70.5q-4 -12 0.5 -17.5t15.5 -2.5q44 4 68 -22.5t24 -67.5q0 -25 -8.5 -45t-23.5 -35t-35 -23.5t-42 -9.5q-18 -1 -36 5.5t-32 18.5t-23.5 29.5t-10.5 38.5q-5 38 6 85.5t34 82.5z" />
    <glyph glyph-name="cid117" unicode="&#x201d;" horiz-adv-x="550" 
d="M462 607q-13 -20 -32 -39.5t-42.5 -33.5t-52 -21.5t-61.5 -3.5v44q45 -3 80 20.5t45 70.5q4 12 -0.5 17.5t-15.5 2.5q-44 -5 -68 22t-24 68q0 25 8.5 45t23.5 35t34.5 23.5t42.5 9.5q18 1 36 -5.5t32 -18.5t23 -29.5t11 -38.5q5 -38 -6 -85.5t-34 -82.5zM222 607
q-13 -20 -32 -39.5t-42.5 -33.5t-52 -21.5t-61.5 -3.5v44q45 -3 80 20.5t45 70.5q4 12 -0.5 17.5t-15.5 2.5q-44 -5 -68 22t-24 68q0 25 8.5 45t23.5 35t34.5 23.5t42.5 9.5q18 1 36 -5.5t32 -18.5t23 -29.5t11 -38.5q5 -38 -6 -85.5t-34 -82.5z" />
    <glyph glyph-name="cid245" unicode="&#x2020;" horiz-adv-x="580" 
d="M249 394q-23 -5 -45.5 -13t-43.5 -18q-17 -8 -36.5 -6.5t-36.5 10t-28.5 23t-11.5 33.5q0 28 14.5 49t37.5 21q15 0 31 -12t16 -26q0 -18 2 -26.5t12 -8.5h30t19 0.5t15.5 1.5t19.5 3v8q-15 11 -21.5 26.5t-6.5 53.5q0 11 4 25t10.5 27.5t15 25t17.5 17.5v11
q-17 5 -29.5 18.5t-12.5 30.5q0 12 5.5 22.5t14 18.5t19 13t20.5 5q0 9 7 15t16.5 9.5t20 5t16.5 1.5q3 0 9.5 -1t14 -4t13 -9t5.5 -15q19 0 29.5 -14.5t10.5 -35.5q0 -14 -13 -32.5t-33 -27.5v-8q22 -12 29 -33t7 -42q0 -32 -13 -58.5t-33 -42.5v-8q14 1 24 4.5t19 7.5
t17.5 8t20.5 8q22 7 42.5 6.5t36.5 -8t25.5 -22t9.5 -34.5q0 -11 -5.5 -23t-14.5 -22.5t-20 -17.5t-22 -7q-15 0 -26 12t-11 26q0 18 -2 26.5t-12 8.5h-35.5t-22 -1t-14.5 -2t-13 -2l-4 -23l24 -41l-44 -465l-82 -77h-5l-66 77l16 456l43 51z" />
    <glyph glyph-name="cid246" unicode="&#x2021;" horiz-adv-x="580" 
d="M347 109q28 -20 28 -75q0 -11 -4 -25t-10.5 -27.5t-15 -25t-17.5 -17.5v-11q17 -5 29.5 -16.5t12.5 -28.5q0 -12 -5.5 -22.5t-14 -18.5t-19 -13t-20.5 -5q0 -9 -7 -15t-16.5 -9.5t-20 -5t-16.5 -1.5q-3 0 -9.5 1t-14 4t-13 9t-5.5 15q-19 0 -29.5 14.5t-10.5 35.5
q0 14 13 30.5t33 25.5v8q-22 12 -29 32t-7 37q0 28 13 57t33 46v8q-25 -3 -45 -13.5t-44 -14.5q-45 -8 -74.5 7t-29.5 55q0 37 14 51.5t38 14.5q15 0 27.5 -12t12.5 -26q0 -18 8 -27t18 -9q24 0 37.5 0.5t20.5 1.5t10 2l6 2l20 252q-30 -7 -50 -16t-41 -14q-18 -4 -36 -2
t-32.5 9.5t-23.5 21.5t-9 34q0 37 14.5 51.5t37.5 14.5q15 0 27.5 -12t12.5 -26q0 -18 7 -26.5t17 -8.5h35.5t20 1t11 1.5t8.5 2.5v8q-8 5 -13 11t-8.5 14t-5 20.5t-1.5 31.5q0 23 14 51t33 41v11q-17 5 -29.5 18.5t-12.5 30.5q0 12 5.5 22.5t14 18.5t19 13t20.5 5q0 9 7 15
t16.5 9.5t20 5t16.5 1.5q3 0 9.5 -1t14 -4t13 -9t5.5 -15q19 0 29.5 -14.5t10.5 -35.5q0 -14 -13 -32.5t-33 -27.5v-8q22 -12 29 -31.5t7 -40.5q0 -32 -13 -57t-33 -41v-8q28 3 47.5 13.5t43.5 14.5q47 8 75.5 -6.5t28.5 -56.5q0 -37 -14.5 -51t-37.5 -14q-15 0 -27.5 12
t-12.5 26q0 18 -7 26.5t-17 8.5h-34t-20.5 -1t-12.5 -2t-11 -2l-20 -252q23 4 45.5 13.5t48.5 16.5q18 5 36 4t32 -8t23 -20.5t9 -34.5q0 -37 -14.5 -53t-37.5 -16q-15 0 -27.5 11.5t-12.5 25.5q0 18 -7 27t-17 9q-13 0 -21.5 -0.5l-17 -1t-17 -2t-21.5 -2.5v-9z" />
    <glyph glyph-name="cid105" unicode="&#x2025;" horiz-adv-x="570" 
d="M47 -38q0 45 27.5 72.5t70.5 27.5q44 0 72.5 -27.5t28.5 -72.5t-28.5 -74t-72.5 -29q-43 0 -70.5 29t-27.5 74zM327 -38q0 45 27.5 72.5t70.5 27.5q44 0 72.5 -27.5t28.5 -72.5t-28.5 -74t-72.5 -29q-43 0 -70.5 29t-27.5 74z" />
    <glyph glyph-name="cid106" unicode="&#x2026;" horiz-adv-x="810" 
d="M37 -38q0 45 27.5 72.5t70.5 27.5q44 0 72.5 -27.5t28.5 -72.5t-28.5 -74t-72.5 -29q-43 0 -70.5 29t-27.5 74zM307 -38q0 45 27.5 72.5t70.5 27.5q44 0 72.5 -27.5t28.5 -72.5t-28.5 -74t-72.5 -29q-43 0 -70.5 29t-27.5 74zM577 -38q0 45 27.5 72.5t70.5 27.5
q44 0 72.5 -27.5t28.5 -72.5t-28.5 -74t-72.5 -29q-43 0 -70.5 29t-27.5 74z" />
    <glyph glyph-name="cid106" unicode="&#x22ef;" horiz-adv-x="810" 
d="M37 -38q0 45 27.5 72.5t70.5 27.5q44 0 72.5 -27.5t28.5 -72.5t-28.5 -74t-72.5 -29q-43 0 -70.5 29t-27.5 74zM307 -38q0 45 27.5 72.5t70.5 27.5q44 0 72.5 -27.5t28.5 -72.5t-28.5 -74t-72.5 -29q-43 0 -70.5 29t-27.5 74zM577 -38q0 45 27.5 72.5t70.5 27.5
q44 0 72.5 -27.5t28.5 -72.5t-28.5 -74t-72.5 -29q-43 0 -70.5 29t-27.5 74z" />
    <glyph glyph-name="cid216" unicode="&#x2030;" horiz-adv-x="1100" 
d="M579 712h88l-557 -751h-85zM23 519q0 46 17 82.5t45.5 61.5t65.5 38.5t78 13.5q34 0 63.5 -9.5t51.5 -27.5t35 -45t13 -62q0 -41 -17 -76.5t-45.5 -62t-66 -42t-77.5 -15.5q-32 0 -61.5 8.5t-52 26.5t-36 45t-13.5 64zM147 500q0 -59 11.5 -79t27.5 -20q15 0 29.5 14
t26.5 39t19 59.5t7 76.5q0 60 -11 79.5t-29 19.5q-14 0 -28.5 -12.5t-26 -36.5t-19 -59t-7.5 -81zM318 109q0 46 17 82.5t45.5 61.5t65.5 38.5t78 13.5q34 0 63.5 -9.5t51.5 -27.5t35 -45t13 -62q0 -41 -17 -76.5t-45.5 -62t-66 -42t-77.5 -15.5q-32 0 -61.5 8.5t-52 26.5
t-36 45t-13.5 64zM442 90q0 -59 11.5 -79t27.5 -20q15 0 29.5 14t26.5 39t19 59.5t7 76.5q0 60 -11 79.5t-29 19.5q-14 0 -28.5 -12.5t-26 -36.5t-19 -59t-7.5 -81zM705 109q0 46 17 82.5t45.5 61.5t65.5 38.5t78 13.5q34 0 63.5 -9.5t51.5 -27.5t35 -45t13 -62
q0 -41 -17 -76.5t-45.5 -62t-66 -42t-77.5 -15.5q-32 0 -61.5 8.5t-52 26.5t-36 45t-13.5 64zM829 90q0 -59 11.5 -79t27.5 -20q15 0 29.5 14t26.5 39t19 59.5t7 76.5q0 60 -11 79.5t-29 19.5q-14 0 -28.5 -12.5t-26 -36.5t-19 -59t-7.5 -81z" />
    <glyph glyph-name="cid139" unicode="&#x2032;" horiz-adv-x="400" 
d="M138 801h136q11 0 17 -6.5t4 -17.5l-23 -109l-82 -141q-8 -14 -21.5 -22.5t-30.5 -8.5q-20 0 -26.5 12t-5.5 26z" />
    <glyph glyph-name="cid140" unicode="&#x2033;" horiz-adv-x="450" 
d="M59 801h136q11 0 17 -6.5t4 -17.5l-23 -109l-82 -141q-8 -14 -21.5 -22.5t-30.5 -8.5q-20 0 -26.5 12t-5.5 26zM268 801h136q11 0 17 -6.5t4 -17.5l-23 -109l-82 -141q-8 -14 -21.5 -22.5t-30.5 -8.5q-20 0 -26.5 12t-5.5 26z" />
    <glyph glyph-name="cid156" unicode="&#x203b;" 
d="M500 443l187 188l79 -79l-187 -188l187 -186l-79 -79l-187 186l-188 -188l-79 79l188 188l-188 188l79 79zM253 291q-34 0 -55 21t-21 56q0 34 21 55t55 21q35 0 57 -21t22 -55q0 -35 -22 -56t-57 -21zM741 291q-34 0 -55 21t-21 56q0 34 21 55t55 21q35 0 57 -21t22 -55
q0 -35 -22 -56t-57 -21zM423 613q0 34 21 55t56 21q34 0 55 -21t21 -55q0 -35 -21 -57t-55 -22q-35 0 -56 22t-21 57zM423 125q0 34 21 55t56 21q34 0 55 -21t21 -55q0 -35 -21 -57t-55 -22q-35 0 -56 22t-21 57z" />
    <glyph glyph-name="cid357" unicode="&#x203e;" horiz-adv-x="890" 
d="M834 743v-102h-765v102h765z" />
    <glyph glyph-name="cid357" unicode="&#xffe3;" horiz-adv-x="890" 
d="M834 743v-102h-765v102h765z" />
    <glyph glyph-name="cid845" unicode="&#x2074;" horiz-adv-x="450" 
d="M41 482l181 215q19 23 33.5 35t28.5 16.5t30.5 4.5h41.5q14 0 21.5 -7.5t6.5 -15.5l-24 -245h56v-36h-59l-3 -27q-5 -36 -23 -50.5t-38 -14.5h-66l9 92h-195v33zM92 485h147l18 174q2 11 -5.5 10.5t-13.5 -8.5z" />
    <glyph glyph-name="cid846" unicode="&#x207f;" horiz-adv-x="560" 
d="M95 654q2 29 -11 37t-33 8l2 23q30 1 56.5 6t49 10t40 9.5t29.5 4.5q10 0 13 -3.5t3 -10.5l-4 -46q53 24 99.5 41.5t78.5 17.5q33 0 49.5 -20t14.5 -53l-14 -207q-2 -29 16 -36t56 18l8 -11q-17 -21 -37 -36t-40 -25t-39.5 -15t-34.5 -5q-40 0 -58.5 21.5t-14.5 71.5
l14 218q2 19 -14 19q-6 0 -16.5 -2.5t-22.5 -6t-24.5 -8.5t-21.5 -9l-20 -294l-143 -7z" />
    <glyph glyph-name="cid847" unicode="&#x2081;" horiz-adv-x="450" 
d="M282 -80q-4 -36 -22.5 -50.5t-38.5 -14.5h-67l30 314q1 13 -2 20t-15 7h-31v26h20q22 1 44.5 6t42 11t34.5 11t24 5q14 0 12 -10z" />
    <glyph glyph-name="cid848" unicode="&#x2082;" horiz-adv-x="450" 
d="M71 163q11 29 28.5 46.5t37.5 26.5t42.5 11t43.5 2q66 0 103 -28t39 -77q0 -31 -13 -53.5t-34 -40t-47.5 -31.5t-53.5 -27q-20 -11 -43 -26.5t-37 -27.5v-5q54 23 95 22t83 -14q22 -7 36 1.5t12 40.5l11 1q10 -37 4.5 -63.5t-23 -43t-43 -24t-55.5 -5.5q-12 1 -38.5 7.5
t-53.5 21.5q-9 6 -19.5 10t-22 5t-23 -2.5t-22.5 -13.5l-12 -11q-5 -5 -15 -5t-13 4q-9 8 1 18l91 92q18 18 37 36.5t34.5 37.5t26 40t13.5 44q4 23 -4 45.5t-33 31.5q-35 12 -62.5 -6t-36.5 -51z" />
    <glyph glyph-name="cid849" unicode="&#x2083;" horiz-adv-x="450" 
d="M85 184q13 24 32 37.5t40 20.5t41.5 8t35.5 1q75 -1 111 -27.5t37 -69.5q0 -31 -12.5 -55t-40.5 -35q30 -11 43.5 -35.5t13.5 -59.5q0 -37 -20 -66.5t-68 -44.5q-44 -14 -84 -13t-77 10q-35 10 -56 30t-26 32l64 58l8 -4l-4 -78q8 -5 20 -8t25 -4.5t25.5 -0.5t21.5 5
q20 8 34.5 31t14.5 60q1 32 -15.5 53t-58.5 23h-57v28h48q35 0 58.5 17.5t24.5 57.5q1 32 -15 46t-36 17q-33 4 -60.5 -11.5t-36.5 -36.5z" />
    <glyph glyph-name="cid850" unicode="&#x2084;" horiz-adv-x="450" 
d="M41 -18l181 215q19 23 33.5 35t28.5 16.5t30.5 4.5h41.5q14 0 21.5 -7.5t6.5 -15.5l-24 -245h56v-36h-59l-3 -27q-5 -36 -23 -50.5t-38 -14.5h-66l9 92h-195v33zM92 -15h147l18 174q2 11 -5.5 10.5t-13.5 -8.5z" />
    <glyph glyph-name="cid18353" unicode="&#x20ac;" horiz-adv-x="800" 
d="M156 306q1 12 2 28.5t3 33t4 32t4 26.5h-117v58h137q24 55 60 96.5t81.5 70t99 44t111.5 18.5q29 1 66.5 -1.5t73 -9t65 -16.5t42.5 -23l-72 -158h-15l-50 152q-4 3 -16 5t-27 3.5t-31.5 2t-28.5 0.5q-27 -2 -53 -15.5t-49 -37.5t-41.5 -57.5t-31.5 -73.5h252v-58h-267
q-2 -11 -3 -26.5t-2.5 -32t-2 -33t-0.5 -28.5h265v-60h-256q17 -63 62 -99t110 -42q21 -2 51.5 1t62 11t58 20t39.5 27l16 -21q-14 -23 -38 -50t-63 -50t-94.5 -39t-131.5 -17q-51 -1 -98 17t-84 52t-61.5 82t-30.5 108h-115v60h114z" />
    <glyph glyph-name="cid141" unicode="&#x2103;" horiz-adv-x="890" 
d="M503 -5q-53 -1 -100.5 19t-84.5 56.5t-58.5 88.5t-21.5 116q0 108 29 184t79 124.5t117 72.5t144 29q28 1 63.5 -1.5t69.5 -8.5t62 -16t40 -22l-68 -150h-15l-47 145q-4 2 -15.5 4t-26 3.5t-29.5 2t-27 0.5q-39 -2 -74.5 -27t-61.5 -70t-40.5 -108.5t-10.5 -142.5
q5 -84 50.5 -131.5t120.5 -55.5q19 -2 48.5 1t59 10.5t55 18.5t37.5 26l16 -20q-13 -22 -36 -47.5t-60 -47.5t-90 -37t-125 -16zM150 673q0 -17 11.5 -29t28.5 -12q18 0 29 12t11 29t-11 28.5t-29 11.5q-17 0 -28.5 -11.5t-11.5 -28.5zM74 673q0 24 9.5 44.5t25 35.5
t36.5 23.5t45 8.5q23 0 44 -8.5t36.5 -23.5t25 -35.5t9.5 -44.5q0 -25 -9.5 -45.5t-25 -35.5t-36.5 -23t-44 -8q-24 0 -45 8.5t-36.5 23.5t-25 35.5t-9.5 44.5z" />
    <glyph glyph-name="cid215" unicode="&#x2109;" horiz-adv-x="890" 
d="M366 607q2 14 -6 18.5t-17 4.5h-41v42h547v-45h-284l-22 -263h263v-44h-268l-20 -248q-2 -20 -15 -34t-32 -24t-42 -14.5t-45 -4.5q-65 0 -64 48zM114 673q0 -17 11.5 -29t28.5 -12q18 0 29 12t11 29t-11 28.5t-29 11.5q-17 0 -28.5 -11.5t-11.5 -28.5zM41 673q0 24 9 44
t24.5 34.5t36 22.5t43.5 8q22 0 42.5 -8.5t36 -23t24.5 -34.5t9 -43q0 -24 -9 -44.5t-24.5 -34.5t-36 -22t-42.5 -8q-23 0 -43.5 8.5t-36 23t-24.5 34.5t-9 43z" />
    <glyph glyph-name="cid258" unicode="&#x2116;" horiz-adv-x="1200" 
d="M598 0h-51q-14 0 -32 5t-36 16.5t-35 30.5t-30 48l-210 463l-41 -475q-1 -20 4 -34t29 -14h37v-40h-220v40h46q21 0 34 11t15 37l49 534q2 14 -7 22.5t-22 8.5h-33v47h253l211 -492l33 408q3 39 -30 39h-43v45h217v-45h-46q-35 0 -38 -39zM689 367q0 67 23.5 114.5
t60 77.5t81 44t87.5 14q45 0 84 -12t68.5 -37.5t46.5 -64t17 -91.5q0 -68 -23.5 -115.5t-60 -77.5t-81 -43.5t-87.5 -13.5q-45 0 -84.5 12t-68.5 37.5t-46 64t-17 91.5zM851 343q0 -70 10.5 -111t43.5 -41q14 0 30 15t29.5 45.5t22 76.5t8.5 107q0 71 -10.5 111.5
t-44.5 40.5q-14 0 -29.5 -14.5t-29 -44.5t-22 -76t-8.5 -109zM1134 103l-10 -102h-474l10 102h474z" />
    <glyph glyph-name="cid263" unicode="&#x2121;" horiz-adv-x="1150" 
d="M198 623q1 10 -3.5 19.5t-22.5 9.5h-158v48h566v-48h-164q-14 0 -20.5 -6t-8.5 -23l-51 -554q-2 -21 -14 -36t-30.5 -25t-41.5 -15t-46 -5q-34 0 -46.5 12.5t-11.5 38.5zM591 3q-39 0 -73.5 14t-60.5 40.5t-41 64.5t-15 86q0 60 18.5 105t51 75t76 45t93.5 15
q46 0 78.5 -9.5t52 -25.5t28.5 -35.5t9 -40.5q0 -37 -16.5 -61.5t-49 -41t-80.5 -25.5t-112 -15q8 -48 31 -78t74 -30q35 0 65 13t56 36l12 -10q-23 -57 -69 -89.5t-128 -32.5zM680 367q0 24 -11.5 39.5t-28.5 15.5q-21 0 -37.5 -15t-28.5 -41.5t-18.5 -63.5t-6.5 -82
q38 6 63 21t40 35.5t21.5 44t6.5 46.5zM1018 146q-3 -47 26.5 -55t82.5 28l11 -15q-24 -29 -51.5 -51t-55 -36t-53.5 -21t-48 -7q-31 0 -50.5 10t-30 28t-13 42.5t-0.5 53.5l48 544q1 21 -3.5 34t-13.5 19.5t-21 9t-25 2.5l2 32q43 1 77.5 8t61.5 15.5t48.5 15t38.5 6.5
q14 0 18.5 -8t3.5 -17z" />
    <glyph glyph-name="cid260" unicode="&#x2122;" 
d="M200 671q1 5 -1.5 10.5t-11.5 5.5h-101v45h352v-45h-100q-13 0 -16 -16l-28 -235q-1 -11 -9.5 -18.5t-20.5 -13t-26 -8t-26 -2.5q-20 0 -30.5 9t-8.5 25zM761 732h135v-45h-14q-8 0 -12 -3t-6 -14l-26 -190q-1 -20 13 -27t41 12l8 -11q-14 -17 -31 -28.5t-34.5 -19
t-33.5 -11t-27 -3.5q-26 0 -40 18.5t-9 57.5l26 154l-118 -212h-28q-8 0 -16.5 6.5t-16.5 33.5l-51 167l-20 -167q-1 -10 0 -16t14 -6h16v-28h-118v28h24q11 0 16.5 5t7.5 19l29 221q1 5 -1.5 9.5t-9.5 4.5h-20v45h129l60 -198z" />
    <glyph glyph-name="cid142" unicode="&#x212b;" horiz-adv-x="890" 
d="M402 534l-93 -249h158zM233 79q-8 -14 -2.5 -24.5t28.5 -10.5h24v-44h-185v44h27q22 0 33 7t22 32l222 582h100q21 0 37 -17t24 -42l135 -467q12 -39 39.5 -44.5t69.5 22.5l15 -22q-26 -30 -53 -51t-53 -33.5t-50.5 -18.5t-44.5 -6q-22 0 -38 8.5t-27 21t-18.5 27.5
t-11.5 28l-45 171h-189zM420 801q0 -17 11.5 -29t28.5 -12q18 0 29 12t11 29t-11 28.5t-29 11.5q-17 0 -28.5 -11.5t-11.5 -28.5zM347 801q0 24 9 42t24.5 31t36 19.5t43.5 6.5q22 0 42.5 -7t36 -19.5t24.5 -31t9 -41.5q0 -24 -9 -43.5t-24.5 -33t-36 -20.5t-42.5 -7
q-23 0 -43.5 7.5t-36 21.5t-24.5 33t-9 42z" />
    <glyph glyph-name="cid749" unicode="&#x2153;" horiz-adv-x="1100" 
d="M299 281q-2 -26 -10.5 -44t-21 -29t-27.5 -16t-30 -5h-82l44 453q2 20 -3 29.5t-23 9.5h-44v38h29q33 1 63 8.5t55.5 16.5t45.5 16t33 7q11 0 14.5 -3.5t2.5 -11.5zM564 426q18 35 44 54.5t54.5 29.5t57.5 12t54 2q109 -2 157.5 -40.5t49.5 -101.5q0 -55 -28 -85.5
t-68 -44.5q44 -17 73 -52t29 -86q0 -57 -29 -100t-100 -63q-26 -8 -58.5 -11t-64 -3t-59 2.5t-43.5 7.5q-26 7 -46 19.5t-35 26.5t-24.5 27t-12.5 22l86 76l12 -6v-115q30 -17 66 -19.5t68 10.5q29 11 49.5 44.5t21.5 90.5q0 19 -5.5 39t-18 36.5t-33.5 27t-51 11.5h-68v36
h55q52 0 85.5 26t34.5 84q2 47 -20.5 71.5t-58.5 29.5q-24 3 -46.5 -2.5t-41.5 -16.5t-32.5 -26t-20.5 -31zM687 766l48 -29l-577 -821l-45 29z" />
    <glyph glyph-name="cid750" unicode="&#x2154;" horiz-adv-x="1100" 
d="M657 426q18 35 42.5 54.5t51 29.5t54 12t52.5 2q109 -2 157.5 -40.5t49.5 -101.5q0 -55 -28 -85.5t-68 -44.5q44 -17 73 -52t29 -86q0 -57 -29 -100t-100 -63q-26 -8 -58.5 -11t-64 -3t-59 2.5t-43.5 7.5q-26 7 -46 19.5t-35 26.5t-24.5 27t-12.5 22l86 76l12 -6v-115
q30 -17 66 -19.5t68 10.5q29 11 49.5 44.5t21.5 90.5q0 19 -5.5 39t-18 36.5t-33.5 27t-51 11.5h-68v36h55q52 0 85.5 26t34.5 84q2 47 -20.5 71.5t-58.5 29.5q-24 3 -45 -2.5t-38 -16.5t-29 -26t-19 -31zM54 626q15 43 37.5 68t51 37.5t62 16t69.5 3.5q48 0 83.5 -13.5
t59.5 -34.5t36 -48.5t13 -56.5q0 -42 -16.5 -74.5t-44.5 -58.5t-64.5 -47.5t-75.5 -40.5q-15 -8 -31 -17.5t-31.5 -20.5t-29.5 -21.5t-24 -19.5v-6q28 16 57 21.5t58 4t59 -6.5t61 -9q67 -8 69 62l16 1q13 -47 3 -84.5t-34.5 -63.5t-58.5 -39.5t-69 -11.5q-18 2 -49.5 8
t-70.5 29q-14 8 -29 15.5t-31.5 10t-33.5 -1t-33 -18.5l-17 -17q-8 -8 -18 -7.5t-14 5.5q-5 6 -5.5 13.5t7.5 14.5l132 133q26 27 51.5 49t46.5 46t35.5 54t19.5 74q4 42 -7.5 73t-47.5 46q-26 7 -51 5t-46.5 -12.5t-37 -28t-22.5 -41.5zM807 766l48 -29l-547 -821l-45 29z
" />
    <glyph glyph-name="cid753" unicode="&#x215b;" horiz-adv-x="1100" 
d="M297 281q-2 -26 -10.5 -44t-21 -29t-27.5 -16t-30 -5h-82l44 453q2 20 -3 29.5t-23 9.5h-44v38h29q33 1 63 8.5t55.5 16.5t45.5 16t33 7q11 0 14.5 -3.5t2.5 -11.5zM799 519q64 0 104.5 -13.5t63.5 -33.5t31.5 -43t8.5 -41q0 -54 -30.5 -90.5t-78.5 -51.5q36 -8 64 -25
q19 -12 30.5 -27t17.5 -30t8 -28t2 -20q0 -35 -14 -69.5t-57 -66.5q-20 -15 -46.5 -25t-54 -16t-53 -8.5t-43.5 -2.5q-50 0 -95.5 4.5t-78.5 21.5q-45 21 -61.5 53t-16.5 69q0 10 1.5 23t6.5 28t14.5 30t24.5 29q20 18 42 30.5t48 20.5q-42 9 -65.5 38.5t-23.5 70.5
q0 34 15.5 66t53.5 60q35 26 83 36.5t99 10.5zM766 227q-19 0 -37 -8t-32 -24.5t-23.5 -43.5t-10.5 -64q0 -25 5 -47t16 -37.5t29 -24.5t43 -8q50 3 75 45.5t23 120.5q-1 37 -22.5 64t-65.5 27zM785 481q-17 0 -38 -12t-35 -43q-14 -29 -14 -72q0 -42 19 -66t54 -22
q15 0 30 6.5t27 21t19.5 39t9.5 61.5q1 36 -16.5 61.5t-55.5 25.5zM692 766l48 -29l-577 -821l-45 29z" />
    <glyph glyph-name="cid754" unicode="&#x215c;" horiz-adv-x="1100" 
d="M49 666q18 35 42.5 54.5t51 29.5t54 12t52.5 2q109 -2 157.5 -40.5t49.5 -101.5q0 -55 -28 -85.5t-68 -44.5q44 -17 73 -52t29 -86q0 -22 -7 -46.5t-22 -47t-39.5 -41t-60.5 -28.5q-26 -8 -57 -11t-61 -3t-55.5 2.5t-41.5 7.5q-26 7 -46 19.5t-35 26.5t-24.5 27t-12.5 22
l86 76l12 -6v-115q61 -34 124 -9q29 11 49.5 44.5t21.5 90.5q0 19 -3.5 39t-14.5 36.5t-30.5 27t-49.5 11.5h-68v36h55q52 0 80.5 26t29.5 84q2 47 -20.5 71.5t-58.5 29.5q-24 3 -45 -2.5t-38 -16.5t-29 -26t-19 -31zM785 766l48 -29l-547 -821l-45 29zM860 519
q64 0 104 -13.5t62 -33.5t29.5 -43t7.5 -41q0 -54 -30.5 -90.5t-78.5 -51.5q36 -8 64 -25q19 -12 30.5 -27t17.5 -30t8 -28t2 -20q0 -35 -14 -69.5t-57 -66.5q-20 -15 -46 -25t-52.5 -16t-51 -8.5t-42.5 -2.5q-50 0 -93 4.5t-76 21.5q-40 20 -54 53.5t-14 68.5q0 7 1.5 21
t5 30t11 32t19.5 27q20 18 42 30.5t48 20.5q-42 9 -65.5 38.5t-23.5 70.5q0 34 15.5 66t53.5 60q35 26 80.5 36.5t96.5 10.5zM827 227q-19 0 -36 -8t-30.5 -24.5t-22 -43.5t-9.5 -64q0 -25 4 -47t14.5 -37.5t27.5 -24.5t42 -8q50 3 72.5 45.5t20.5 120.5q-1 37 -20 64
t-63 27zM846 481q-17 0 -35.5 -12t-32.5 -43q-14 -29 -14 -72q0 -42 16.5 -66t51.5 -22q15 0 29 6.5t25 21t18 39t9 61.5q1 36 -14 61.5t-53 25.5z" />
    <glyph glyph-name="cid755" unicode="&#x215d;" horiz-adv-x="1100" 
d="M858 519q64 0 104 -13.5t62 -33.5t29.5 -43t7.5 -41q0 -54 -30.5 -90.5t-78.5 -51.5q36 -8 64 -25q19 -12 30.5 -27t17.5 -30t8 -28t2 -20q0 -35 -14 -69.5t-57 -66.5q-20 -15 -46 -25t-52.5 -16t-51 -8.5t-42.5 -2.5q-50 0 -93 4.5t-76 21.5q-40 20 -54 53.5t-14 68.5
q0 7 1.5 21t5 30t11 32t19.5 27q20 18 42 30.5t48 20.5q-42 9 -65.5 38.5t-23.5 70.5q0 34 15.5 66t53.5 60q35 26 80.5 36.5t96.5 10.5zM825 227q-19 0 -36 -8t-30.5 -24.5t-22 -43.5t-9.5 -64q0 -25 4 -47t14.5 -37.5t27.5 -24.5t42 -8q50 3 72.5 45.5t20.5 120.5
q-1 37 -20 64t-63 27zM844 481q-17 0 -35.5 -12t-32.5 -43q-14 -29 -14 -72q0 -42 16.5 -66t51.5 -22q15 0 29 6.5t25 21t18 39t9 61.5q1 36 -14 61.5t-53 25.5zM92 355l12 -6v-112q65 -31 116 -12q34 14 53.5 49t17.5 95q-1 24 -6 45.5t-18 38t-34.5 26.5t-55.5 10h-92
q-10 0 -18 7t-5 25l30 190q2 7 5 15t10.5 14.5t19.5 11.5t32 7q31 3 62 -0.5t58.5 -10t51.5 -13.5t42 -10q42 -9 62 -2.5t25 32.5h16q2 -40 -11 -68t-36 -45.5t-54 -24.5t-65 -4q-27 1 -49.5 7t-41.5 13.5t-35.5 14.5t-31.5 12q-4 1 -15.5 1.5t-13.5 -12.5l-20 -125h113
q47 0 90.5 -7t76.5 -25t53 -49t20 -79q0 -24 -6 -50t-20.5 -50t-39.5 -43.5t-62 -31.5q-45 -11 -94 -14t-93 7t-79.5 33.5t-54.5 64.5zM785 766l48 -29l-557 -821l-45 29z" />
    <glyph glyph-name="cid756" unicode="&#x215e;" horiz-adv-x="1100" 
d="M823 519q64 0 104.5 -13.5t63.5 -33.5t31.5 -43t8.5 -41q0 -54 -30.5 -90.5t-78.5 -51.5q36 -8 64 -25q19 -12 30.5 -27t17.5 -30t8 -28t2 -20q0 -35 -14 -69.5t-57 -66.5q-20 -15 -46.5 -25t-54 -16t-53 -8.5t-43.5 -2.5q-50 0 -95.5 4.5t-78.5 21.5q-44 21 -56 53
t-12 69v23t3 28t11 30t23 29q20 18 42 30.5t48 20.5q-42 9 -65.5 38.5t-23.5 70.5q0 34 15.5 66t53.5 60q35 26 83 36.5t99 10.5zM790 227q-19 0 -37 -8t-32 -24.5t-23.5 -43.5t-10.5 -64q0 -25 5 -47t16 -37.5t29 -24.5t43 -8q50 3 75 45.5t23 120.5q-1 37 -22.5 64
t-65.5 27zM809 481q-17 0 -38 -12t-35 -43q-14 -29 -14 -72q0 -42 19 -66t54 -22q15 0 30 6.5t27 21t19.5 39t9.5 61.5q1 36 -16.5 61.5t-55.5 25.5zM491 737q8 0 12 -8.5t-2 -19.5q-41 -57 -73 -108.5t-57 -105.5t-44 -114t-34 -133q-4 -32 -26.5 -57t-63.5 -25h-90
q1 10 8.5 50.5t27.5 91.5q21 52 50 99.5t59.5 88t59.5 72t49 51.5h-293v118h417zM717 766l48 -29l-567 -821l-45 29z" />
    <glyph glyph-name="cid461" unicode="&#x2160;" horiz-adv-x="1020" 
d="M434 629q2 14 -3.5 19.5t-16.5 5.5h-41v46h328v-46h-40q-8 0 -12 -5.5t-6 -19.5l-55 -557q-2 -14 2 -20t18 -6h39v-46h-328v46h40q9 0 13.5 5.5t6.5 19.5z" />
    <glyph glyph-name="cid462" unicode="&#x2161;" horiz-adv-x="1020" 
d="M249 629q2 14 -3.5 19.5t-16.5 5.5h-41v46h328v-46h-40q-8 0 -12 -5.5t-6 -19.5l-55 -557q-2 -14 2 -20t18 -6h39v-46h-328v46h40q9 0 13.5 5.5t6.5 19.5zM618 629q2 14 -3.5 19.5t-16.5 5.5h-41v46h328v-46h-40q-8 0 -12 -5.5t-6 -19.5l-55 -557q-2 -14 2 -20t18 -6h39
v-46h-328v46h40q9 0 13.5 5.5t6.5 19.5z" />
    <glyph glyph-name="cid463" unicode="&#x2162;" horiz-adv-x="1020" 
d="M135 629q2 14 -3.5 19.5t-16.5 5.5h-41v46h298v-46h-40q-8 0 -12 -5.5t-6 -19.5l-55 -557q-2 -14 2 -20t18 -6h39v-46h-298v46h40q9 0 13.5 5.5t6.5 19.5zM454 629q2 14 -3.5 19.5t-16.5 5.5h-41v46h298v-46h-40q-8 0 -12 -5.5t-6 -19.5l-55 -557q-2 -14 2 -20t18 -6h39
v-46h-298v46h40q9 0 13.5 5.5t6.5 19.5zM773 629q2 14 -3.5 19.5t-16.5 5.5h-41v46h298v-46h-40q-8 0 -12 -5.5t-6 -19.5l-55 -557q-2 -14 2 -20t18 -6h39v-46h-298v46h40q9 0 13.5 5.5t6.5 19.5z" />
    <glyph glyph-name="cid464" unicode="&#x2163;" horiz-adv-x="1020" 
d="M107 629q2 14 -3.5 19.5t-16.5 5.5h-31v46h282v-46h-30q-8 0 -12 -5.5t-6 -19.5l-55 -557q-2 -14 2 -20t18 -6h29v-46h-282v46h30q9 0 13.5 5.5t6.5 19.5zM880 616q8 14 2 26t-29 12h-30v46h196v-46h-28q-17 0 -30.5 -8t-25.5 -34l-256 -616h-61q-6 0 -16 2.5t-20 10.5
t-18.5 23t-12.5 39l-129 559q-3 9 -7 16.5t-23 7.5h-33v46h239l108 -522z" />
    <glyph glyph-name="cid465" unicode="&#x2164;" horiz-adv-x="1020" 
d="M726 616q8 14 2 26t-29 12h-30v46h206v-46h-28q-23 0 -38.5 -8t-27.5 -34l-276 -616h-81q-6 0 -16 2.5t-20 10.5t-18.5 23t-12.5 39l-129 559q-3 9 -7 16.5t-23 7.5h-53v46h279l108 -522z" />
    <glyph glyph-name="cid466" unicode="&#x2165;" horiz-adv-x="1020" 
d="M736 629q2 14 -3.5 19.5t-16.5 5.5h-31v46h283v-46h-30q-8 0 -12 -5.5t-6 -19.5l-55 -557q-2 -14 2 -20t18 -6h29v-46h-283v46h30q9 0 13.5 5.5t6.5 19.5zM532 616q8 14 2 26t-29 12h-30v46h196v-46h-28q-17 0 -30.5 -8t-25.5 -34l-226 -616h-71q-6 0 -16 2.5t-20 10.5
t-18.5 23t-12.5 39l-129 559q-3 9 -7 16.5t-23 7.5h-43v46h249l108 -522z" />
    <glyph glyph-name="cid467" unicode="&#x2166;" horiz-adv-x="1150" 
d="M652 629q2 14 -3.5 19.5t-16.5 5.5h-31v46h263v-46h-30q-8 0 -12 -5.5t-6 -19.5l-55 -557q-2 -14 2 -20t18 -6h29v-46h-263v46h30q9 0 13.5 5.5t6.5 19.5zM448 616q8 14 2 26t-29 12h-30v46h196v-46h-28q-17 0 -30.5 -8t-25.5 -34l-184 -616h-89q-6 0 -16 2.5t-20 10.5
t-18.5 23t-12.5 39l-93 559q-3 9 -7 16.5t-23 7.5h-33v46h244l66 -522zM932 629q2 14 -3.5 19.5t-16.5 5.5h-31v46h263v-46h-30q-8 0 -12 -5.5t-6 -19.5l-55 -557q-2 -14 2 -20t18 -6h29v-46h-263v46h30q9 0 13.5 5.5t6.5 19.5z" />
    <glyph glyph-name="cid468" unicode="&#x2167;" horiz-adv-x="1200" 
d="M546 629q2 14 -3.5 19.5t-16.5 5.5h-16v46h223v-46h-15q-8 0 -12 -5.5t-6 -19.5l-55 -557q-2 -14 2 -20t18 -6h14v-46h-223v46h15q9 0 13.5 5.5t6.5 19.5zM379 624q8 14 2 22t-29 8h-30v46h174v-46h-20h-15t-12.5 -3t-10 -10t-8.5 -21l-137 -624h-89q-6 0 -16 2.5
t-20 10.5t-18.5 23t-12.5 39l-73 559q-3 9 -7 16.5t-23 7.5h-23v46h214l56 -522zM779 629q2 14 -3.5 19.5t-16.5 5.5h-16v46h223v-46h-15q-8 0 -12 -5.5t-6 -19.5l-55 -557q-2 -14 2 -20t18 -6h14v-46h-223v46h15q9 0 13.5 5.5t6.5 19.5zM1012 629q2 14 -3.5 19.5t-16.5 5.5
h-16v46h223v-46h-15q-8 0 -12 -5.5t-6 -19.5l-55 -557q-2 -14 2 -20t18 -6h14v-46h-223v46h15q9 0 13.5 5.5t6.5 19.5z" />
    <glyph glyph-name="cid469" unicode="&#x2168;" horiz-adv-x="1020" 
d="M127 629q2 14 -3.5 19.5t-16.5 5.5h-31v46h282v-46h-30q-8 0 -12 -5.5t-6 -19.5l-55 -557q-2 -14 2 -20t18 -6h29v-46h-282v46h30q9 0 13.5 5.5t6.5 19.5zM627 231l-113 -164q-6 -8 -6 -15.5t13 -7.5h46v-44h-229v44h35q13 1 24.5 2.5t22.5 6.5t23 15t27 28l133 192
l-137 345q-7 14 -13.5 19.5t-28.5 3.5h-45v44h264l85 -230l114 167q8 10 3.5 16t-17.5 5l-28 -1v43h204v-44h-30q-19 -1 -29 -2.5t-17 -6t-15 -14t-23 -27.5l-147 -195l141 -339q6 -16 18.5 -21.5t25.5 -5.5h45v-45h-180q-14 0 -29 3.5t-30.5 13.5t-30 27.5t-26.5 46.5z" />
    <glyph glyph-name="cid470" unicode="&#x2169;" horiz-adv-x="1020" 
d="M461 231l-123 -164q-6 -8 -6 -15.5t13 -7.5h46v-44h-239v44h45q13 1 24.5 2.5t22.5 6.5t23 15t27 28l143 192l-147 345q-7 14 -13.5 19.5t-28.5 3.5h-55v44h284l95 -230l124 167q8 10 3.5 16t-17.5 5l-38 -1v43h224v-44h-40q-19 -1 -29 -2.5t-17 -6t-15 -14t-23 -27.5
l-147 -195l141 -339q6 -16 18.5 -21.5t25.5 -5.5h55v-45h-200q-14 0 -29 3.5t-30.5 13.5t-30 27.5t-26.5 46.5z" />
    <glyph glyph-name="cid451" unicode="&#x2170;" horiz-adv-x="1020" 
d="M406 472q-22 -4 -45 -7t-48 -5v36q72 9 147.5 32t141.5 57h18l-33 -442q-3 -44 26 -51t82 28l12 -15q-24 -30 -52 -51.5t-56 -35.5t-55 -21t-49 -7q-56 0 -88 30t-27 100zM535 646q-45 0 -74.5 25t-29.5 67q0 25 10 45t26.5 34t37.5 21.5t43 7.5q45 0 74.5 -25t29.5 -67
q0 -25 -10 -45t-26.5 -34t-37.5 -21.5t-43 -7.5z" />
    <glyph glyph-name="cid452" unicode="&#x2171;" horiz-adv-x="1020" 
d="M226 472q-22 -4 -45 -7t-48 -5v36q72 9 142.5 32t136.5 57h18l-33 -442q-3 -44 16 -51t72 28l12 -15q-48 -60 -97.5 -87.5t-94.5 -27.5q-56 0 -83 30t-22 100zM350 646q-45 0 -72 25t-27 67q0 25 9 45t24.5 34t36 21.5t42.5 7.5q45 0 72 -25t27 -67q0 -25 -9 -45
t-24.5 -34t-36 -21.5t-42.5 -7.5zM616 472q-22 -4 -45 -7t-48 -5v36q72 9 142.5 32t136.5 57h18l-33 -442q-3 -44 16 -51t72 28l12 -15q-48 -60 -97.5 -87.5t-94.5 -27.5q-56 0 -83 30t-22 100zM740 646q-45 0 -72 25t-27 67q0 25 9 45t24.5 34t36 21.5t42.5 7.5
q45 0 72 -25t27 -67q0 -25 -9 -45t-24.5 -34t-36 -21.5t-42.5 -7.5z" />
    <glyph glyph-name="cid453" unicode="&#x2172;" horiz-adv-x="1020" 
d="M139 472q-22 -4 -40 -7t-43 -5v36q36 4 67 12.5t60.5 19.5t59 25.5t62.5 31.5h18l-33 -442q-2 -22 -1 -35t7.5 -16t21 3.5t40.5 24.5l12 -15q-24 -30 -44 -51.5t-39 -35.5t-38 -21t-41 -7q-56 0 -78 30t-17 100zM253 646q-45 0 -67 25t-22 67q0 50 28.5 79t73.5 29
t67 -25t22 -67q0 -50 -28.5 -79t-73.5 -29zM437 472q-22 -4 -40 -7t-43 -5v36q36 4 67 12.5t60.5 19.5t59 25.5t62.5 31.5h18l-33 -442q-2 -22 -1 -35t7.5 -16t21 3.5t40.5 24.5l12 -15q-24 -30 -44 -51.5t-39 -35.5t-38 -21t-41 -7q-56 0 -78 30t-17 100zM551 646
q-45 0 -67 25t-22 67q0 50 28.5 79t73.5 29t67 -25t22 -67q0 -50 -28.5 -79t-73.5 -29zM733 472q-22 -4 -40 -7t-43 -5v36q36 4 67 12.5t60.5 19.5t59 25.5t62.5 31.5h18l-33 -442q-2 -22 -1 -35t7.5 -16t21 3.5t40.5 24.5l12 -15q-24 -30 -44 -51.5t-39 -35.5t-38 -21
t-41 -7q-56 0 -78 30t-17 100zM847 646q-45 0 -67 25t-22 67q0 50 28.5 79t73.5 29t67 -25t22 -67q0 -50 -28.5 -79t-73.5 -29z" />
    <glyph glyph-name="cid454" unicode="&#x2173;" horiz-adv-x="1020" 
d="M151 472q-22 -4 -35 -7t-38 -5v36q72 9 132.5 32t126.5 57h18l-33 -442q-2 -33 14 -41t54 18l12 -15q-48 -60 -87.5 -87.5t-84.5 -27.5q-56 0 -83 30t-22 100zM275 646q-45 0 -72 25t-27 67q0 25 9 45t24.5 34t36 21.5t42.5 7.5q45 0 72 -25t27 -67q0 -25 -9 -45
t-24.5 -34t-36 -21.5t-42.5 -7.5zM804 427q-2 22 -11 33t-29 9h-36l-1 41h37q36 3 61.5 11t45 16.5t34 15.5t28.5 7q13 1 21 -7.5t7 -17.5q0 -65 -11.5 -132.5t-31 -129.5t-46 -114t-56.5 -86q-19 -22 -37.5 -38t-39 -26.5t-45.5 -16t-58 -6.5q-44 -1 -82.5 14.5t-67 44.5
t-43 69t-9.5 88l14 207q1 18 1.5 32.5t-3.5 20.5t-14 2.5t-29 -20.5l-15 27q27 35 62 54.5t78 19.5q55 0 87 -34t29 -94l-20 -301q-3 -45 6.5 -62t29.5 -19q23 -3 52 17t49 58q18 33 27.5 73.5t13.5 83.5t3.5 84t-1.5 76z" />
    <glyph glyph-name="cid455" unicode="&#x2174;" horiz-adv-x="1020" 
d="M669 427q-2 22 -11 33t-29 9h-36l-1 41h37q36 3 61.5 11t45 16.5t34 15.5t28.5 7q13 1 21 -7.5t7 -17.5q0 -71 -12 -138t-33 -126.5t-49.5 -110t-61.5 -87.5q-41 -45 -91.5 -64.5t-107.5 -22.5q-54 -2 -95.5 13.5t-69 44.5t-40 69.5t-7.5 88.5l14 207q1 19 -1.5 33
t-10.5 20t-21 2t-32 -20l-15 27q27 35 72 54.5t88 19.5q27 0 51 -9t41 -25.5t26 -40t8 -53.5l-20 -301q-3 -45 11.5 -62t34.5 -19q29 -3 61.5 17t52.5 58q18 33 28.5 73.5t15.5 83.5t6 84t0 76z" />
    <glyph glyph-name="cid456" unicode="&#x2175;" horiz-adv-x="1020" 
d="M721 472q-22 -4 -35 -7t-38 -5v36q72 9 132.5 32t126.5 57h18l-33 -442q-2 -33 14 -41t54 18l12 -15q-48 -60 -87.5 -87.5t-84.5 -27.5q-56 0 -83 30t-22 100zM845 646q-45 0 -72 25t-27 67q0 25 9 45t24.5 34t36 21.5t42.5 7.5q45 0 72 -25t27 -67q0 -25 -9 -45
t-24.5 -34t-36 -21.5t-42.5 -7.5zM464 427q-2 22 -11 33t-29 9h-36l-1 41h37q36 3 61.5 11t45 16.5t34 15.5t28.5 7q13 1 21 -7.5t7 -17.5q0 -65 -11.5 -132.5t-31 -129.5t-46 -114t-56.5 -86q-19 -22 -37.5 -38t-39 -26.5t-45.5 -16t-58 -6.5q-44 -1 -82.5 14.5t-67 44.5
t-43 69t-9.5 88l14 207q1 18 1.5 32.5t-3.5 20.5t-14 2.5t-29 -20.5l-15 27q27 35 62 54.5t78 19.5q55 0 87 -34t29 -94l-20 -301q-3 -45 6.5 -62t29.5 -19q23 -3 52 17t49 58q18 33 27.5 73.5t13.5 83.5t3.5 84t-1.5 76z" />
    <glyph glyph-name="cid457" unicode="&#x2176;" horiz-adv-x="1100" 
d="M362 427q-2 22 -11 33t-29 9h-36l-1 41h37q36 3 61.5 11t45 16.5t34 15.5t28.5 7q13 1 21 -7.5t7 -17.5q0 -75 -10.5 -146.5t-29.5 -134.5t-45.5 -114.5t-58.5 -86.5q-21 -23 -38 -36t-33.5 -19.5t-35 -8.5t-42.5 -3q-45 -1 -80 16t-58.5 48t-34.5 72.5t-8 89.5l10 197
q1 18 1.5 32.5t-3.5 20.5t-14 2.5t-29 -20.5l-15 27q27 35 60 54.5t76 19.5q55 0 85.5 -34t27.5 -94l-20 -301q-3 -45 5 -62t21 -19t31.5 7.5t38.5 47.5q16 29 25 74t13.5 93t4.5 93.5t-1 76.5zM608 465q-11 -2 -16.5 -2h-10.5t-11.5 0.5t-18.5 -0.5v36q36 4 64.5 12
t54 18.5t50.5 24.5t54 31h18l-33 -442q-2 -22 -4.5 -36.5t0.5 -19.5t14.5 0t37.5 23l12 -15q-24 -30 -41 -50t-32 -32t-31 -17.5t-38 -5.5q-56 0 -78 30t-17 100zM722 646q-45 0 -67 25t-22 67q0 50 28.5 79t73.5 29t67 -25t22 -67q0 -50 -28.5 -79t-73.5 -29zM860 465
q-11 -2 -16.5 -2t-10.5 1t-11.5 1.5t-18.5 -0.5v36q36 4 64.5 11.5t54 18t50.5 24t54 30.5h18l-33 -442q-2 -22 -4.5 -36.5t0.5 -19.5t14.5 0t37.5 23l12 -15q-24 -30 -41 -50t-32 -32t-31 -17.5t-38 -5.5q-56 0 -78 30t-17 100zM974 646q-45 0 -67 25t-22 67q0 50 28.5 79
t73.5 29t67 -25t22 -67q0 -50 -28.5 -79t-73.5 -29z" />
    <glyph glyph-name="cid458" unicode="&#x2177;" horiz-adv-x="1250" 
d="M327 427q-2 22 -11 33t-29 9h-26l-1 41h27q36 3 61.5 11t45 16.5t34 15.5t28.5 7q13 1 21 -7.5t7 -17.5q0 -157 -29.5 -281t-100.5 -201q-21 -23 -38 -36t-33.5 -19.5t-34 -8.5t-37.5 -3q-45 -1 -78 16t-55 48t-31.5 72.5t-6.5 89.5l10 197q2 28 0 39.5t-7.5 13
t-12.5 -4.5t-15 -13l-15 27q27 35 58.5 54.5t67.5 19.5q55 0 80.5 -34t22.5 -94l-20 -301q-3 -34 0.5 -56.5t25.5 -24.5q11 -4 25 7t32 43q15 26 22.5 72.5t11 97t3 97.5t-1.5 75zM563 465q-11 -2 -16.5 -2h-10.5t-11.5 0.5t-18.5 -0.5v36q36 4 63 12t50.5 18.5t47 24.5
t52.5 31h18l-33 -442q-2 -22 -4.5 -36.5t0.5 -19.5t14.5 0t37.5 23l12 -15q-24 -30 -41 -50t-32 -32t-31 -17.5t-38 -5.5q-56 0 -73 30t-12 100zM672 646q-45 0 -64.5 25t-19.5 67q0 50 26 79t71 29t64.5 -25t19.5 -67q0 -50 -26 -79t-71 -29zM798 465q-11 -2 -16.5 -2
h-10.5t-11.5 0.5t-18.5 -0.5v36q36 4 63 12t50.5 18.5t47 24.5t52.5 31h18l-33 -442q-2 -22 -4.5 -36.5t0.5 -19.5t14.5 0t37.5 23l12 -15q-24 -30 -41 -50t-32 -32t-31 -17.5t-38 -5.5q-56 0 -73 30t-12 100zM907 646q-45 0 -64.5 25t-19.5 67q0 50 26 79t71 29t64.5 -25
t19.5 -67q0 -50 -26 -79t-71 -29zM1031 465q-11 -2 -16.5 -2h-10.5t-11.5 0.5t-18.5 -0.5v36q36 4 63 12t50.5 18.5t47 24.5t52.5 31h18l-33 -442q-2 -22 -4.5 -36.5t0.5 -19.5t14.5 0t37.5 23l12 -15q-24 -30 -41 -50t-32 -32t-31 -17.5t-38 -5.5q-56 0 -73 30t-12 100z
M1140 646q-45 0 -64.5 25t-19.5 67q0 50 26 79t71 29t64.5 -25t19.5 -67q0 -50 -26 -79t-71 -29z" />
    <glyph glyph-name="cid459" unicode="&#x2178;" horiz-adv-x="1020" 
d="M451 545q56 4 87 -8.5t54 -30.5q23 -21 38 -57t18 -72l14 48q12 34 27.5 57.5t33.5 38t39 22.5t45 11q21 3 44.5 0.5t46.5 -9.5t44 -19.5t37 -28.5l-9 -17q-31 15 -53 13.5t-37.5 -15t-26.5 -36.5t-20 -53q-13 -43 -28 -85t-32 -82q-2 -13 -2.5 -29.5t1 -34t6.5 -35
t15 -30.5q15 -23 32.5 -32.5t36 -9.5t36.5 8t32 22l21 -49q-6 -8 -28.5 -19t-46.5 -15q-11 -2 -27.5 -1.5t-34.5 5.5t-35.5 15.5t-30.5 29.5q-14 17 -20 39t-9 34q-14 -23 -29 -44.5t-31 -38.5q-21 -21 -42.5 -32t-42 -15.5t-38 -5t-29.5 -1.5q-9 0 -28 1t-41 7t-44 17.5
t-37 31.5l11 20q23 -14 43.5 -12t38.5 11.5t32 23t24 23.5q13 14 23.5 28t21 32t21.5 41.5t26 55.5q3 16 4.5 39t0 47.5t-7.5 48t-19 40.5q-30 38 -69 46l-39 -78h-13l-75 107q0 4 8 9.5t19.5 10t23.5 8t20 4.5zM114 472q-22 -4 -35 -7t-38 -5v36q72 9 132.5 32t126.5 57h18
l-33 -442q-2 -33 14 -41t54 18l12 -15q-48 -60 -87.5 -87.5t-84.5 -27.5q-56 0 -83 30t-22 100zM238 646q-45 0 -72 25t-27 67q0 25 9 45t24.5 34t36 21.5t42.5 7.5q45 0 72 -25t27 -67q0 -25 -9 -45t-24.5 -34t-36 -21.5t-42.5 -7.5z" />
    <glyph glyph-name="cid460" unicode="&#x2179;" horiz-adv-x="1020" 
d="M283 545q56 4 92 -8.5t59 -30.5q23 -21 38 -57t18 -72l14 48q12 34 30.5 57.5t40.5 38t46 22.5t48 11q21 3 44.5 0.5t46.5 -9.5t44 -19.5t37 -28.5l-9 -17q-31 15 -54.5 13.5t-41 -15t-30 -36.5t-21.5 -53q-13 -43 -28 -85t-32 -82q-2 -13 -2.5 -29.5t1 -34t6.5 -35
t15 -30.5q15 -23 34.5 -32.5t39.5 -9.5t39.5 8t33.5 22l21 -49q-6 -8 -28.5 -19t-46.5 -15q-11 -2 -29 -1.5t-37.5 5.5t-39 15.5t-32.5 29.5q-14 17 -20 39t-9 34q-14 -23 -29 -44.5t-31 -38.5q-19 -19 -42.5 -29.5t-47 -15.5t-43 -6.5t-29.5 -2.5q-9 0 -31 1t-48 7
t-51 17.5t-40 31.5l11 20q23 -14 45.5 -12t42 11.5t35 23t25.5 23.5q13 14 25 28t24 32t25 41.5t28 55.5q3 16 4.5 39t0 47.5t-7.5 48t-19 40.5q-15 20 -37 31t-42 15l-39 -78h-13l-75 107q0 4 8 9.5t19.5 10t23.5 8t20 4.5z" />
    <glyph glyph-name="cid171" unicode="&#x2190;" 
d="M302 278l122 -141l-46 -45l-354 230l368 230l27 -61l-115 -124h671v-89h-673z" />
    <glyph glyph-name="cid172" unicode="&#x2191;" 
d="M454 540l-139 -119l-45 46l230 354l230 -368l-62 -27l-121 113v-679h-93v680z" />
    <glyph glyph-name="cid170" unicode="&#x2192;" 
d="M24 278v89h671l-115 124l27 61l368 -230l-354 -230l-46 45l122 141h-673z" />
    <glyph glyph-name="cid173" unicode="&#x2193;" 
d="M454 806h93v-679l121 113l62 -27l-230 -368l-230 354l45 46l139 -119v680z" />
    <glyph glyph-name="cid174" unicode="&#x2194;" 
d="M283 278l125 -141l-46 -45l-355 230l365 230l31 -61l-119 -124h431l-119 124l31 61l365 -230l-355 -230l-46 45l128 141h-436z" />
    <glyph glyph-name="cid247" unicode="&#x2195;" 
d="M454 545l-139 -119l-45 46l230 354l230 -364l-62 -31l-121 113v-428l121 113l62 -31l-230 -364l-230 354l45 46l139 -119v430z" />
    <glyph glyph-name="cid250" unicode="&#x2196;" 
d="M302 458l-12 -186h-66l-87 415l419 -99l-14 -61l-176 -7l497 -496l-63 -63z" />
    <glyph glyph-name="cid248" unicode="&#x2197;" 
d="M200 -39l-63 63l497 496l-176 7l-14 61l419 99l-87 -415h-66l-12 186z" />
    <glyph glyph-name="cid251" unicode="&#x2198;" 
d="M698 191l12 186h66l87 -415l-419 99l14 61l176 7l-497 496l63 63z" />
    <glyph glyph-name="cid249" unicode="&#x2199;" 
d="M800 688l63 -63l-497 -496l176 -7l14 -61l-419 -99l87 415h66l12 -186z" />
    <glyph glyph-name="cid195" unicode="&#x21d2;" 
d="M49 386v87h635l-97 95l69 66l294 -297l-291 -291l-75 61l100 92h-635v90h720l49 49l-48 48h-721z" />
    <glyph glyph-name="cid196" unicode="&#x21d4;" 
d="M372 107l-75 -61l-291 291l294 297l69 -66l-97 -95h457l-97 95l69 66l294 -297l-291 -291l-75 61l100 92h-457zM186 386l-48 -48l49 -49h627l49 49l-48 48h-629z" />
    <glyph glyph-name="cid197" unicode="&#x2200;" horiz-adv-x="758" 
d="M364 400h-164l61 -262zM182 445h197l65 180q6 16 16 32t24 29t33 21t43 8q48 0 97.5 -26t103.5 -89l-16 -23q-44 29 -73 24t-41 -47l-221 -492q-8 -26 -24.5 -44t-39.5 -18h-105l-157 613q-12 26 -23.5 33.5t-34.5 7.5h-28v46h195v-46h-26q-23 0 -29 -11.5t2 -25.5z" />
    <glyph glyph-name="cid151" unicode="&#x2202;" 
d="M252 555q8 15 23 33t36 38q32 31 82 57.5t110 31.5q91 7 153.5 -15t101 -64.5t55 -100t16.5 -119.5q0 -51 -12 -101.5t-33 -96t-49.5 -86t-61.5 -72.5q-26 -25 -61 -44t-74.5 -31.5t-82 -18.5t-84.5 -4q-45 1 -81.5 14t-62.5 35t-40.5 51.5t-14.5 65.5q0 76 37 133.5
t100 95.5t145.5 55.5t173.5 13.5q-3 32 -7.5 73t-18.5 76.5t-40 56.5t-71 14q-28 -5 -57 -18t-54.5 -30.5t-46.5 -37.5t-34 -39zM539 78q15 19 28.5 46.5t24.5 64.5t19.5 85.5t13.5 110.5q-52 1 -98 -19t-80.5 -54.5t-54.5 -81t-20 -98.5q0 -49 15.5 -77.5t40 -35.5t54 7.5
t57.5 51.5z" />
    <glyph glyph-name="cid198" unicode="&#x2203;" horiz-adv-x="704" 
d="M554 59q2 -23 -14 -41t-45 -18h-484v49h341l29 295h-280v47h285l26 261h-323v48h585v-44h-45q-8 0 -16 -5t-6 -20z" />
    <glyph glyph-name="cid152" unicode="&#x2207;" 
d="M516 -41l-442 689h892zM290 570l251 -402l263 402h-514z" />
    <glyph glyph-name="cid184" unicode="&#x2208;" 
d="M832 151v-95h-396q-62 0 -112 20t-85 56.5t-53.5 87t-18.5 110.5q0 59 19.5 109.5t54.5 87t83.5 57t107.5 20.5h397v-96h-391q-57 0 -102.5 -32.5t-58.5 -98.5h554v-94h-554q12 -66 55 -99t103 -33h397z" />
    <glyph glyph-name="cid185" unicode="&#x220b;" 
d="M564 151q60 0 103 33t55 99h-554v94h553q-13 66 -58 98.5t-102 32.5h-391v96h397q59 0 107.5 -20.5t83.5 -57t54.5 -87t19.5 -109.5q0 -60 -18.5 -110.5t-53.5 -87t-85 -56.5t-112 -20h-396v95h397z" />
    <glyph glyph-name="cid213" unicode="&#x220f;" 
d="M407 642v-573q-2 -21 -15.5 -36t-33.5 -25t-44.5 -15t-47.5 -5q-68 0 -67 51v550q0 19 -1 31.5t-5 19.5q-5 12 -21 12h-43v48h741v-48h-43q-16 0 -21 -12q-4 -7 -5 -19.5t-1 -31.5v-520q-2 -21 -15.5 -36t-33.5 -25t-44.5 -15t-47.5 -5q-68 0 -67 51v603h-185z" />
    <glyph glyph-name="cid212" unicode="&#x2211;" 
d="M686 643h-306l149 -234q15 -21 11.5 -40.5t-18.5 -40.5l-158 -271h283l89 114l15 -4l19 -139v-28h-605q-25 0 -30.5 2.5t-5.5 14.5q0 6 11 20l207 321l-195 308q-4 5 -6 9.5t-2 14.5q0 7 4.5 9t23.5 2h638v-28l-19 -139l-15 -4z" />
    <glyph glyph-name="cid178" unicode="&#x221a;" 
d="M992 736h-181l-417 -818h-116l-119 340l-78 -59l-54 63l215 161l122 -328l364 708h264v-67z" />
    <glyph glyph-name="cid180" unicode="&#x221d;" 
d="M790 479q-16 20 -39.5 30.5t-46.5 10.5q-25 0 -48 -10.5t-43 -28.5t-36 -41.5t-26 -48.5q7 -27 23 -50.5t37 -41t45 -27.5t48 -10q22 0 45 8.5t39 29.5l55 -86q-26 -27 -62.5 -37t-78.5 -10q-64 0 -115.5 29.5t-85.5 80.5q-34 -50 -84.5 -80t-119.5 -30q-48 0 -91.5 14
t-76.5 42t-53 70.5t-20 100.5q0 50 18 92t50 72t76 46.5t97 16.5q66 0 118 -30.5t85 -82.5q34 49 86.5 81t115.5 32q57 0 91 -18t46 -34zM294 262q28 0 53.5 11t45.5 29t35 42t22 50q-8 28 -23.5 51t-36.5 39.5t-45.5 26t-50.5 9.5q-49 0 -82.5 -33.5t-33.5 -92.5
q0 -58 32.5 -95t83.5 -37z" />
    <glyph glyph-name="cid136" unicode="&#x221e;" 
d="M939 394q0 -59 -19 -101.5t-51 -70.5t-75.5 -41.5t-91.5 -13.5q-64 0 -115.5 29.5t-85.5 80.5q-34 -50 -84.5 -80t-119.5 -30q-48 0 -90.5 13t-75 40.5t-51.5 70.5t-19 103q0 52 17 94.5t48.5 71.5t74.5 45t96 16q66 0 118 -30.5t85 -82.5q34 49 86.5 81t115.5 32
q49 0 92 -15.5t75.5 -44.5t51 -71t18.5 -96zM828 394q0 28 -9.5 52t-26 41t-39.5 27t-49 10q-25 0 -48 -11t-43 -30t-36 -43t-26 -49q7 -27 23 -51t37 -42t45 -28.5t48 -10.5q25 0 47.5 9.5t39.5 27t27 42.5t10 56zM294 259q28 0 53.5 11t45.5 30t35 43.5t22 50.5
q-8 28 -23.5 51.5t-36.5 41t-45.5 27.5t-50.5 10q-24 0 -46 -9.5t-38.5 -26.5t-26 -41t-9.5 -53t9 -53.5t25.5 -42.5t38 -28.5t47.5 -10.5z" />
    <glyph glyph-name="cid148" unicode="&#x2220;" 
d="M360 66h547v-111h-819l667 713l86 -84z" />
    <glyph glyph-name="cid192" unicode="&#x2227;" 
d="M502 726l334 -695l-95 -38l-240 509l-242 -514l-95 45z" />
    <glyph glyph-name="cid193" unicode="&#x2228;" 
d="M164 637l95 45l242 -514l240 508l95 -37l-334 -695z" />
    <glyph glyph-name="cid191" unicode="&#x2229;" 
d="M501 598q-45 0 -78 -12.5t-55 -35.5t-32.5 -55t-10.5 -71v-397h-109v400q0 63 20 111.5t57 82.5t89.5 51.5t117.5 17.5q64 0 116.5 -18.5t89.5 -52t57 -81.5t20 -107v-404h-109v394q0 37 -10 69t-31.5 56t-54 38t-77.5 14z" />
    <glyph glyph-name="cid190" unicode="&#x222a;" 
d="M501 89q45 0 77.5 14t54 38t31.5 56t10 69v394h109v-404q0 -59 -20 -107t-57 -81.5t-89.5 -52t-116.5 -18.5q-65 0 -117.5 17.5t-89.5 51.5t-57 82.5t-20 111.5v400h109v-397q0 -39 10.5 -71t32.5 -55t55 -35.5t78 -12.5z" />
    <glyph glyph-name="cid182" unicode="&#x222b;" 
d="M427 -103q-27 -7 -50.5 -5.5t-42.5 9t-32 20t-18 28.5l77 114l13 -2l44 -87q8 0 19 19.5t16 54.5q5 37 0.5 63.5t-12 54.5t-14 64.5t-6.5 94.5q1 127 29.5 213.5t77.5 141.5q10 12 26.5 21t28.5 12q54 14 91 -1t47 -47l-77 -114l-13 2l-44 87q-5 0 -10.5 -7.5t-11 -18.5
t-9.5 -23.5t-5 -21.5q-4 -22 0 -44t10 -49.5t12 -62.5t6 -83q0 -64 -6 -132.5t-23 -128.5t-46.5 -106t-76.5 -66z" />
    <glyph glyph-name="cid183" unicode="&#x222c;" 
d="M276 -103q-27 -7 -50.5 -5.5t-42.5 9t-32 20t-18 28.5l77 114l13 -2l44 -87q8 0 19 19.5t16 54.5q5 37 0.5 63.5t-12 54.5t-14 64.5t-6.5 94.5q1 127 29.5 213.5t77.5 141.5q10 12 26.5 21t28.5 12q54 14 91 -1t47 -47l-77 -114l-13 2l-44 87q-5 0 -10.5 -7.5t-11 -18.5
t-9.5 -23.5t-5 -21.5q-4 -22 0 -44t10 -49.5t12 -62.5t6 -83q0 -64 -6 -132.5t-23 -128.5t-46.5 -106t-76.5 -66zM589 -103q-27 -7 -50.5 -5.5t-42.5 9t-32 20t-18 28.5l77 114l13 -2l44 -87q8 0 19 19.5t16 54.5q5 37 0.5 63.5t-12 54.5t-14 64.5t-6.5 94.5
q1 127 29.5 213.5t77.5 141.5q10 12 26.5 21t28.5 12q54 14 91 -1t47 -47l-77 -114l-13 2l-44 87q-5 0 -10.5 -7.5t-11 -18.5t-9.5 -23.5t-5 -21.5q-4 -22 0 -44t10 -49.5t12 -62.5t6 -83q0 -64 -6 -132.5t-23 -128.5t-46.5 -106t-76.5 -66z" />
    <glyph glyph-name="cid211" unicode="&#x222e;" 
d="M289 311q0 77 43.5 128.5t113.5 66.5q11 56 30.5 99t48.5 75q10 12 26.5 21t28.5 12q54 14 91 -1t47 -47l-77 -114l-13 2l-44 87q-5 0 -10.5 -7.5t-11 -18.5t-9.5 -23.5t-5 -21.5q-6 -36 -5 -62q36 -7 66.5 -23.5t52.5 -42t34 -58.5t12 -72q0 -35 -11.5 -66.5t-32 -57
t-49.5 -44t-64 -27.5q-7 -37 -17.5 -71.5t-26 -63.5t-36 -50.5t-47.5 -33.5q-27 -7 -50.5 -5.5t-42.5 9t-32 20t-18 28.5l77 114l13 -2l44 -87q8 0 19 19.5t16 54.5q5 30 3 66q-36 7 -66.5 25t-52 44t-33.5 59t-12 69zM379 313q0 -40 18 -69.5t50 -43.5q-5 40 -9.5 72.5
t-4.5 52.5q-1 25 -0.5 48t2.5 45q-26 -15 -41 -42.5t-15 -62.5zM564 330q1 -27 0.5 -58t-2.5 -64q25 16 39 43t14 62q0 38 -16.5 66t-45.5 42q3 -21 6 -43.5t5 -47.5z" />
    <glyph glyph-name="cid137" unicode="&#x2234;" 
d="M403 582q0 44 27 70t70 26q44 0 70 -26t26 -70q0 -43 -26 -71t-70 -28q-43 0 -70 28t-27 71zM160 162q0 43 26.5 71t68.5 28t70 -28t28 -71q0 -44 -28 -70t-70 -26t-68.5 26t-26.5 70zM647 162q0 43 27.5 71t69.5 28t69 -28t27 -71q0 -44 -27 -70t-69 -26t-69.5 26
t-27.5 70z" />
    <glyph glyph-name="cid181" unicode="&#x2235;" 
d="M403 162q0 43 27 71t70 28q44 0 70 -28t26 -71q0 -44 -26 -70t-70 -26q-43 0 -70 26t-27 70zM160 582q0 44 26.5 70t68.5 26t70 -26t28 -70q0 -43 -28 -71t-70 -28t-68.5 28t-26.5 71zM647 582q0 44 27.5 70t69.5 26t69 -26t27 -70q0 -43 -27 -71t-69 -28t-69.5 28
t-27.5 71z" />
    <glyph glyph-name="cid113" unicode="&#x223c;" 
d="M373 317q-44 10 -77.5 -10t-58.5 -65l-36 30q15 52 43 88t62.5 55.5t73 24t74.5 -5.5q2 -1 14.5 -7t30.5 -15.5t39 -20t39.5 -20t31.5 -16t15 -6.5q20 -5 41 -2t39.5 13t34.5 25t26 35l33 -29q-15 -53 -42.5 -88.5t-62 -55t-73 -24t-74.5 5.5q-3 1 -16 7.5t-31.5 16.5
t-39.5 21t-39.5 20.5t-31.5 16t-15 6.5z" />
    <glyph glyph-name="cid113" unicode="&#xff5e;" 
d="M373 317q-44 10 -77.5 -10t-58.5 -65l-36 30q15 52 43 88t62.5 55.5t73 24t74.5 -5.5q2 -1 14.5 -7t30.5 -15.5t39 -20t39.5 -20t31.5 -16t15 -6.5q20 -5 41 -2t39.5 13t34.5 25t26 35l33 -29q-15 -53 -42.5 -88.5t-62 -55t-73 -24t-74.5 5.5q-3 1 -16 7.5t-31.5 16.5
t-39.5 21t-39.5 20.5t-31.5 16t-15 6.5z" />
    <glyph glyph-name="cid113" unicode="&#x301c;" 
d="M373 317q-44 10 -77.5 -10t-58.5 -65l-36 30q15 52 43 88t62.5 55.5t73 24t74.5 -5.5q2 -1 14.5 -7t30.5 -15.5t39 -20t39.5 -20t31.5 -16t15 -6.5q20 -5 41 -2t39.5 13t34.5 25t26 35l33 -29q-15 -53 -42.5 -88.5t-62 -55t-73 -24t-74.5 5.5q-3 1 -16 7.5t-31.5 16.5
t-39.5 21t-39.5 20.5t-31.5 16t-15 6.5z" />
    <glyph glyph-name="cid179" unicode="&#x223d;" 
d="M626 317q-2 0 -15 -6.5t-31.5 -16t-39.5 -20.5t-39.5 -21t-32 -16.5t-15.5 -7.5q-36 -10 -74.5 -5.5t-73 24t-62 55t-42.5 88.5l33 29q10 -20 26 -35t34.5 -25t39.5 -13t41 2q2 1 15 7t31.5 15.5t39.5 20t39 20t30.5 15.5t14.5 7q36 10 74.5 5.5t73 -24t62.5 -55.5
t43 -88l-36 -30q-25 45 -58.5 65t-77.5 10z" />
    <glyph glyph-name="cid154" unicode="&#x2252;" 
d="M771 505v-116h-543v116h543zM771 303v-116h-543v116h543zM252 639q0 40 24 64t62 24t63.5 -24t25.5 -64q0 -39 -25.5 -65t-63.5 -26t-62 26t-24 65zM579 55q0 40 24 64t62 24t63.5 -24t25.5 -64q0 -39 -25.5 -65t-63.5 -26t-62 26t-24 65z" />
    <glyph glyph-name="cid133" unicode="&#x2260;" 
d="M397 283l56 116h-225v116h281l82 170l118 -55l-56 -115h118v-116h-175l-56 -116h231v-116h-288l-81 -168l-115 55l54 113h-113v116h169z" />
    <glyph glyph-name="cid153" unicode="&#x2261;" 
d="M771 389v-114h-543v114h543zM771 151v-114h-543v114h543zM771 623v-114h-543v114h543z" />
    <glyph glyph-name="cid134" unicode="&#x2264;" 
d="M701 739v-123l-246 -137l250 -140v-124l-410 221v82zM737 193v-101h-474v101h474z" />
    <glyph glyph-name="cid135" unicode="&#x2265;" 
d="M705 518v-82l-410 -221v124l250 140l-246 137v123zM737 193v-101h-474v101h474z" />
    <glyph glyph-name="cid188" unicode="&#x2282;" 
d="M271 335q0 -38 10.5 -71.5t30.5 -58.5t50.5 -39.5t70.5 -14.5h399v-95h-396q-61 0 -110.5 19.5t-85 56t-54.5 88t-19 114.5q0 64 22 114.5t59.5 85t88 52.5t107.5 18h386v-96h-384q-37 0 -69 -11.5t-55.5 -34t-37 -54.5t-13.5 -73z" />
    <glyph glyph-name="cid189" unicode="&#x2283;" 
d="M728 335q0 41 -13.5 73t-37 54.5t-55.5 34t-69 11.5h-384v96h386q57 0 107.5 -18t88 -52.5t59.5 -85t22 -114.5q0 -63 -19.5 -114.5t-54.5 -88t-84.5 -56t-110.5 -19.5h-396v95h399q40 0 70.5 14.5t50.5 39.5t30.5 58.5t10.5 71.5z" />
    <glyph glyph-name="cid186" unicode="&#x2286;" 
d="M172 21v93h666v-93h-666zM264 438q0 -72 39.5 -112t124.5 -40h399v-97h-396q-134 0 -202 66.5t-68 181.5q0 60 21 104t58.5 73.5t88 44t110.5 14.5h386v-97h-384q-38 0 -70.5 -8.5t-56 -26t-37 -43.5t-13.5 -60z" />
    <glyph glyph-name="cid187" unicode="&#x2287;" 
d="M162 21v93h666v-93h-666zM735 438q0 34 -13.5 60t-37 43.5t-56 26t-70.5 8.5h-384v97h386q60 0 110.5 -14.5t88 -44t58.5 -73.5t21 -104q0 -115 -68 -181.5t-202 -66.5h-396v97h399q85 0 124.5 40t39.5 112z" />
    <glyph glyph-name="cid227" unicode="&#x2299;" 
d="M401 298q0 42 28.5 70.5t69.5 28.5q42 0 70.5 -28.5t28.5 -70.5q0 -43 -28.5 -70.5t-70.5 -27.5q-41 0 -69.5 27.5t-28.5 70.5zM11 298q0 102 38.5 188t104.5 148.5t155 98t191 35.5t191 -35.5t155 -98t104.5 -148.5t38.5 -188t-38.5 -188t-104.5 -148.5t-155 -98
t-191 -35.5t-191 35.5t-155 98t-104.5 148.5t-38.5 188zM94 298q0 -85 32 -157t87 -124t129 -81.5t158 -29.5t158 29.5t129 81.5t87 124t32 157t-32 157t-87 124t-129 81.5t-158 29.5t-158 -29.5t-129 -81.5t-87 -124t-32 -157z" />
    <glyph glyph-name="cid227" unicode="&#x25c9;" 
d="M401 298q0 42 28.5 70.5t69.5 28.5q42 0 70.5 -28.5t28.5 -70.5q0 -43 -28.5 -70.5t-70.5 -27.5q-41 0 -69.5 27.5t-28.5 70.5zM11 298q0 102 38.5 188t104.5 148.5t155 98t191 35.5t191 -35.5t155 -98t104.5 -148.5t38.5 -188t-38.5 -188t-104.5 -148.5t-155 -98
t-191 -35.5t-191 35.5t-155 98t-104.5 148.5t-38.5 188zM94 298q0 -85 32 -157t87 -124t129 -81.5t158 -29.5t158 29.5t129 81.5t87 124t32 157t-32 157t-87 124t-129 81.5t-158 29.5t-158 -29.5t-129 -81.5t-87 -124t-32 -157z" />
    <glyph glyph-name="cid149" unicode="&#x22a5;" 
d="M150 114h284v499h131v-499h284v-115h-699v115z" />
    <glyph glyph-name="cid150" unicode="&#x2312;" 
d="M115 -30q12 84 45 152t83.5 116t115.5 73.5t140 25.5q79 0 145.5 -28t116.5 -77t82 -116.5t42 -145.5h-129q-10 56 -30.5 104t-52.5 83.5t-75.5 55.5t-98.5 20t-99.5 -20.5t-77.5 -56t-53 -83.5t-26 -103h-128z" />
    <glyph glyph-name="cid733" unicode="&#x2460;" horiz-adv-x="1050" 
d="M111 309q0 -89 32 -167t88 -136t131.5 -91t162.5 -33q86 0 161.5 33t131.5 91t88 136t32 167q0 88 -32 165.5t-88 135.5t-131.5 91t-161.5 33q-87 0 -162.5 -33t-131.5 -91t-88 -135.5t-32 -165.5zM524 805q103 0 194 -39t158 -106.5t106 -158t39 -193.5t-39 -193.5
t-106 -158t-158 -106.5t-194 -39t-193.5 39t-157.5 106.5t-106 158t-39 193.5t39 193.5t106 158t157.5 106.5t193.5 39zM582 123q-2 -26 -10.5 -44t-21 -29t-27.5 -16t-30 -5h-82l44 453q2 20 -3 29.5t-23 9.5h-44v38h29q33 1 63 8.5t55.5 16.5t45.5 16t33 7q11 0 14.5 -3.5
t2.5 -11.5z" />
    <glyph glyph-name="cid734" unicode="&#x2461;" horiz-adv-x="1050" 
d="M111 309q0 -89 32 -167t88 -136t131.5 -91t162.5 -33q86 0 161.5 33t131.5 91t88 136t32 167q0 88 -32 165.5t-88 135.5t-131.5 91t-161.5 33q-87 0 -162.5 -33t-131.5 -91t-88 -135.5t-32 -165.5zM524 805q103 0 194 -39t158 -106.5t106 -158t39 -193.5t-39 -193.5
t-106 -158t-158 -106.5t-194 -39t-193.5 39t-157.5 106.5t-106 158t-39 193.5t39 193.5t106 158t157.5 106.5t193.5 39zM319 496q15 43 37.5 68t51 37.5t62 16t69.5 3.5q48 0 83.5 -13.5t59.5 -34.5t36 -48.5t13 -56.5q0 -42 -16.5 -74.5t-44.5 -58.5t-64.5 -47.5
t-75.5 -40.5q-15 -8 -31 -17.5t-31.5 -20.5t-29.5 -21.5t-24 -19.5v-6q28 16 58.5 21.5t61.5 4t62.5 -6.5t62.5 -9q67 -8 69 62l16 1q13 -47 1.5 -84.5t-38 -63.5t-62 -39.5t-70.5 -11.5q-18 2 -49.5 8t-70.5 29q-14 8 -29 15.5t-31.5 10t-33.5 -1t-33 -18.5l-17 -17
q-8 -8 -18 -7.5t-14 5.5q-5 6 -5.5 13.5t7.5 14.5l132 133q26 27 51.5 49t46.5 46t35.5 54t19.5 74q4 42 -7.5 73t-47.5 46q-26 7 -51 5t-46.5 -12.5t-37 -28t-22.5 -41.5z" />
    <glyph glyph-name="cid735" unicode="&#x2462;" horiz-adv-x="1050" 
d="M111 309q0 -89 32 -167t88 -136t131.5 -91t162.5 -33q86 0 161.5 33t131.5 91t88 136t32 167q0 88 -32 165.5t-88 135.5t-131.5 91t-161.5 33q-87 0 -162.5 -33t-131.5 -91t-88 -135.5t-32 -165.5zM524 805q103 0 194 -39t158 -106.5t106 -158t39 -193.5t-39 -193.5
t-106 -158t-158 -106.5t-194 -39t-193.5 39t-157.5 106.5t-106 158t-39 193.5t39 193.5t106 158t157.5 106.5t193.5 39zM325 518q18 35 44 54.5t54.5 29.5t57.5 12t54 2q109 -2 157.5 -40.5t49.5 -101.5q0 -55 -28 -85.5t-68 -44.5q44 -17 73 -52t29 -86q0 -57 -29 -100
t-100 -63q-26 -8 -58.5 -11t-64 -3t-59 2.5t-43.5 7.5q-26 7 -46 19.5t-35 26.5t-24.5 27t-12.5 22l86 76l12 -6v-115q30 -17 66 -19.5t68 10.5q29 11 49.5 44.5t21.5 90.5q0 19 -5.5 39t-18 36.5t-33.5 27t-51 11.5h-68v36h55q52 0 85.5 26t34.5 84q2 47 -20.5 71.5
t-58.5 29.5q-24 3 -46.5 -2.5t-41.5 -16.5t-32.5 -26t-20.5 -31z" />
    <glyph glyph-name="cid736" unicode="&#x2463;" horiz-adv-x="1050" 
d="M111 309q0 -89 32 -167t88 -136t131.5 -91t162.5 -33q86 0 161.5 33t131.5 91t88 136t32 167q0 88 -32 165.5t-88 135.5t-131.5 91t-161.5 33q-87 0 -162.5 -33t-131.5 -91t-88 -135.5t-32 -165.5zM524 805q103 0 194 -39t158 -106.5t106 -158t39 -193.5t-39 -193.5
t-106 -158t-158 -106.5t-194 -39t-193.5 39t-157.5 106.5t-106 158t-39 193.5t39 193.5t106 158t157.5 106.5t193.5 39zM228 223l257 314q24 31 46 47.5t43 24t41.5 8.5t42.5 1q21 0 28.5 -10.5t6.5 -23.5l-35 -363h96v-40h-100l-4 -45q-8 -52 -33.5 -73t-55.5 -21h-82
l14 139h-265v42zM277 221h220l26 260q1 8 -1.5 11.5t-7 3.5t-10 -3.5t-9.5 -8.5z" />
    <glyph glyph-name="cid737" unicode="&#x2464;" horiz-adv-x="1050" 
d="M111 309q0 -89 32 -167t88 -136t131.5 -91t162.5 -33q86 0 161.5 33t131.5 91t88 136t32 167q0 88 -32 165.5t-88 135.5t-131.5 91t-161.5 33q-87 0 -162.5 -33t-131.5 -91t-88 -135.5t-32 -165.5zM524 805q103 0 194 -39t158 -106.5t106 -158t39 -193.5t-39 -193.5
t-106 -158t-158 -106.5t-194 -39t-193.5 39t-157.5 106.5t-106 158t-39 193.5t39 193.5t106 158t157.5 106.5t193.5 39zM354 198l12 -6v-112q32 -15 66 -18.5t60 6.5q34 14 53.5 49t17.5 95q-1 24 -7.5 45.5t-21.5 38t-38 26.5t-57 10h-92q-10 0 -18 7t-5 25l30 190
q2 7 5 15t10.5 14.5t19.5 11.5t32 7q31 3 63.5 -0.5t62 -10t55 -13.5t43.5 -10q42 -9 62 -2.5t25 32.5h16q2 -40 -11 -68t-36 -45.5t-54 -24.5t-65 -4q-27 1 -51 7t-45 13.5t-39 14.5t-33 12q-4 1 -15.5 1.5t-13.5 -12.5l-20 -125h123q47 0 90.5 -7t76.5 -25t53 -49t20 -79
q0 -24 -6 -50t-20.5 -50t-39.5 -43.5t-62 -31.5q-45 -11 -95.5 -14t-96.5 7t-83 33.5t-56 64.5z" />
    <glyph glyph-name="cid738" unicode="&#x2465;" horiz-adv-x="1050" 
d="M111 309q0 -89 32 -167t88 -136t131.5 -91t162.5 -33q86 0 161.5 33t131.5 91t88 136t32 167q0 88 -32 165.5t-88 135.5t-131.5 91t-161.5 33q-87 0 -162.5 -33t-131.5 -91t-88 -135.5t-32 -165.5zM524 805q103 0 194 -39t158 -106.5t106 -158t39 -193.5t-39 -193.5
t-106 -158t-158 -106.5t-194 -39t-193.5 39t-157.5 106.5t-106 158t-39 193.5t39 193.5t106 158t157.5 106.5t193.5 39zM696 507q-23 35 -58 52.5t-76 15.5q-33 -2 -58 -18.5t-42.5 -43t-27 -60t-10.5 -69.5q17 12 45.5 22.5t69.5 11.5q52 1 91.5 -12t66 -37t39.5 -57.5
t12 -72.5q-1 -54 -22 -96.5t-66 -73.5q-17 -11 -38 -18.5t-42.5 -12t-42.5 -6t-37 -1.5q-51 0 -83 8q-45 10 -75 37.5t-47 66t-22.5 86t-0.5 98.5q8 77 32.5 129t63.5 91q25 25 52.5 40t54 22t51.5 8.5t46 0.5q18 -1 40 -5t44.5 -13.5t42 -27.5t33.5 -48zM421 219
q-5 -78 19.5 -114t59.5 -38q16 -1 33.5 7t32 28.5t23.5 54.5t9 86q0 72 -21 103.5t-53 31.5q-21 0 -39.5 -12.5t-32 -34t-21.5 -50.5t-10 -62z" />
    <glyph glyph-name="cid739" unicode="&#x2466;" horiz-adv-x="1050" 
d="M111 309q0 -89 32 -167t88 -136t131.5 -91t162.5 -33q86 0 161.5 33t131.5 91t88 136t32 167q0 88 -32 165.5t-88 135.5t-131.5 91t-161.5 33q-87 0 -162.5 -33t-131.5 -91t-88 -135.5t-32 -165.5zM524 805q103 0 194 -39t158 -106.5t106 -158t39 -193.5t-39 -193.5
t-106 -158t-158 -106.5t-194 -39t-193.5 39t-157.5 106.5t-106 158t-39 193.5t39 193.5t106 158t157.5 106.5t193.5 39zM743 592q8 0 12 -8.5t-2 -19.5q-41 -57 -73 -108.5t-57 -105.5t-44 -114t-34 -133q-4 -32 -26.5 -57t-63.5 -25h-90q1 10 8.5 50.5t27.5 91.5
q21 52 50 99.5t59.5 88t59.5 72t49 51.5h-293v118h417z" />
    <glyph glyph-name="cid740" unicode="&#x2467;" horiz-adv-x="1050" 
d="M111 309q0 -89 32 -167t88 -136t131.5 -91t162.5 -33q86 0 161.5 33t131.5 91t88 136t32 167q0 88 -32 165.5t-88 135.5t-131.5 91t-161.5 33q-87 0 -162.5 -33t-131.5 -91t-88 -135.5t-32 -165.5zM524 805q103 0 194 -39t158 -106.5t106 -158t39 -193.5t-39 -193.5
t-106 -158t-158 -106.5t-194 -39t-193.5 39t-157.5 106.5t-106 158t-39 193.5t39 193.5t106 158t157.5 106.5t193.5 39zM551 616q64 0 104.5 -13.5t63.5 -33.5t31.5 -43t8.5 -41q0 -54 -30.5 -90.5t-78.5 -51.5q36 -8 64 -25q19 -12 30.5 -27t17.5 -30t8 -28t2 -20
q0 -35 -14 -69.5t-57 -66.5q-20 -15 -46.5 -25t-54 -16t-53 -8.5t-43.5 -2.5q-50 0 -95.5 4.5t-78.5 21.5q-45 21 -61.5 53t-16.5 69q0 10 1.5 23t6.5 28t14.5 30t24.5 29q20 18 42 30.5t48 20.5q-42 9 -65.5 38.5t-23.5 70.5q0 34 15.5 66t53.5 60q35 26 83 36.5t99 10.5z
M518 324q-19 0 -37 -8t-32 -24.5t-23.5 -43.5t-10.5 -64q0 -25 5 -47t16 -37.5t29 -24.5t43 -8q50 3 75 45.5t23 120.5q-1 37 -22.5 64t-65.5 27zM537 578q-17 0 -38 -12t-35 -43q-14 -29 -14 -72q0 -42 19 -66t54 -22q15 0 30 6.5t27 21t19.5 39t9.5 61.5q1 36 -16.5 61.5
t-55.5 25.5z" />
    <glyph glyph-name="cid741" unicode="&#x2468;" horiz-adv-x="1050" 
d="M111 309q0 -89 32 -167t88 -136t131.5 -91t162.5 -33q86 0 161.5 33t131.5 91t88 136t32 167q0 88 -32 165.5t-88 135.5t-131.5 91t-161.5 33q-87 0 -162.5 -33t-131.5 -91t-88 -135.5t-32 -165.5zM524 805q103 0 194 -39t158 -106.5t106 -158t39 -193.5t-39 -193.5
t-106 -158t-158 -106.5t-194 -39t-193.5 39t-157.5 106.5t-106 158t-39 193.5t39 193.5t106 158t157.5 106.5t193.5 39zM331 139q26 -36 62.5 -47t65.5 -11q17 0 34.5 3.5t34.5 12.5q31 17 51.5 58t25.5 98q-11 -6 -39 -18.5t-64 -13.5q-86 0 -145 36q-35 23 -52.5 59
t-17.5 79q0 21 4.5 44t13.5 45.5t22.5 43t31.5 36.5q23 20 48 32t49.5 18t47.5 8t42 1q68 -2 111.5 -22t68.5 -51.5t34.5 -72t10.5 -82.5q0 -41 -4 -83t-14.5 -81t-29 -74t-48.5 -62q-27 -24 -59 -36.5t-62 -18t-55.5 -5.5t-38.5 1q-16 1 -37 3.5t-43 10.5t-43.5 23
t-39.5 41zM507 265q18 0 38.5 8.5t37.5 42.5q4 7 8.5 24t8 39.5t5 49t0.5 53.5q-2 31 -9.5 50.5t-18.5 31t-24 15.5t-26 3q-15 0 -35.5 -10t-35.5 -41q-7 -14 -11.5 -33t-6.5 -39t-3 -39.5t0 -34.5q3 -68 22.5 -94t49.5 -26z" />
    <glyph glyph-name="cid742" unicode="&#x2469;" horiz-adv-x="1050" 
d="M111 309q0 -89 32 -167t88 -136t131.5 -91t162.5 -33q86 0 161.5 33t131.5 91t88 136t32 167q0 88 -32 165.5t-88 135.5t-131.5 91t-161.5 33q-87 0 -162.5 -33t-131.5 -91t-88 -135.5t-32 -165.5zM524 805q103 0 194 -39t158 -106.5t106 -158t39 -193.5t-39 -193.5
t-106 -158t-158 -106.5t-194 -39t-193.5 39t-157.5 106.5t-106 158t-39 193.5t39 193.5t106 158t157.5 106.5t193.5 39zM365 133q-5 -48 -29 -66t-51 -18h-73l38 406q2 17 -2 26.5t-20 9.5h-40v33h26q29 1 56 8t50.5 14.5t41.5 14t29 6.5q16 0 15 -13zM644 42
q-61 -3 -103.5 13.5t-69.5 45t-39.5 66.5t-12.5 79q0 156 64 239t186 87q60 3 101.5 -13t67.5 -44.5t38 -66t12 -77.5q0 -155 -61.5 -240t-182.5 -89zM668 538q-19 0 -37 -14t-32 -47.5t-22.5 -88.5t-8.5 -137q0 -57 6.5 -91t17 -52.5t24.5 -24.5t29 -6q19 0 36 14.5
t30 48.5t20.5 89.5t7.5 137.5q0 56 -6 90t-15.5 52t-22.5 23.5t-27 5.5z" />
    <glyph glyph-name="cid743" unicode="&#x246a;" horiz-adv-x="1050" 
d="M111 309q0 -89 32 -167t88 -136t131.5 -91t162.5 -33q86 0 161.5 33t131.5 91t88 136t32 167q0 88 -32 165.5t-88 135.5t-131.5 91t-161.5 33q-87 0 -162.5 -33t-131.5 -91t-88 -135.5t-32 -165.5zM524 805q103 0 194 -39t158 -106.5t106 -158t39 -193.5t-39 -193.5
t-106 -158t-158 -106.5t-194 -39t-193.5 39t-157.5 106.5t-106 158t-39 193.5t39 193.5t106 158t157.5 106.5t193.5 39zM422 132q-2 -24 -9.5 -40t-18.5 -25.5t-24.5 -14t-26.5 -4.5h-74l39 406q2 17 -2.5 26.5t-20.5 9.5h-39v33h25q30 1 57 8t50 14.5t41 14t30 6.5
q9 0 12 -3t2 -10zM744 132q-2 -24 -9.5 -40t-18.5 -25.5t-24.5 -14t-26.5 -4.5h-74l39 406q2 17 -2.5 26.5t-20.5 9.5h-39v33h25q30 1 57 8t50 14.5t41 14t30 6.5q9 0 12 -3t2 -10z" />
    <glyph glyph-name="cid744" unicode="&#x246b;" horiz-adv-x="1050" 
d="M111 309q0 -89 32 -167t88 -136t131.5 -91t162.5 -33q86 0 161.5 33t131.5 91t88 136t32 167q0 88 -32 165.5t-88 135.5t-131.5 91t-161.5 33q-87 0 -162.5 -33t-131.5 -91t-88 -135.5t-32 -165.5zM524 805q103 0 194 -39t158 -106.5t106 -158t39 -193.5t-39 -193.5
t-106 -158t-158 -106.5t-194 -39t-193.5 39t-157.5 106.5t-106 158t-39 193.5t39 193.5t106 158t157.5 106.5t193.5 39zM387 134q-4 -47 -28.5 -66t-51.5 -19h-74l40 408q1 17 -3 26t-21 9h-39v34h26q29 1 56 8t50 14.5t41 14t30 6.5q10 0 13 -3t2 -10zM461 462
q13 39 33.5 61.5t46.5 34t56 14.5t62 3q43 0 75 -12t53.5 -31.5t32.5 -44t12 -50.5q0 -38 -15 -67t-40 -52.5t-58 -42.5t-68 -37q-26 -14 -56 -34.5t-48 -36.5v-6q25 15 52.5 19.5t55.5 3.5t56 -5.5t56 -8.5q60 -6 62 56l15 1q12 -42 1 -75.5t-34.5 -57t-55.5 -36t-63 -10.5
q-17 2 -45 7.5t-63 25.5q-12 7 -26 14t-29 9.5t-30 -1t-30 -16.5l-15 -16q-7 -7 -16 -6.5t-13 5.5q-5 5 -5 12t7 13l119 120q24 24 47 43.5t41.5 41.5t32 49t17.5 66q3 38 -7.5 65.5t-42.5 41.5q-23 6 -45.5 4t-42 -11t-33.5 -25t-20 -37z" />
    <glyph glyph-name="cid745" unicode="&#x246c;" horiz-adv-x="1050" 
d="M111 309q0 -89 32 -167t88 -136t131.5 -91t162.5 -33q86 0 161.5 33t131.5 91t88 136t32 167q0 88 -32 165.5t-88 135.5t-131.5 91t-161.5 33q-87 0 -162.5 -33t-131.5 -91t-88 -135.5t-32 -165.5zM524 805q103 0 194 -39t158 -106.5t106 -158t39 -193.5t-39 -193.5
t-106 -158t-158 -106.5t-194 -39t-193.5 39t-157.5 106.5t-106 158t-39 193.5t39 193.5t106 158t157.5 106.5t193.5 39zM380 133q-4 -47 -28.5 -66t-51.5 -19h-74l40 408q2 17 -2.5 26t-21.5 9h-39v34h26q29 1 56 8t50.5 14.5t41.5 14t29 6.5q10 0 13 -3t2 -10zM457 488
q16 31 39.5 49t49 27t51.5 10.5t49 1.5q98 -1 141.5 -36t44.5 -91q0 -50 -25.5 -77t-60.5 -40q39 -15 65 -46.5t26 -78.5q0 -51 -25.5 -89.5t-90.5 -56.5q-23 -7 -52.5 -10t-58 -3t-53 2.5t-38.5 6.5q-23 6 -41 17.5t-31.5 24t-22 24.5t-11.5 20l77 68l11 -5v-104
q27 -15 59 -17t61 9q26 10 44.5 40t19.5 81q0 18 -4.5 35.5t-16 32.5t-30.5 24.5t-46 10.5h-61v32h49q47 0 77 23.5t31 75.5q2 42 -18.5 64.5t-52.5 26.5q-22 3 -42 -2t-37 -15t-29.5 -23.5t-18.5 -27.5z" />
    <glyph glyph-name="cid746" unicode="&#x246d;" horiz-adv-x="1050" 
d="M111 309q0 -89 32 -167t88 -136t131.5 -91t162.5 -33q86 0 161.5 33t131.5 91t88 136t32 167q0 88 -32 165.5t-88 135.5t-131.5 91t-161.5 33q-87 0 -162.5 -33t-131.5 -91t-88 -135.5t-32 -165.5zM524 805q103 0 194 -39t158 -106.5t106 -158t39 -193.5t-39 -193.5
t-106 -158t-158 -106.5t-194 -39t-193.5 39t-157.5 106.5t-106 158t-39 193.5t39 193.5t106 158t157.5 106.5t193.5 39zM373 133q-5 -48 -29 -66t-51 -18h-74l39 407q2 18 -2 26.5t-21 8.5h-40v35h26q30 1 57 7.5t50 14.5t41 14.5t30 6.5q17 0 15 -14zM402 213l232 283
q22 28 41.5 42.5t38 21.5t37 8t38.5 1q19 0 26 -10t6 -21l-32 -327h87v-36h-90l-4 -40q-8 -47 -30.5 -66t-49.5 -19h-74l13 125h-239v38zM446 211h198l24 234q1 15 -8.5 14t-16.5 -11z" />
    <glyph glyph-name="cid747" unicode="&#x246e;" horiz-adv-x="1050" 
d="M111 309q0 -89 32 -167t88 -136t131.5 -91t162.5 -33q86 0 161.5 33t131.5 91t88 136t32 167q0 88 -32 165.5t-88 135.5t-131.5 91t-161.5 33q-87 0 -162.5 -33t-131.5 -91t-88 -135.5t-32 -165.5zM524 805q103 0 194 -39t158 -106.5t106 -158t39 -193.5t-39 -193.5
t-106 -158t-158 -106.5t-194 -39t-193.5 39t-157.5 106.5t-106 158t-39 193.5t39 193.5t106 158t157.5 106.5t193.5 39zM373 133q-5 -48 -29 -66t-51 -18h-74l39 407q2 18 -2 26.5t-21 8.5h-40v35h26q30 1 57 7.5t50 14.5t41 14.5t30 6.5q17 0 15 -14zM486 199l10 -6v-100
q29 -14 59.5 -17t54.5 6q30 12 48 43.5t16 85.5q-1 21 -7 40.5t-19.5 34.5t-34.5 24t-51 9h-83q-8 0 -15.5 6.5t-4.5 22.5l27 171q3 14 13.5 26.5t46.5 16.5q28 3 57 0t56 -8.5t49.5 -12t39.5 -9.5q37 -8 55 -2t23 29h14q2 -36 -9.5 -61.5t-32.5 -41t-48.5 -21.5t-58.5 -4
q-24 1 -45.5 6.5t-40.5 12t-35.5 13t-29.5 10.5q-4 1 -14.5 1.5t-11.5 -11.5l-18 -112h110q42 0 81 -6.5t69 -23t48 -44t18 -70.5q0 -22 -5.5 -45.5t-18.5 -45t-35 -39.5t-56 -28q-41 -10 -86.5 -12.5t-86.5 6t-74.5 30t-50.5 58.5z" />
    <glyph glyph-name="cid827" unicode="&#x2474;" horiz-adv-x="1090" 
d="M290 -118q-65 4 -118 41.5t-89 100.5t-52.5 147t-7.5 180q10 107 47.5 182.5t88 123.5t106 69.5t102.5 20.5l-4 -33q-27 -1 -60 -20.5t-64 -63t-55 -113.5t-31 -173q-8 -113 0.5 -191t29 -128.5t50 -76.5t62.5 -35zM708 -86q40 5 77 25t66.5 63.5t50 114.5t27.5 178
q7 106 -1.5 183.5t-29 128.5t-50 78t-64.5 34l4 30q56 -8 108.5 -35.5t91.5 -82t59 -139.5t11 -207q-9 -121 -43.5 -197.5t-84 -121t-108 -63t-116.5 -22.5zM595 123q-2 -26 -10.5 -44t-21 -29t-27.5 -16t-30 -5h-82l44 453q2 20 -3 29.5t-23 9.5h-44v38h29q33 1 63 8.5
t55.5 16.5t45.5 16t33 7q11 0 14.5 -3.5t2.5 -11.5z" />
    <glyph glyph-name="cid828" unicode="&#x2475;" horiz-adv-x="1090" 
d="M290 -118q-65 4 -118 41.5t-89 100.5t-52.5 147t-7.5 180q10 107 47.5 182.5t88 123.5t106 69.5t102.5 20.5l-4 -33q-27 -1 -60 -20.5t-64 -63t-55 -113.5t-31 -173q-8 -113 0.5 -191t29 -128.5t50 -76.5t62.5 -35zM708 -86q40 5 77 25t66.5 63.5t50 114.5t27.5 178
q7 106 -1.5 183.5t-29 128.5t-50 78t-64.5 34l4 30q56 -8 108.5 -35.5t91.5 -82t59 -139.5t11 -207q-9 -121 -43.5 -197.5t-84 -121t-108 -63t-116.5 -22.5zM339 496q15 43 37.5 68t51 37.5t62 16t69.5 3.5q48 0 83.5 -13.5t59.5 -34.5t36 -48.5t13 -56.5q0 -42 -16.5 -74.5
t-44.5 -58.5t-64.5 -47.5t-75.5 -40.5q-15 -8 -31 -17.5t-31.5 -20.5t-29.5 -21.5t-24 -19.5v-6q28 16 58.5 21.5t61.5 4t62.5 -6.5t62.5 -9q67 -8 69 62l16 1q13 -47 1.5 -84.5t-38 -63.5t-62 -39.5t-70.5 -11.5q-18 2 -49.5 8t-70.5 29q-14 8 -29 15.5t-31.5 10t-33.5 -1
t-33 -18.5l-17 -17q-8 -8 -18 -7.5t-14 5.5q-5 6 -5.5 13.5t7.5 14.5l132 133q26 27 51.5 49t46.5 46t35.5 54t19.5 74q4 42 -7.5 73t-47.5 46q-26 7 -51 5t-46.5 -12.5t-37 -28t-22.5 -41.5z" />
    <glyph glyph-name="cid829" unicode="&#x2476;" horiz-adv-x="1090" 
d="M290 -118q-65 4 -118 41.5t-89 100.5t-52.5 147t-7.5 180q10 107 47.5 182.5t88 123.5t106 69.5t102.5 20.5l-4 -33q-27 -1 -60 -20.5t-64 -63t-55 -113.5t-31 -173q-8 -113 0.5 -191t29 -128.5t50 -76.5t62.5 -35zM708 -86q40 5 77 25t66.5 63.5t50 114.5t27.5 178
q7 106 -1.5 183.5t-29 128.5t-50 78t-64.5 34l4 30q56 -8 108.5 -35.5t91.5 -82t59 -139.5t11 -207q-9 -121 -43.5 -197.5t-84 -121t-108 -63t-116.5 -22.5zM345 518q18 35 44 55t54.5 30.5t57.5 13t54 2.5q109 -2 157.5 -42t49.5 -103q0 -55 -28 -85.5t-68 -44.5
q44 -17 73 -52t29 -86q0 -57 -29 -100t-100 -63q-26 -8 -58.5 -11t-64 -3t-59 2.5t-43.5 7.5q-26 7 -46 19.5t-35 26.5t-24.5 27t-12.5 22l86 76l12 -6v-115q30 -17 66 -19.5t68 10.5q29 11 49.5 44.5t21.5 90.5q0 19 -5.5 39t-18 36.5t-33.5 27t-51 11.5h-68v36h55
q52 0 85.5 26t34.5 84q2 47 -20.5 71.5t-58.5 29.5q-24 3 -46.5 -2.5t-41.5 -16.5t-32.5 -26t-20.5 -31z" />
    <glyph glyph-name="cid830" unicode="&#x2477;" horiz-adv-x="1090" 
d="M290 -118q-65 4 -118 41.5t-89 100.5t-52.5 147t-7.5 180q10 107 47.5 182.5t88 123.5t106 69.5t102.5 20.5l-4 -33q-27 -1 -60 -20.5t-64 -63t-55 -113.5t-31 -173q-8 -113 0.5 -191t29 -128.5t50 -76.5t62.5 -35zM708 -86q40 5 77 25t66.5 63.5t50 114.5t27.5 178
q7 106 -1.5 183.5t-29 128.5t-50 78t-64.5 34l4 30q56 -8 108.5 -35.5t91.5 -82t59 -139.5t11 -207q-9 -121 -43.5 -197.5t-84 -121t-108 -63t-116.5 -22.5zM254 223l257 314q24 31 46 47.5t43 24t41.5 8.5t42.5 1q21 0 28.5 -10.5t6.5 -23.5l-35 -363h96v-40h-100l-4 -45
q-8 -52 -33.5 -73t-55.5 -21h-82l14 139h-265v42zM303 221h220l26 260q1 8 -1.5 11.5t-7 3.5t-10 -3.5t-9.5 -8.5z" />
    <glyph glyph-name="cid831" unicode="&#x2478;" horiz-adv-x="1090" 
d="M290 -118q-65 4 -118 41.5t-89 100.5t-52.5 147t-7.5 180q10 107 47.5 182.5t88 123.5t106 69.5t102.5 20.5l-4 -33q-27 -1 -60 -20.5t-64 -63t-55 -113.5t-31 -173q-8 -113 0.5 -191t29 -128.5t50 -76.5t62.5 -35zM708 -86q40 5 77 25t66.5 63.5t50 114.5t27.5 178
q7 106 -1.5 183.5t-29 128.5t-50 78t-64.5 34l4 30q56 -8 108.5 -35.5t91.5 -82t59 -139.5t11 -207q-9 -121 -43.5 -197.5t-84 -121t-108 -63t-116.5 -22.5zM374 198l12 -6v-112q32 -15 66 -18.5t60 6.5q34 14 53.5 49t17.5 95q-1 24 -7.5 45.5t-21.5 38t-38 26.5t-57 10
h-92q-10 0 -18 7t-5 25l30 190q2 7 5 15t10.5 14.5t19.5 11.5t32 7q31 3 63.5 -0.5t62 -10t55 -13.5t43.5 -10q42 -9 62 -2.5t25 32.5h16q2 -40 -11 -68t-36 -45.5t-54 -24.5t-65 -4q-27 1 -51 7t-45 13.5t-39 14.5t-33 12q-4 1 -15.5 1.5t-13.5 -12.5l-20 -125h123
q47 0 90.5 -7t76.5 -25t53 -49t20 -79q0 -24 -6 -50t-20.5 -50t-39.5 -43.5t-62 -31.5q-45 -11 -95.5 -14t-96.5 7t-83 33.5t-56 64.5z" />
    <glyph glyph-name="cid832" unicode="&#x2479;" horiz-adv-x="1090" 
d="M290 -118q-65 4 -118 41.5t-89 100.5t-52.5 147t-7.5 180q10 107 47.5 182.5t88 123.5t106 69.5t102.5 20.5l-4 -33q-27 -1 -60 -20.5t-64 -63t-55 -113.5t-31 -173q-8 -113 0.5 -191t29 -128.5t50 -76.5t62.5 -35zM708 -86q40 5 77 25t66.5 63.5t50 114.5t27.5 178
q7 106 -1.5 183.5t-29 128.5t-50 78t-64.5 34l4 30q56 -8 108.5 -35.5t91.5 -82t59 -139.5t11 -207q-9 -121 -43.5 -197.5t-84 -121t-108 -63t-116.5 -22.5zM720 507q-23 35 -58 52.5t-76 15.5q-33 -2 -58 -18.5t-42.5 -43t-27 -60t-10.5 -69.5q17 12 45.5 22.5t69.5 11.5
q52 1 91.5 -12t66 -37t39.5 -57.5t12 -72.5q-1 -54 -22 -96.5t-66 -73.5q-17 -11 -38 -18.5t-42.5 -12t-42.5 -6t-37 -1.5q-51 0 -83 8q-45 10 -75 37.5t-47 66t-22.5 86t-0.5 98.5q8 77 32.5 129t63.5 91q25 25 52.5 40t54 22t51.5 8.5t46 0.5q18 -1 40 -5t44.5 -13.5
t42 -27.5t33.5 -48zM445 219q-5 -78 19.5 -114t59.5 -38q16 -1 33.5 7t32 28.5t23.5 54.5t9 86q0 72 -21 103.5t-53 31.5q-21 0 -39.5 -12.5t-32 -34t-21.5 -50.5t-10 -62z" />
    <glyph glyph-name="cid833" unicode="&#x247a;" horiz-adv-x="1090" 
d="M290 -118q-65 4 -118 41.5t-89 100.5t-52.5 147t-7.5 180q10 107 47.5 182.5t88 123.5t106 69.5t102.5 20.5l-4 -33q-27 -1 -60 -20.5t-64 -63t-55 -113.5t-31 -173q-8 -113 0.5 -191t29 -128.5t50 -76.5t62.5 -35zM708 -86q40 5 77 25t66.5 63.5t50 114.5t27.5 178
q7 106 -1.5 183.5t-29 128.5t-50 78t-64.5 34l4 30q56 -8 108.5 -35.5t91.5 -82t59 -139.5t11 -207q-9 -121 -43.5 -197.5t-84 -121t-108 -63t-116.5 -22.5zM768 592q8 0 12 -8.5t-2 -19.5q-41 -57 -73 -108.5t-57 -105.5t-44 -114t-34 -133q-4 -32 -26.5 -57t-63.5 -25h-90
q1 10 8.5 50.5t27.5 91.5q21 52 50 99.5t59.5 88t59.5 72t49 51.5h-293v118h417z" />
    <glyph glyph-name="cid834" unicode="&#x247b;" horiz-adv-x="1090" 
d="M290 -118q-65 4 -118 41.5t-89 100.5t-52.5 147t-7.5 180q10 107 47.5 182.5t88 123.5t106 69.5t102.5 20.5l-4 -33q-27 -1 -60 -20.5t-64 -63t-55 -113.5t-31 -173q-8 -113 0.5 -191t29 -128.5t50 -76.5t62.5 -35zM708 -86q40 5 77 25t66.5 63.5t50 114.5t27.5 178
q7 106 -1.5 183.5t-29 128.5t-50 78t-64.5 34l4 30q56 -8 108.5 -35.5t91.5 -82t59 -139.5t11 -207q-9 -121 -43.5 -197.5t-84 -121t-108 -63t-116.5 -22.5zM570 616q64 0 104.5 -13.5t63.5 -33.5t31.5 -43t8.5 -41q0 -54 -30.5 -90.5t-78.5 -51.5q36 -8 64 -25
q19 -12 30.5 -27t17.5 -30t8 -28t2 -20q0 -35 -14 -69.5t-57 -66.5q-20 -15 -46.5 -25t-54 -16t-53 -8.5t-43.5 -2.5q-50 0 -95.5 4.5t-78.5 21.5q-45 21 -61.5 53t-16.5 69q0 10 1.5 23t6.5 28t14.5 30t24.5 29q20 18 42 30.5t48 20.5q-42 9 -65.5 38.5t-23.5 70.5
q0 34 15.5 66t53.5 60q35 26 83 36.5t99 10.5zM537 324q-19 0 -37 -8t-32 -24.5t-23.5 -43.5t-10.5 -64q0 -25 5 -47t16 -37.5t29 -24.5t43 -8q50 3 75 45.5t23 120.5q-1 37 -22.5 64t-65.5 27zM556 578q-17 0 -38 -12t-35 -43q-14 -29 -14 -72q0 -42 19 -66t54 -22
q15 0 30 6.5t27 21t19.5 39t9.5 61.5q1 36 -16.5 61.5t-55.5 25.5z" />
    <glyph glyph-name="cid835" unicode="&#x247c;" horiz-adv-x="1090" 
d="M290 -118q-65 4 -118 41.5t-89 100.5t-52.5 147t-7.5 180q10 107 47.5 182.5t88 123.5t106 69.5t102.5 20.5l-4 -33q-27 -1 -60 -20.5t-64 -63t-55 -113.5t-31 -173q-8 -113 0.5 -191t29 -128.5t50 -76.5t62.5 -35zM708 -86q40 5 77 25t66.5 63.5t50 114.5t27.5 178
q7 106 -1.5 183.5t-29 128.5t-50 78t-64.5 34l4 30q56 -8 108.5 -35.5t91.5 -82t59 -139.5t11 -207q-9 -121 -43.5 -197.5t-84 -121t-108 -63t-116.5 -22.5zM351 139q26 -36 62.5 -47t65.5 -11q17 0 34.5 3.5t34.5 12.5q31 17 51.5 58t25.5 98q-11 -6 -39 -18.5t-64 -13.5
q-86 0 -145 36q-35 23 -52.5 59t-17.5 79q0 21 4.5 44t13.5 45.5t22.5 43t31.5 36.5q23 20 48 32t49.5 18t47.5 8t42 1q68 -2 111.5 -22t68.5 -51.5t34.5 -72t10.5 -82.5q0 -41 -4 -83t-14.5 -81t-29 -74t-48.5 -62q-27 -24 -59 -36.5t-62 -18t-55.5 -5.5t-38.5 1
q-16 1 -37 3.5t-43 10.5t-43.5 23t-39.5 41zM527 265q18 0 38.5 8.5t37.5 42.5q4 7 8.5 24t8 39.5t5 49t0.5 53.5q-2 31 -9.5 50.5t-18.5 31t-24 15.5t-26 3q-15 0 -35.5 -10t-35.5 -41q-7 -14 -11.5 -33t-6.5 -39t-3 -39.5t0 -34.5q3 -68 22.5 -94t49.5 -26z" />
    <glyph glyph-name="cid836" unicode="&#x247d;" horiz-adv-x="1090" 
d="M290 -118q-65 4 -118 41.5t-89 100.5t-52.5 147t-7.5 180q10 107 47.5 182.5t88 123.5t106 69.5t102.5 20.5l-4 -33q-27 -1 -60 -20.5t-64 -63t-55 -113.5t-31 -173q-8 -113 0.5 -191t29 -128.5t50 -76.5t62.5 -35zM708 -86q40 5 77 25t66.5 63.5t50 114.5t27.5 178
q7 106 -1.5 183.5t-29 128.5t-50 78t-64.5 34l4 30q56 -8 108.5 -35.5t91.5 -82t59 -139.5t11 -207q-9 -121 -43.5 -197.5t-84 -121t-108 -63t-116.5 -22.5zM375 133q-5 -48 -29 -66t-51 -18h-73l38 406q2 17 -2 26.5t-20 9.5h-40v33h26q29 1 56 8t50.5 14.5t41.5 14t29 6.5
q16 0 15 -13zM654 42q-61 -3 -103.5 13.5t-69.5 45t-39.5 66.5t-12.5 79q0 156 64 239t186 87q60 3 101.5 -13t67.5 -44.5t38 -66t12 -77.5q0 -155 -61.5 -240t-182.5 -89zM678 538q-19 0 -37 -14t-32 -47.5t-22.5 -88.5t-8.5 -137q0 -57 6.5 -91t17 -52.5t24.5 -24.5t29 -6
q19 0 36 14.5t30 48.5t20.5 89.5t7.5 137.5q0 56 -6 90t-15.5 52t-22.5 23.5t-27 5.5z" />
    <glyph glyph-name="cid837" unicode="&#x247e;" horiz-adv-x="1090" 
d="M290 -118q-65 4 -118 41.5t-89 100.5t-52.5 147t-7.5 180q10 107 47.5 182.5t88 123.5t106 69.5t102.5 20.5l-4 -33q-27 -1 -60 -20.5t-64 -63t-55 -113.5t-31 -173q-8 -113 0.5 -191t29 -128.5t50 -76.5t62.5 -35zM708 -86q40 5 77 25t66.5 63.5t50 114.5t27.5 178
q7 106 -1.5 183.5t-29 128.5t-50 78t-64.5 34l4 30q56 -8 108.5 -35.5t91.5 -82t59 -139.5t11 -207q-9 -121 -43.5 -197.5t-84 -121t-108 -63t-116.5 -22.5zM442 132q-2 -24 -9.5 -40t-18.5 -25.5t-24.5 -14t-26.5 -4.5h-74l39 406q2 17 -2.5 26.5t-20.5 9.5h-39v33h25
q30 1 57 8t50 14.5t41 14t30 6.5q9 0 12 -3t2 -10zM764 132q-2 -24 -9.5 -40t-18.5 -25.5t-24.5 -14t-26.5 -4.5h-74l39 406q2 17 -2.5 26.5t-20.5 9.5h-39v33h25q30 1 57 8t50 14.5t41 14t30 6.5q9 0 12 -3t2 -10z" />
    <glyph glyph-name="cid838" unicode="&#x247f;" horiz-adv-x="1090" 
d="M290 -118q-65 4 -118 41.5t-89 100.5t-52.5 147t-7.5 180q10 107 47.5 182.5t88 123.5t106 69.5t102.5 20.5l-4 -33q-27 -1 -60 -20.5t-64 -63t-55 -113.5t-31 -173q-8 -113 0.5 -191t29 -128.5t50 -76.5t62.5 -35zM708 -86q40 5 77 25t66.5 63.5t50 114.5t27.5 178
q7 106 -1.5 183.5t-29 128.5t-50 78t-64.5 34l4 30q56 -8 108.5 -35.5t91.5 -82t59 -139.5t11 -207q-9 -121 -43.5 -197.5t-84 -121t-108 -63t-116.5 -22.5zM406 134q-4 -47 -28.5 -66t-51.5 -19h-74l40 408q1 17 -3 26t-21 9h-39v34h26q29 1 56 8t50 14.5t41 14t30 6.5
q10 0 13 -3t2 -10zM480 462q13 39 33.5 61.5t46.5 34t56 14.5t62 3q43 0 75 -12t53.5 -31.5t32.5 -44t12 -50.5q0 -38 -15 -67t-40 -52.5t-58 -42.5t-68 -37q-26 -14 -56 -34.5t-48 -36.5v-6q25 15 52.5 19.5t55.5 3.5t56 -5.5t56 -8.5q60 -6 62 56l15 1q12 -42 1 -75.5
t-34.5 -57t-55.5 -36t-63 -10.5q-17 2 -45 7.5t-63 25.5q-12 7 -26 14t-29 9.5t-30 -1t-30 -16.5l-15 -16q-7 -7 -16 -6.5t-13 5.5q-5 5 -5 12t7 13l119 120q24 24 47 43.5t41.5 41.5t32 49t17.5 66q3 38 -7.5 65.5t-42.5 41.5q-23 6 -45.5 4t-42 -11t-33.5 -25t-20 -37z
" />
    <glyph glyph-name="cid839" unicode="&#x2480;" horiz-adv-x="1090" 
d="M290 -118q-65 4 -118 41.5t-89 100.5t-52.5 147t-7.5 180q10 107 47.5 182.5t88 123.5t106 69.5t102.5 20.5l-4 -33q-27 -1 -60 -20.5t-64 -63t-55 -113.5t-31 -173q-8 -113 0.5 -191t29 -128.5t50 -76.5t62.5 -35zM708 -86q40 5 77 25t66.5 63.5t50 114.5t27.5 178
q7 106 -1.5 183.5t-29 128.5t-50 78t-64.5 34l4 30q56 -8 108.5 -35.5t91.5 -82t59 -139.5t11 -207q-9 -121 -43.5 -197.5t-84 -121t-108 -63t-116.5 -22.5zM400 133q-4 -47 -28.5 -66t-51.5 -19h-74l40 408q2 17 -2.5 26t-21.5 9h-39v34h26q29 1 56 8t50.5 14.5t41.5 14
t29 6.5q10 0 13 -3t2 -10zM477 488q16 31 39.5 49t49 27t51.5 10.5t49 1.5q98 -1 141.5 -36t44.5 -91q0 -50 -25.5 -77t-60.5 -40q39 -15 65 -46.5t26 -78.5q0 -51 -25.5 -89.5t-90.5 -56.5q-23 -7 -52.5 -10t-58 -3t-53 2.5t-38.5 6.5q-23 6 -41 17.5t-31.5 24t-22 24.5
t-11.5 20l77 68l11 -5v-104q27 -15 59 -17t61 9q26 10 44.5 40t19.5 81q0 18 -4.5 35.5t-16 32.5t-30.5 24.5t-46 10.5h-61v32h49q47 0 77 23.5t31 75.5q2 42 -18.5 64.5t-52.5 26.5q-22 3 -42 -2t-37 -15t-29.5 -23.5t-18.5 -27.5z" />
    <glyph glyph-name="cid840" unicode="&#x2481;" horiz-adv-x="1090" 
d="M290 -118q-65 4 -118 41.5t-89 100.5t-52.5 147t-7.5 180q10 107 47.5 182.5t88 123.5t106 69.5t102.5 20.5l-4 -33q-27 -1 -60 -20.5t-64 -63t-55 -113.5t-31 -173q-8 -113 0.5 -191t29 -128.5t50 -76.5t62.5 -35zM708 -86q40 5 77 25t66.5 63.5t50 114.5t27.5 178
q7 106 -1.5 183.5t-29 128.5t-50 78t-64.5 34l4 30q56 -8 108.5 -35.5t91.5 -82t59 -139.5t11 -207q-9 -121 -43.5 -197.5t-84 -121t-108 -63t-116.5 -22.5zM387 133q-5 -48 -29 -66t-51 -18h-74l39 407q2 18 -2 26.5t-21 8.5h-40v35h26q30 1 57 7.5t50 14.5t41 14.5t30 6.5
q17 0 15 -14zM416 213l232 283q22 28 41.5 42.5t38 21.5t37 8t38.5 1q19 0 26 -10t6 -21l-32 -327h87v-36h-90l-4 -40q-8 -47 -30.5 -66t-49.5 -19h-74l13 125h-239v38zM460 211h198l24 234q1 15 -8.5 14t-16.5 -11z" />
    <glyph glyph-name="cid841" unicode="&#x2482;" horiz-adv-x="1090" 
d="M290 -118q-65 4 -118 41.5t-89 100.5t-52.5 147t-7.5 180q10 107 47.5 182.5t88 123.5t106 69.5t102.5 20.5l-4 -33q-27 -1 -60 -20.5t-64 -63t-55 -113.5t-31 -173q-8 -113 0.5 -191t29 -128.5t50 -76.5t62.5 -35zM708 -86q40 5 77 25t66.5 63.5t50 114.5t27.5 178
q7 106 -1.5 183.5t-29 128.5t-50 78t-64.5 34l4 30q56 -8 108.5 -35.5t91.5 -82t59 -139.5t11 -207q-9 -121 -43.5 -197.5t-84 -121t-108 -63t-116.5 -22.5zM399 133q-5 -48 -29 -66t-51 -18h-74l39 407q2 18 -2 26.5t-21 8.5h-40v35h26q30 1 57 7.5t50 14.5t41 14.5t30 6.5
q17 0 15 -14zM512 199l10 -6v-100q29 -14 59.5 -17t54.5 6q30 12 48 43.5t16 85.5q-1 21 -7 40.5t-19.5 34.5t-34.5 24t-51 9h-83q-8 0 -15.5 6.5t-4.5 22.5l27 171q3 14 13.5 26.5t46.5 16.5q28 3 57 0t56 -8.5t49.5 -12t39.5 -9.5q37 -8 55 -2t23 29h14q2 -36 -9.5 -61.5
t-32.5 -41t-48.5 -21.5t-58.5 -4q-24 1 -45.5 6.5t-40.5 12t-35.5 13t-29.5 10.5q-4 1 -14.5 1.5t-11.5 -11.5l-18 -112h110q42 0 81 -6.5t69 -23t48 -44t18 -70.5q0 -22 -5.5 -45.5t-18.5 -45t-35 -39.5t-56 -28q-41 -10 -86.5 -12.5t-86.5 6t-74.5 30t-50.5 58.5z" />
    <glyph glyph-name="cid801" unicode="&#x249c;" horiz-adv-x="1090" 
d="M290 -118q-65 4 -118 41.5t-89 100.5t-52.5 147t-7.5 180q10 107 47.5 182.5t88 123.5t106 69.5t102.5 20.5l-4 -33q-27 -1 -60 -20.5t-64 -63t-55 -113.5t-31 -173q-8 -113 0.5 -191t29 -128.5t50 -76.5t62.5 -35zM708 -86q40 5 77 25t66.5 63.5t50 114.5t27.5 178
q7 106 -1.5 183.5t-29 128.5t-50 78t-64.5 34l4 30q56 -8 108.5 -35.5t91.5 -82t59 -139.5t11 -207q-9 -121 -43.5 -197.5t-84 -121t-108 -63t-116.5 -22.5zM734 214q-2 -34 17.5 -43t61.5 18l9 -12q-38 -47 -81.5 -66.5t-77.5 -19.5q-32 0 -53.5 12t-29.5 39
q-14 -26 -38.5 -38.5t-55.5 -12.5q-43 0 -80.5 11t-65 35t-43.5 61t-16 88q0 66 23 111.5t58.5 74t77 41.5t79.5 13q36 0 63 -13.5t41 -39.5l116 53h15zM592 457q1 10 -4 17.5t-13.5 12.5t-18.5 8t-20 3q-21 0 -39.5 -12.5t-32 -39.5t-21 -70.5t-7.5 -105.5q0 -34 3 -61.5
t10.5 -47t19.5 -30t31 -10.5q7 0 17 2t20.5 7.5t20.5 15.5t17 27v10.5t1 11.5z" />
    <glyph glyph-name="cid802" unicode="&#x249d;" horiz-adv-x="1090" 
d="M290 -118q-65 4 -118 41.5t-89 100.5t-52.5 147t-7.5 180q10 107 47.5 182.5t88 123.5t106 69.5t102.5 20.5l-4 -33q-27 -1 -60 -20.5t-64 -63t-55 -113.5t-31 -173q-8 -113 0.5 -191t29 -128.5t50 -76.5t62.5 -35zM708 -86q40 5 77 25t66.5 63.5t50 114.5t27.5 178
q7 106 -1.5 183.5t-29 128.5t-50 78t-64.5 34l4 30q56 -8 108.5 -35.5t91.5 -82t59 -139.5t11 -207q-9 -121 -43.5 -197.5t-84 -121t-108 -63t-116.5 -22.5zM378 540q2 33 -12.5 42t-36.5 9l1 25q33 1 63 6.5t55.5 11.5t45.5 11t34 5q18 0 16 -16l-16 -238q17 22 45 36
t68 14q35 0 65.5 -11.5t53.5 -33.5t36.5 -54t15.5 -73q1 -51 -12.5 -97.5t-42.5 -81.5t-72 -56.5t-100 -24.5q-21 -2 -43 1.5t-39 9.5l-159 -9zM597 404q-20 0 -42 -14.5t-30 -43.5l-19 -289q28 -13 53 -13q21 1 39 15t31.5 43t22 74.5t10.5 109.5q1 21 -2.5 42.5t-11.5 38
t-21 27t-30 10.5z" />
    <glyph glyph-name="cid803" unicode="&#x249e;" horiz-adv-x="1090" 
d="M290 -118q-65 4 -118 41.5t-89 100.5t-52.5 147t-7.5 180q10 107 47.5 182.5t88 123.5t106 69.5t102.5 20.5l-4 -33q-27 -1 -60 -20.5t-64 -63t-55 -113.5t-31 -173q-8 -113 0.5 -191t29 -128.5t50 -76.5t62.5 -35zM708 -86q40 5 77 25t66.5 63.5t50 114.5t27.5 178
q7 106 -1.5 183.5t-29 128.5t-50 78t-64.5 34l4 30q56 -8 108.5 -35.5t91.5 -82t59 -139.5t11 -207q-9 -121 -43.5 -197.5t-84 -121t-108 -63t-116.5 -22.5zM515 92q-34 0 -66 13t-57 37.5t-40 61t-15 83.5q0 59 22 104t59 75t86.5 45.5t105.5 15.5q14 0 31.5 -2.5
t34.5 -7.5t32.5 -12t25.5 -17l-50 -120h-8l-44 129q-2 2 -10.5 2h-13.5q-21 0 -41.5 -14t-36 -40t-25.5 -62.5t-10 -80.5q0 -55 23.5 -92t67.5 -37q27 0 58 10t59 27l10 -11q-26 -53 -78 -80t-120 -27z" />
    <glyph glyph-name="cid804" unicode="&#x249f;" horiz-adv-x="1090" 
d="M290 -118q-65 4 -118 41.5t-89 100.5t-52.5 147t-7.5 180q10 107 47.5 182.5t88 123.5t106 69.5t102.5 20.5l-4 -33q-27 -1 -60 -20.5t-64 -63t-55 -113.5t-31 -173q-8 -113 0.5 -191t29 -128.5t50 -76.5t62.5 -35zM708 -86q40 5 77 25t66.5 63.5t50 114.5t27.5 178
q7 106 -1.5 183.5t-29 128.5t-50 78t-64.5 34l4 30q56 -8 108.5 -35.5t91.5 -82t59 -139.5t11 -207q-9 -121 -43.5 -197.5t-84 -121t-108 -63t-116.5 -22.5zM591 537q2 33 -12 42t-36 9l1 25q33 1 63 6.5t55.5 11.5t45 11t33.5 5q19 0 17 -15l-34 -495q-2 -34 18 -42.5
t62 19.5l9 -13q-38 -46 -83 -68.5t-80 -22.5t-56 14t-28 46q-16 -31 -47 -45t-70 -14q-80 0 -129.5 46t-49.5 133q0 58 19.5 105t54 80t82 51t103.5 18q16 0 30.5 -4t24.5 -10zM549 414q-32 0 -54.5 -21t-37.5 -56.5t-22 -82.5t-7 -100q-1 -56 14.5 -79t41.5 -23
q11 0 24.5 3.5t25.5 12.5t20.5 24t10.5 37l17 276q-5 4 -16 6.5t-17 2.5z" />
    <glyph glyph-name="cid805" unicode="&#x24a0;" horiz-adv-x="1090" 
d="M290 -118q-65 4 -118 41.5t-89 100.5t-52.5 147t-7.5 180q10 107 47.5 182.5t88 123.5t106 69.5t102.5 20.5l-4 -33q-27 -1 -60 -20.5t-64 -63t-55 -113.5t-31 -173q-8 -113 0.5 -191t29 -128.5t50 -76.5t62.5 -35zM708 -86q40 5 77 25t66.5 63.5t50 114.5t27.5 178
q7 106 -1.5 183.5t-29 128.5t-50 78t-64.5 34l4 30q56 -8 108.5 -35.5t91.5 -82t59 -139.5t11 -207q-9 -121 -43.5 -197.5t-84 -121t-108 -63t-116.5 -22.5zM516 96q-38 0 -74.5 14t-65.5 40t-46.5 63t-17.5 84q0 59 21 103t56 73t80.5 43.5t94.5 14.5q45 0 80 -9.5t58 -25
t35 -35t12 -39.5q0 -36 -21 -60t-58.5 -40t-89.5 -24.5t-114 -14.5q8 -47 43.5 -76.5t84.5 -29.5q38 0 67.5 13t55.5 36l12 -10q-23 -56 -79.5 -88t-133.5 -32zM614 451q0 24 -12 39t-38 15q-20 0 -38 -14.5t-31.5 -40.5t-21.5 -62.5t-8 -79.5q37 5 64.5 20t46.5 35t28.5 43
t9.5 45z" />
    <glyph glyph-name="cid806" unicode="&#x24a1;" horiz-adv-x="1090" 
d="M290 -118q-65 4 -118 41.5t-89 100.5t-52.5 147t-7.5 180q10 107 47.5 182.5t88 123.5t106 69.5t102.5 20.5l-4 -33q-27 -1 -60 -20.5t-64 -63t-55 -113.5t-31 -173q-8 -113 0.5 -191t29 -128.5t50 -76.5t62.5 -35zM708 -86q40 5 77 25t66.5 63.5t50 114.5t27.5 178
q7 106 -1.5 183.5t-29 128.5t-50 78t-64.5 34l4 30q56 -8 108.5 -35.5t91.5 -82t59 -139.5t11 -207q-9 -121 -43.5 -197.5t-84 -121t-108 -63t-116.5 -22.5zM378 415h79l7 109q2 34 15 62t34.5 47.5t49 31t58.5 12.5q99 3 131 -65q4 -9 4 -24t-3.5 -31t-10.5 -30t-17 -20
l-65 54v9l56 25q0 13 -8 23t-19.5 15.5t-24.5 6.5t-23 -3q-20 -8 -25.5 -32t-8.5 -72l-8 -118h100v-34h-102l-20 -301q-4 -69 -45.5 -109.5t-113.5 -45.5q-30 -2 -55.5 7t-45.5 39l21 20q8 -14 28 -24.5t37 -5.5q9 3 14.5 9.5t8.5 18.5t4.5 30.5t3.5 45.5l21 316h-77v34z
" />
    <glyph glyph-name="cid807" unicode="&#x24a2;" horiz-adv-x="1090" 
d="M290 -118q-65 4 -118 41.5t-89 100.5t-52.5 147t-7.5 180q10 107 47.5 182.5t88 123.5t106 69.5t102.5 20.5l-4 -33q-27 -1 -60 -20.5t-64 -63t-55 -113.5t-31 -173q-8 -113 0.5 -191t29 -128.5t50 -76.5t62.5 -35zM708 -86q40 5 77 25t66.5 63.5t50 114.5t27.5 178
q7 106 -1.5 183.5t-29 128.5t-50 78t-64.5 34l4 30q56 -8 108.5 -35.5t91.5 -82t59 -139.5t11 -207q-9 -121 -43.5 -197.5t-84 -121t-108 -63t-116.5 -22.5zM399 142q-23 -8 -34 -30t-10 -50q1 -23 14 -37.5t30.5 -22.5t37.5 -11t35 -3t33.5 1.5t36 7t32.5 14.5t24 23
q6 9 10 24t3 32t-9 33t-26 27q-17 10 -38 14t-44 5.5t-47 1t-46 0.5q-38 5 -61.5 21.5t-27.5 45.5q-2 12 1.5 24t11 24t18.5 22.5t23 18.5q-54 23 -57 74q-2 45 15 79t48 57t73.5 36t91.5 16q29 2 53 0t44 -7q35 11 58 30t37 39q12 -3 24.5 -14t23 -25t16.5 -28.5t5 -24.5
l-102 -6q33 -27 36 -68q3 -50 -15 -82.5t-50 -51.5t-74.5 -27t-88.5 -11q-58 -3 -97 3l-11 -6q-9 -6 -12.5 -18.5t6.5 -21.5q7 -7 28 -13t64 -4q120 7 181.5 -15.5t78.5 -76.5q13 -42 -2 -85.5t-59 -73.5q-32 -23 -88 -36.5t-119 -13.5q-109 0 -165 28.5t-58 73.5
q-3 54 38 80t110 23v-15zM537 559q-19 -1 -36 -10t-29.5 -27.5t-19 -47t-4.5 -67.5q1 -23 6.5 -36t13.5 -19.5t17.5 -7.5t17.5 -1q19 1 36.5 9.5t29.5 26t18 45t4 67.5t-16.5 55t-37.5 13z" />
    <glyph glyph-name="cid808" unicode="&#x24a3;" horiz-adv-x="1090" 
d="M290 -118q-65 4 -118 41.5t-89 100.5t-52.5 147t-7.5 180q10 107 47.5 182.5t88 123.5t106 69.5t102.5 20.5l-4 -33q-27 -1 -60 -20.5t-64 -63t-55 -113.5t-31 -173q-8 -113 0.5 -191t29 -128.5t50 -76.5t62.5 -35zM708 -86q40 5 77 25t66.5 63.5t50 114.5t27.5 178
q7 106 -1.5 183.5t-29 128.5t-50 78t-64.5 34l4 30q56 -8 108.5 -35.5t91.5 -82t59 -139.5t11 -207q-9 -121 -43.5 -197.5t-84 -121t-108 -63t-116.5 -22.5zM332 538q3 33 -12 42t-37 9l2 25q33 1 63 6.5t55.5 11.5t45 11t33.5 5q19 0 17 -16l-16 -249q55 26 105.5 45
t86.5 19q40 0 61 -23t18 -61l-16 -228q-2 -34 17.5 -43.5t61.5 18.5l8 -13q-19 -23 -40.5 -39t-43 -26.5t-41.5 -15t-37 -4.5q-45 0 -68 24.5t-18 79.5l18 236q0 13 -7 20.5t-18 7.5q-14 0 -40.5 -8.5t-48.5 -16.5l-22 -336l-161 -9z" />
    <glyph glyph-name="cid809" unicode="&#x24a4;" horiz-adv-x="1090" 
d="M290 -118q-65 4 -118 41.5t-89 100.5t-52.5 147t-7.5 180q10 107 47.5 182.5t88 123.5t106 69.5t102.5 20.5l-4 -33q-27 -1 -60 -20.5t-64 -63t-55 -113.5t-31 -173q-8 -113 0.5 -191t29 -128.5t50 -76.5t62.5 -35zM708 -86q40 5 77 25t66.5 63.5t50 114.5t27.5 178
q7 106 -1.5 183.5t-29 128.5t-50 78t-64.5 34l4 30q56 -8 108.5 -35.5t91.5 -82t59 -139.5t11 -207q-9 -121 -43.5 -197.5t-84 -121t-108 -63t-116.5 -22.5zM448 356q-17 -3 -35 -5.5t-38 -3.5v28q57 7 115.5 25t110.5 44h14l-26 -345q-2 -34 20.5 -39.5t63.5 22.5l10 -12
q-38 -47 -84.5 -68.5t-81.5 -21.5q-43 0 -68.5 23.5t-20.5 78.5zM548 492q-35 0 -58 20t-23 52q0 19 8 34.5t21 26.5t29.5 17t33.5 6q35 0 58 -20t23 -52q0 -19 -8 -34.5t-20.5 -26.5t-29 -17t-34.5 -6z" />
    </font>
</defs>
</svg>
